NotoSerifTangut-Regular.ufo
<glyph name="u16FE0" format="2">
  <advance width="1000"/>
  <unicode hex="16FE0"/>
  <outline>
    <contour>
      <point x="315" y="0" type="line"/>
      <point x="492" y="92"/>
      <point x="642" y="270"/>
      <point x="700" y="425" type="curve"/>
      <point x="714" y="426"/>
      <point x="723" y="429"/>
      <point x="731" y="438" type="curve"/>
      <point x="653" y="493" type="line"/>
      <point x="623" y="460" type="line"/>
      <point x="375" y="460" type="line"/>
      <point x="490" y="532"/>
      <point x="594" y="616"/>
      <point x="663" y="724" type="curve"/>
      <point x="682" y="725"/>
      <point x="691" y="728"/>
      <point x="699" y="737" type="curve"/>
      <point x="611" y="804" type="line"/>
      <point x="582" y="760" type="line"/>
      <point x="317" y="760" type="line"/>
      <point x="325" y="733" type="line"/>
      <point x="576" y="733" type="line"/>
      <point x="530" y="631"/>
      <point x="426" y="537"/>
      <point x="341" y="473" type="curve" smooth="yes"/>
      <point x="336" y="469"/>
      <point x="331" y="469"/>
      <point x="326" y="469" type="curve" smooth="yes"/>
      <point x="323" y="469"/>
      <point x="319" y="469"/>
      <point x="316" y="469" type="curve"/>
      <point x="350" y="387" type="line"/>
      <point x="359" y="390"/>
      <point x="368" y="398"/>
      <point x="375" y="410" type="curve"/>
      <point x="467" y="420"/>
      <point x="544" y="429"/>
      <point x="619" y="438" type="curve"/>
      <point x="565" y="281"/>
      <point x="431" y="100"/>
      <point x="300" y="19" type="curve"/>
    </contour>
  </outline>
</glyph>
<glyph name="u17000" format="2">
  <advance width="1000"/>
  <unicode hex="17000"/>
  <outline>
    <contour>
      <point x="660" y="-101" type="curve" smooth="yes"/>
      <point x="768" y="-101" type="line" smooth="yes"/>
      <point x="925" y="-101"/>
      <point x="971" y="-87"/>
      <point x="971" y="-57" type="curve" smooth="yes"/>
      <point x="971" y="-42"/>
      <point x="960" y="-35"/>
      <point x="934" y="-28" type="curve"/>
      <point x="933" y="196" type="line"/>
      <point x="920" y="196" type="line"/>
      <point x="907" y="117"/>
      <point x="888" y="16"/>
      <point x="874" y="-19" type="curve" smooth="yes"/>
      <point x="869" y="-31"/>
      <point x="862" y="-37"/>
      <point x="850" y="-40" type="curve" smooth="yes"/>
      <point x="837" y="-43"/>
      <point x="800" y="-43"/>
      <point x="764" y="-43" type="curve" smooth="yes"/>
      <point x="674" y="-43" type="line" smooth="yes"/>
      <point x="638" y="-43"/>
      <point x="631" y="-33"/>
      <point x="631" y="-12" type="curve" smooth="yes"/>
      <point x="631" y="635" type="line"/>
      <point x="656" y="639"/>
      <point x="666" y="650"/>
      <point x="668" y="663" type="curve"/>
      <point x="564" y="675" type="line"/>
      <point x="564" y="-29" type="line" smooth="yes"/>
      <point x="564" y="-83"/>
      <point x="583" y="-101"/>
    </contour>
    <contour>
      <point x="91" y="-101" type="line"/>
      <point x="101" y="-101" type="line" smooth="yes"/>
      <point x="122" y="-101"/>
      <point x="153" y="-86"/>
      <point x="154" y="-80" type="curve"/>
      <point x="154" y="345" type="line"/>
      <point x="378" y="345" type="line"/>
      <point x="378" y="-98" type="line"/>
      <point x="388" y="-98" type="line" smooth="yes"/>
      <point x="409" y="-98"/>
      <point x="440" y="-83"/>
      <point x="441" y="-77" type="curve"/>
      <point x="441" y="334" type="line"/>
      <point x="460" y="338"/>
      <point x="475" y="346"/>
      <point x="482" y="353" type="curve"/>
      <point x="402" y="414" type="line"/>
      <point x="367" y="375" type="line"/>
      <point x="165" y="375" type="line"/>
      <point x="91" y="408" type="line"/>
    </contour>
    <contour>
      <point x="393" y="417" type="line"/>
      <point x="404" y="417" type="line" smooth="yes"/>
      <point x="427" y="417"/>
      <point x="460" y="435"/>
      <point x="461" y="442" type="curve"/>
      <point x="461" y="596" type="line"/>
      <point x="480" y="600"/>
      <point x="496" y="607"/>
      <point x="502" y="615" type="curve"/>
      <point x="422" y="679" type="line"/>
      <point x="383" y="637" type="line"/>
      <point x="85" y="637" type="line"/>
      <point x="94" y="607" type="line"/>
      <point x="393" y="607" type="line"/>
      <point x="393" y="483" type="line"/>
      <point x="80" y="483" type="line"/>
      <point x="89" y="453" type="line"/>
      <point x="393" y="453" type="line"/>
    </contour>
    <contour>
      <point x="60" y="713" type="line"/>
      <point x="919" y="713" type="line" smooth="yes"/>
      <point x="933" y="713"/>
      <point x="941" y="717"/>
      <point x="944" y="728" type="curve"/>
      <point x="913" y="755"/>
      <point x="878" y="783"/>
      <point x="850" y="804" type="curve"/>
      <point x="807" y="741" type="line"/>
      <point x="52" y="741" type="line"/>
    </contour>
  </outline>
</glyph>
<glyph name="u17001" format="2">
  <advance width="1000"/>
  <unicode hex="17001"/>
  <outline>
    <contour>
      <point x="116" y="-101" type="line"/>
      <point x="259" y="-87"/>
      <point x="416" y="-38"/>
      <point x="536" y="62" type="curve"/>
      <point x="624" y="-26"/>
      <point x="744" y="-76"/>
      <point x="871" y="-100" type="curve"/>
      <point x="885" y="-73"/>
      <point x="911" y="-47"/>
      <point x="940" y="-44" type="curve"/>
      <point x="943" y="-33" type="line"/>
      <point x="798" y="-19"/>
      <point x="667" y="19"/>
      <point x="572" y="95" type="curve"/>
      <point x="628" y="152"/>
      <point x="673" y="222"/>
      <point x="700" y="308" type="curve"/>
      <point x="723" y="309"/>
      <point x="732" y="312"/>
      <point x="740" y="321" type="curve"/>
      <point x="659" y="383" type="line"/>
      <point x="628" y="344" type="line"/>
      <point x="368" y="344" type="line"/>
      <point x="368" y="447" type="line"/>
      <point x="712" y="447" type="line" smooth="yes"/>
      <point x="726" y="447"/>
      <point x="734" y="451"/>
      <point x="737" y="462" type="curve"/>
      <point x="707" y="488"/>
      <point x="679" y="511"/>
      <point x="652" y="530" type="curve"/>
      <point x="615" y="476" type="line"/>
      <point x="382" y="476" type="line"/>
      <point x="308" y="511" type="line"/>
      <point x="308" y="47" type="line"/>
      <point x="318" y="47" type="line" smooth="yes"/>
      <point x="339" y="47"/>
      <point x="367" y="62"/>
      <point x="368" y="68" type="curve"/>
      <point x="368" y="315" type="line"/>
      <point x="405" y="315" type="line"/>
      <point x="422" y="229"/>
      <point x="456" y="158"/>
      <point x="501" y="101" type="curve"/>
      <point x="395" y="-4"/>
      <point x="251" y="-58"/>
      <point x="106" y="-82" type="curve"/>
    </contour>
    <contour>
      <point x="531" y="134" type="curve"/>
      <point x="486" y="181"/>
      <point x="453" y="241"/>
      <point x="433" y="315" type="curve"/>
      <point x="631" y="315" type="line"/>
      <point x="608" y="243"/>
      <point x="573" y="183"/>
    </contour>
    <contour>
      <point x="160" y="15" type="line"/>
      <point x="170" y="15" type="line" smooth="yes"/>
      <point x="191" y="15"/>
      <point x="224" y="30"/>
      <point x="225" y="36" type="curve"/>
      <point x="225" y="580" type="line"/>
      <point x="756" y="580" type="line"/>
      <point x="756" y="75" type="line"/>
      <point x="766" y="75" type="line" smooth="yes"/>
      <point x="787" y="75"/>
      <point x="820" y="90"/>
      <point x="821" y="96" type="curve"/>
      <point x="821" y="569" type="line"/>
      <point x="840" y="573"/>
      <point x="855" y="581"/>
      <point x="862" y="588" type="curve"/>
      <point x="781" y="649" type="line"/>
      <point x="745" y="610" type="line"/>
      <point x="236" y="610" type="line"/>
      <point x="160" y="643" type="line"/>
    </contour>
    <contour>
      <point x="78" y="714" type="line"/>
      <point x="896" y="714" type="line" smooth="yes"/>
      <point x="910" y="714"/>
      <point x="918" y="718"/>
      <point x="921" y="729" type="curve"/>
      <point x="890" y="756"/>
      <point x="855" y="784"/>
      <point x="827" y="805" type="curve"/>
      <point x="784" y="742" type="line"/>
      <point x="70" y="742" type="line"/>
    </contour>
  </outline>
</glyph>
<glyph name="u17002" format="2">
  <advance width="1000"/>
  <unicode hex="17002"/>
  <outline>
    <contour>
      <point x="441" y="-101" type="line"/>
      <point x="608" y="-70"/>
      <point x="771" y="17"/>
      <point x="848" y="109" type="curve"/>
      <point x="862" y="110"/>
      <point x="871" y="113"/>
      <point x="879" y="122" type="curve"/>
      <point x="800" y="177" type="line"/>
      <point x="771" y="144" type="line"/>
      <point x="536" y="144" type="line"/>
      <point x="639" y="174"/>
      <point x="721" y="213"/>
      <point x="789" y="260" type="curve"/>
      <point x="808" y="261"/>
      <point x="817" y="264"/>
      <point x="825" y="273" type="curve"/>
      <point x="739" y="332" type="line"/>
      <point x="712" y="296" type="line"/>
      <point x="474" y="296" type="line"/>
      <point x="548" y="324"/>
      <point x="612" y="356"/>
      <point x="667" y="391" type="curve"/>
      <point x="730" y="340"/>
      <point x="805" y="304"/>
      <point x="892" y="282" type="curve"/>
      <point x="904" y="311"/>
      <point x="931" y="325"/>
      <point x="961" y="331" type="curve"/>
      <point x="964" y="342" type="line"/>
      <point x="871" y="353"/>
      <point x="783" y="378"/>
      <point x="707" y="418" type="curve"/>
      <point x="753" y="451"/>
      <point x="792" y="487"/>
      <point x="826" y="526" type="curve"/>
      <point x="832" y="525"/>
      <point x="837" y="524"/>
      <point x="841" y="524" type="curve" smooth="yes"/>
      <point x="853" y="524"/>
      <point x="860" y="529"/>
      <point x="864" y="537" type="curve"/>
      <point x="782" y="587" type="line"/>
      <point x="749" y="535"/>
      <point x="708" y="488"/>
      <point x="660" y="447" type="curve"/>
      <point x="629" y="469"/>
      <point x="600" y="494"/>
      <point x="576" y="522" type="curve"/>
      <point x="631" y="556"/>
      <point x="675" y="595"/>
      <point x="710" y="637" type="curve"/>
      <point x="716" y="636"/>
      <point x="721" y="635"/>
      <point x="725" y="635" type="curve" smooth="yes"/>
      <point x="737" y="635"/>
      <point x="744" y="640"/>
      <point x="748" y="648" type="curve"/>
      <point x="664" y="700" type="line"/>
      <point x="611" y="596"/>
      <point x="518" y="515"/>
      <point x="412" y="464" type="curve"/>
      <point x="422" y="452" type="line"/>
      <point x="473" y="469"/>
      <point x="517" y="489"/>
      <point x="557" y="511" type="curve"/>
      <point x="579" y="479"/>
      <point x="604" y="449"/>
      <point x="631" y="423" type="curve"/>
      <point x="554" y="362"/>
      <point x="463" y="313"/>
      <point x="366" y="275" type="curve"/>
      <point x="376" y="263" type="line"/>
      <point x="410" y="273"/>
      <point x="442" y="284"/>
      <point x="472" y="295" type="curve"/>
      <point x="480" y="269" type="line"/>
      <point x="705" y="269" type="line"/>
      <point x="651" y="220"/>
      <point x="574" y="181"/>
      <point x="499" y="156" type="curve" smooth="yes"/>
      <point x="490" y="153"/>
      <point x="482" y="153"/>
      <point x="474" y="153" type="curve"/>
      <point x="508" y="71" type="line"/>
      <point x="517" y="74"/>
      <point x="526" y="82"/>
      <point x="533" y="94" type="curve"/>
      <point x="620" y="104"/>
      <point x="696" y="113"/>
      <point x="767" y="122" type="curve"/>
      <point x="701" y="36"/>
      <point x="560" y="-44"/>
      <point x="428" y="-79" type="curve"/>
    </contour>
    <contour>
      <point x="230" y="-101" type="line"/>
      <point x="240" y="-101" type="line" smooth="yes"/>
      <point x="261" y="-101"/>
      <point x="292" y="-86"/>
      <point x="293" y="-80" type="curve"/>
      <point x="293" y="375" type="line"/>
      <point x="456" y="375" type="line" smooth="yes"/>
      <point x="470" y="375"/>
      <point x="478" y="379"/>
      <point x="481" y="390" type="curve"/>
      <point x="455" y="413"/>
      <point x="425" y="438"/>
      <point x="400" y="457" type="curve"/>
      <point x="362" y="403" type="line"/>
      <point x="293" y="403" type="line"/>
      <point x="293" y="595" type="line"/>
      <point x="434" y="595" type="line" smooth="yes"/>
      <point x="448" y="595"/>
      <point x="456" y="599"/>
      <point x="459" y="610" type="curve"/>
      <point x="432" y="634"/>
      <point x="401" y="659"/>
      <point x="375" y="679" type="curve"/>
      <point x="337" y="623" type="line"/>
      <point x="83" y="623" type="line"/>
      <point x="91" y="595" type="line"/>
      <point x="230" y="595" type="line"/>
      <point x="230" y="403" type="line"/>
      <point x="57" y="403" type="line"/>
      <point x="65" y="375" type="line"/>
      <point x="230" y="375" type="line"/>
    </contour>
    <contour>
      <point x="59" y="713" type="line"/>
      <point x="914" y="713" type="line" smooth="yes"/>
      <point x="928" y="713"/>
      <point x="936" y="717"/>
      <point x="939" y="728" type="curve"/>
      <point x="908" y="755"/>
      <point x="873" y="783"/>
      <point x="845" y="804" type="curve"/>
      <point x="802" y="741" type="line"/>
      <point x="51" y="741" type="line"/>
    </contour>
  </outline>
</glyph>
<glyph name="u17003" format="2">
  <advance width="1000"/>
  <unicode hex="17003"/>
  <outline>
    <contour>
      <point x="105" y="-100" type="line"/>
      <point x="115" y="-100" type="line" smooth="yes"/>
      <point x="136" y="-100"/>
      <point x="165" y="-85"/>
      <point x="166" y="-79" type="curve"/>
      <point x="166" y="589" type="line"/>
      <point x="536" y="589" type="line" smooth="yes"/>
      <point x="550" y="589"/>
      <point x="558" y="593"/>
      <point x="561" y="604" type="curve"/>
      <point x="532" y="629"/>
      <point x="499" y="656"/>
      <point x="472" y="676" type="curve"/>
      <point x="431" y="618" type="line"/>
      <point x="181" y="618" type="line"/>
      <point x="105" y="653" type="line"/>
    </contour>
    <contour>
      <point x="188" y="-98" type="line"/>
      <point x="256" y="-62"/>
      <point x="322" y="-6"/>
      <point x="379" y="57" type="curve"/>
      <point x="418" y="10"/>
      <point x="452" y="-43"/>
      <point x="471" y="-93" type="curve"/>
      <point x="481" y="-98"/>
      <point x="490" y="-100"/>
      <point x="498" y="-100" type="curve" smooth="yes"/>
      <point x="518" y="-100"/>
      <point x="531" y="-87"/>
      <point x="531" y="-63" type="curve" smooth="yes"/>
      <point x="531" y="-28"/>
      <point x="501" y="30"/>
      <point x="414" y="99" type="curve"/>
      <point x="453" y="148"/>
      <point x="485" y="200"/>
      <point x="507" y="250" type="curve"/>
      <point x="521" y="251"/>
      <point x="530" y="254"/>
      <point x="538" y="263" type="curve"/>
      <point x="461" y="318" type="line"/>
      <point x="432" y="285" type="line"/>
      <point x="239" y="285" type="line"/>
      <point x="335" y="340"/>
      <point x="417" y="402"/>
      <point x="475" y="487" type="curve"/>
      <point x="494" y="488"/>
      <point x="503" y="491"/>
      <point x="511" y="500" type="curve"/>
      <point x="430" y="565" type="line"/>
      <point x="399" y="523" type="line"/>
      <point x="188" y="523" type="line"/>
      <point x="196" y="496" type="line"/>
      <point x="397" y="496" type="line"/>
      <point x="360" y="424"/>
      <point x="279" y="350"/>
      <point x="215" y="301" type="curve" smooth="yes"/>
      <point x="208" y="296"/>
      <point x="199" y="294"/>
      <point x="191" y="294" type="curve"/>
      <point x="225" y="212" type="line"/>
      <point x="234" y="215"/>
      <point x="243" y="223"/>
      <point x="250" y="235" type="curve"/>
      <point x="322" y="244"/>
      <point x="372" y="253"/>
      <point x="433" y="263" type="curve"/>
      <point x="417" y="219"/>
      <point x="395" y="174"/>
      <point x="368" y="131" type="curve"/>
      <point x="323" y="160"/>
      <point x="275" y="186"/>
      <point x="228" y="207" type="curve"/>
      <point x="217" y="197" type="line"/>
      <point x="262" y="166"/>
      <point x="307" y="129"/>
      <point x="343" y="94" type="curve"/>
      <point x="296" y="26"/>
      <point x="237" y="-36"/>
      <point x="175" y="-80" type="curve"/>
    </contour>
    <contour>
      <point x="604" y="0" type="line"/>
      <point x="614" y="0" type="line" smooth="yes"/>
      <point x="635" y="0"/>
      <point x="668" y="15"/>
      <point x="669" y="21" type="curve"/>
      <point x="669" y="582" type="line"/>
      <point x="693" y="586"/>
      <point x="702" y="596"/>
      <point x="705" y="610" type="curve"/>
      <point x="604" y="621" type="line"/>
    </contour>
    <contour>
      <point x="801" y="-103" type="line"/>
      <point x="811" y="-103" type="line" smooth="yes"/>
      <point x="832" y="-103"/>
      <point x="865" y="-88"/>
      <point x="866" y="-82" type="curve"/>
      <point x="866" y="627" type="line"/>
      <point x="890" y="631"/>
      <point x="899" y="641"/>
      <point x="902" y="655" type="curve"/>
      <point x="801" y="666" type="line"/>
    </contour>
    <contour>
      <point x="62" y="714" type="line"/>
      <point x="915" y="714" type="line" smooth="yes"/>
      <point x="929" y="714"/>
      <point x="937" y="718"/>
      <point x="940" y="729" type="curve"/>
      <point x="909" y="756"/>
      <point x="874" y="784"/>
      <point x="846" y="805" type="curve"/>
      <point x="803" y="742" type="line"/>
      <point x="54" y="742" type="line"/>
    </contour>
  </outline>
</glyph>
<glyph name="u17004" format="2">
  <advance width="1000"/>
  <unicode hex="17004"/>
  <outline>
    <contour>
      <point x="103" y="-95" type="line"/>
      <point x="113" y="-95" type="line" smooth="yes"/>
      <point x="134" y="-95"/>
      <point x="167" y="-80"/>
      <point x="168" y="-74" type="curve"/>
      <point x="168" y="86" type="line"/>
      <point x="359" y="86" type="line"/>
      <point x="359" y="-95" type="line"/>
      <point x="369" y="-95" type="line" smooth="yes"/>
      <point x="390" y="-95"/>
      <point x="415" y="-85"/>
      <point x="424" y="-74" type="curve"/>
      <point x="424" y="86" type="line"/>
      <point x="518" y="86" type="line" smooth="yes"/>
      <point x="532" y="86"/>
      <point x="540" y="90"/>
      <point x="543" y="101" type="curve"/>
      <point x="521" y="121"/>
      <point x="494" y="143"/>
      <point x="471" y="161" type="curve"/>
      <point x="438" y="114" type="line"/>
      <point x="424" y="114" type="line"/>
      <point x="424" y="250" type="line"/>
      <point x="504" y="250" type="line" smooth="yes"/>
      <point x="518" y="250"/>
      <point x="526" y="254"/>
      <point x="529" y="265" type="curve"/>
      <point x="510" y="282"/>
      <point x="487" y="302"/>
      <point x="466" y="319" type="curve"/>
      <point x="437" y="278" type="line"/>
      <point x="424" y="278" type="line"/>
      <point x="424" y="374" type="line"/>
      <point x="444" y="378"/>
      <point x="460" y="386"/>
      <point x="467" y="394" type="curve"/>
      <point x="385" y="456" type="line"/>
      <point x="349" y="415" type="line"/>
      <point x="168" y="415" type="line"/>
      <point x="168" y="528" type="line"/>
      <point x="479" y="528" type="line" smooth="yes"/>
      <point x="493" y="528"/>
      <point x="501" y="532"/>
      <point x="504" y="543" type="curve"/>
      <point x="475" y="568"/>
      <point x="442" y="595"/>
      <point x="415" y="615" type="curve"/>
      <point x="375" y="556" type="line"/>
      <point x="168" y="556" type="line"/>
      <point x="168" y="650" type="line"/>
      <point x="192" y="654"/>
      <point x="201" y="664"/>
      <point x="204" y="678" type="curve"/>
      <point x="103" y="689" type="line"/>
    </contour>
    <contour>
      <point x="168" y="114" type="line"/>
      <point x="168" y="250" type="line"/>
      <point x="359" y="250" type="line"/>
      <point x="359" y="114" type="line"/>
    </contour>
    <contour>
      <point x="168" y="278" type="line"/>
      <point x="168" y="387" type="line"/>
      <point x="359" y="387" type="line"/>
      <point x="359" y="278" type="line"/>
    </contour>
    <contour>
      <point x="650" y="-101" type="curve" smooth="yes"/>
      <point x="758" y="-101" type="line" smooth="yes"/>
      <point x="915" y="-101"/>
      <point x="960" y="-86"/>
      <point x="960" y="-56" type="curve" smooth="yes"/>
      <point x="960" y="-40"/>
      <point x="948" y="-33"/>
      <point x="924" y="-26" type="curve"/>
      <point x="923" y="157" type="line"/>
      <point x="910" y="157" type="line"/>
      <point x="898" y="94"/>
      <point x="879" y="17"/>
      <point x="864" y="-17" type="curve" smooth="yes"/>
      <point x="858" y="-28"/>
      <point x="851" y="-35"/>
      <point x="840" y="-38" type="curve" smooth="yes"/>
      <point x="826" y="-41"/>
      <point x="790" y="-41"/>
      <point x="753" y="-41" type="curve" smooth="yes"/>
      <point x="664" y="-41" type="line" smooth="yes"/>
      <point x="628" y="-41"/>
      <point x="621" y="-31"/>
      <point x="621" y="-10" type="curve" smooth="yes"/>
      <point x="621" y="308" type="line"/>
      <point x="730" y="324"/>
      <point x="822" y="349"/>
      <point x="895" y="385" type="curve"/>
      <point x="901" y="384"/>
      <point x="906" y="383"/>
      <point x="910" y="383" type="curve" smooth="yes"/>
      <point x="922" y="383"/>
      <point x="929" y="388"/>
      <point x="933" y="396" type="curve"/>
      <point x="858" y="457" type="line"/>
      <point x="800" y="400"/>
      <point x="713" y="356"/>
      <point x="621" y="327" type="curve"/>
      <point x="621" y="650" type="line"/>
      <point x="646" y="654"/>
      <point x="656" y="665"/>
      <point x="658" y="678" type="curve"/>
      <point x="554" y="690" type="line"/>
      <point x="554" y="-27" type="line" smooth="yes"/>
      <point x="554" y="-82"/>
      <point x="573" y="-101"/>
    </contour>
    <contour>
      <point x="67" y="714" type="line"/>
      <point x="913" y="714" type="line" smooth="yes"/>
      <point x="927" y="714"/>
      <point x="935" y="718"/>
      <point x="938" y="729" type="curve"/>
      <point x="907" y="756"/>
      <point x="872" y="784"/>
      <point x="844" y="805" type="curve"/>
      <point x="801" y="742" type="line"/>
      <point x="59" y="742" type="line"/>
    </contour>
  </outline>
</glyph>
<glyph name="u17005" format="2">
  <advance width="1000"/>
  <unicode hex="17005"/>
  <outline>
    <contour>
      <point x="299" y="-101" type="line"/>
      <point x="421" y="-20"/>
      <point x="481" y="86"/>
      <point x="497" y="247" type="curve"/>
      <point x="557" y="247" type="line"/>
      <point x="554" y="114"/>
      <point x="540" y="14"/>
      <point x="522" y="-11" type="curve" smooth="yes"/>
      <point x="514" y="-22"/>
      <point x="504" y="-24"/>
      <point x="486" y="-24" type="curve" smooth="yes"/>
      <point x="467" y="-24"/>
      <point x="434" y="-20"/>
      <point x="409" y="-15" type="curve"/>
      <point x="406" y="-30" type="line"/>
      <point x="424" y="-36"/>
      <point x="446" y="-47"/>
      <point x="459" y="-57" type="curve" smooth="yes"/>
      <point x="472" y="-67"/>
      <point x="480" y="-81"/>
      <point x="483" y="-98" type="curve"/>
      <point x="522" y="-92"/>
      <point x="558" y="-80"/>
      <point x="579" y="-50" type="curve" smooth="yes"/>
      <point x="603" y="-15"/>
      <point x="617" y="105"/>
      <point x="620" y="237" type="curve"/>
      <point x="639" y="240"/>
      <point x="648" y="245"/>
      <point x="655" y="254" type="curve"/>
      <point x="582" y="311" type="line"/>
      <point x="550" y="276" type="line"/>
      <point x="499" y="276" type="line"/>
      <point x="500" y="290"/>
      <point x="501" y="304"/>
      <point x="501" y="318" type="curve"/>
      <point x="521" y="317"/>
      <point x="530" y="322"/>
      <point x="533" y="334" type="curve"/>
      <point x="477" y="349" type="line"/>
      <point x="520" y="385"/>
      <point x="557" y="423"/>
      <point x="590" y="461" type="curve"/>
      <point x="609" y="462"/>
      <point x="618" y="465"/>
      <point x="626" y="474" type="curve"/>
      <point x="553" y="536" type="line"/>
      <point x="522" y="498" type="line"/>
      <point x="326" y="499" type="line"/>
      <point x="334" y="471" type="line"/>
      <point x="515" y="471" type="line"/>
      <point x="476" y="408"/>
      <point x="417" y="342"/>
      <point x="354" y="294" type="curve"/>
      <point x="335" y="290"/>
      <point x="319" y="284"/>
      <point x="306" y="277" type="curve"/>
      <point x="360" y="222" type="line"/>
      <point x="393" y="247" type="line"/>
      <point x="436" y="247" type="line"/>
      <point x="420" y="83"/>
      <point x="370" y="-15"/>
      <point x="288" y="-89" type="curve"/>
    </contour>
    <contour>
      <point x="61" y="-26" type="line"/>
      <point x="71" y="-26" type="line" smooth="yes"/>
      <point x="92" y="-26"/>
      <point x="125" y="-11"/>
      <point x="126" y="-5" type="curve"/>
      <point x="126" y="568" type="line"/>
      <point x="150" y="572"/>
      <point x="159" y="582"/>
      <point x="162" y="596" type="curve"/>
      <point x="61" y="607" type="line"/>
    </contour>
    <contour>
      <point x="222" y="-101" type="line"/>
      <point x="232" y="-101" type="line" smooth="yes"/>
      <point x="253" y="-101"/>
      <point x="286" y="-86"/>
      <point x="287" y="-80" type="curve"/>
      <point x="287" y="637" type="line"/>
      <point x="311" y="641"/>
      <point x="320" y="651"/>
      <point x="323" y="665" type="curve"/>
      <point x="222" y="676" type="line"/>
    </contour>
    <contour>
      <point x="377" y="276" type="line"/>
      <point x="400" y="290"/>
      <point x="421" y="305"/>
      <point x="441" y="320" type="curve"/>
      <point x="441" y="305"/>
      <point x="440" y="290"/>
      <point x="439" y="276" type="curve"/>
    </contour>
    <contour>
      <point x="742" y="-101" type="curve" smooth="yes"/>
      <point x="805" y="-101" type="line" smooth="yes"/>
      <point x="910" y="-101"/>
      <point x="951" y="-85"/>
      <point x="951" y="-57" type="curve" smooth="yes"/>
      <point x="951" y="-42"/>
      <point x="941" y="-34"/>
      <point x="918" y="-28" type="curve"/>
      <point x="917" y="142" type="line"/>
      <point x="904" y="142" type="line"/>
      <point x="892" y="88"/>
      <point x="875" y="17"/>
      <point x="858" y="-19" type="curve" smooth="yes"/>
      <point x="853" y="-30"/>
      <point x="847" y="-37"/>
      <point x="839" y="-40" type="curve" smooth="yes"/>
      <point x="831" y="-42"/>
      <point x="816" y="-42"/>
      <point x="799" y="-42" type="curve" smooth="yes"/>
      <point x="761" y="-42" type="line" smooth="yes"/>
      <point x="740" y="-42"/>
      <point x="737" y="-33"/>
      <point x="737" y="-18" type="curve" smooth="yes"/>
      <point x="737" y="279" type="line"/>
      <point x="808" y="304"/>
      <point x="862" y="341"/>
      <point x="901" y="380" type="curve"/>
      <point x="907" y="379"/>
      <point x="912" y="378"/>
      <point x="916" y="378" type="curve" smooth="yes"/>
      <point x="928" y="378"/>
      <point x="935" y="383"/>
      <point x="939" y="391" type="curve"/>
      <point x="856" y="446" type="line"/>
      <point x="831" y="387"/>
      <point x="788" y="333"/>
      <point x="737" y="299" type="curve"/>
      <point x="737" y="635" type="line"/>
      <point x="762" y="639"/>
      <point x="772" y="650"/>
      <point x="774" y="663" type="curve"/>
      <point x="670" y="675" type="line"/>
      <point x="670" y="-36" type="line" smooth="yes"/>
      <point x="670" y="-81"/>
      <point x="681" y="-101"/>
    </contour>
    <contour>
      <point x="339" y="592" type="line"/>
      <point x="628" y="592" type="line" smooth="yes"/>
      <point x="642" y="592"/>
      <point x="650" y="596"/>
      <point x="653" y="607" type="curve"/>
      <point x="626" y="631"/>
      <point x="596" y="656"/>
      <point x="570" y="675" type="curve"/>
      <point x="532" y="620" type="line"/>
      <point x="331" y="620" type="line"/>
    </contour>
    <contour>
      <point x="65" y="714" type="line"/>
      <point x="913" y="714" type="line" smooth="yes"/>
      <point x="927" y="714"/>
      <point x="935" y="718"/>
      <point x="938" y="729" type="curve"/>
      <point x="907" y="756"/>
      <point x="872" y="784"/>
      <point x="844" y="805" type="curve"/>
      <point x="801" y="742" type="line"/>
      <point x="57" y="742" type="line"/>
    </contour>
  </outline>
</glyph>
<glyph name="u17006" format="2">
  <advance width="1000"/>
  <unicode hex="17006"/>
  <outline>
    <contour>
      <point x="646" y="-101" type="curve" smooth="yes"/>
      <point x="756" y="-101" type="line" smooth="yes"/>
      <point x="916" y="-101"/>
      <point x="961" y="-86"/>
      <point x="961" y="-55" type="curve" smooth="yes"/>
      <point x="961" y="-40"/>
      <point x="949" y="-33"/>
      <point x="925" y="-26" type="curve"/>
      <point x="924" y="157" type="line"/>
      <point x="911" y="157" type="line"/>
      <point x="899" y="94"/>
      <point x="880" y="17"/>
      <point x="865" y="-17" type="curve" smooth="yes"/>
      <point x="859" y="-28"/>
      <point x="852" y="-35"/>
      <point x="840" y="-38" type="curve" smooth="yes"/>
      <point x="827" y="-41"/>
      <point x="789" y="-41"/>
      <point x="752" y="-41" type="curve" smooth="yes"/>
      <point x="660" y="-41" type="line" smooth="yes"/>
      <point x="623" y="-41"/>
      <point x="616" y="-31"/>
      <point x="616" y="-10" type="curve" smooth="yes"/>
      <point x="616" y="306" type="line"/>
      <point x="727" y="323"/>
      <point x="821" y="348"/>
      <point x="895" y="385" type="curve"/>
      <point x="901" y="384"/>
      <point x="906" y="383"/>
      <point x="910" y="383" type="curve" smooth="yes"/>
      <point x="922" y="383"/>
      <point x="929" y="388"/>
      <point x="933" y="396" type="curve"/>
      <point x="858" y="457" type="line"/>
      <point x="799" y="400"/>
      <point x="710" y="355"/>
      <point x="616" y="326" type="curve"/>
      <point x="616" y="647" type="line"/>
      <point x="641" y="651"/>
      <point x="651" y="662"/>
      <point x="653" y="675" type="curve"/>
      <point x="549" y="687" type="line"/>
      <point x="549" y="-27" type="line" smooth="yes"/>
      <point x="549" y="-82"/>
      <point x="569" y="-101"/>
    </contour>
    <contour>
      <point x="37" y="-104" type="line"/>
      <point x="162" y="-51"/>
      <point x="253" y="14"/>
      <point x="322" y="87" type="curve"/>
      <point x="371" y="33"/>
      <point x="414" y="-30"/>
      <point x="438" y="-90" type="curve"/>
      <point x="448" y="-96"/>
      <point x="457" y="-99"/>
      <point x="465" y="-99" type="curve" smooth="yes"/>
      <point x="482" y="-99"/>
      <point x="494" y="-86"/>
      <point x="494" y="-64" type="curve" smooth="yes"/>
      <point x="494" y="-25"/>
      <point x="460" y="42"/>
      <point x="360" y="121" type="curve" smooth="yes"/>
      <point x="354" y="125" type="line"/>
      <point x="380" y="158"/>
      <point x="403" y="193"/>
      <point x="422" y="229" type="curve"/>
      <point x="428" y="228"/>
      <point x="433" y="227"/>
      <point x="437" y="227" type="curve" smooth="yes"/>
      <point x="449" y="227"/>
      <point x="456" y="232"/>
      <point x="460" y="240" type="curve"/>
      <point x="372" y="287" type="line"/>
      <point x="354" y="241"/>
      <point x="332" y="199"/>
      <point x="307" y="160" type="curve"/>
      <point x="260" y="191"/>
      <point x="210" y="219"/>
      <point x="161" y="243" type="curve"/>
      <point x="150" y="233" type="line"/>
      <point x="198" y="201"/>
      <point x="245" y="163"/>
      <point x="283" y="127" type="curve"/>
      <point x="215" y="35"/>
      <point x="126" y="-38"/>
      <point x="26" y="-92" type="curve"/>
    </contour>
    <contour>
      <point x="47" y="208" type="line"/>
      <point x="173" y="255"/>
      <point x="268" y="312"/>
      <point x="341" y="379" type="curve"/>
      <point x="380" y="348"/>
      <point x="415" y="313"/>
      <point x="440" y="277" type="curve"/>
      <point x="447" y="275"/>
      <point x="454" y="274"/>
      <point x="460" y="274" type="curve" smooth="yes"/>
      <point x="481" y="274"/>
      <point x="494" y="285"/>
      <point x="494" y="302" type="curve" smooth="yes"/>
      <point x="494" y="329"/>
      <point x="463" y="372"/>
      <point x="380" y="417" type="curve"/>
      <point x="403" y="442"/>
      <point x="424" y="469"/>
      <point x="443" y="496" type="curve"/>
      <point x="449" y="495"/>
      <point x="454" y="494"/>
      <point x="458" y="494" type="curve" smooth="yes"/>
      <point x="470" y="494"/>
      <point x="477" y="499"/>
      <point x="481" y="507" type="curve"/>
      <point x="395" y="556" type="line"/>
      <point x="375" y="515"/>
      <point x="352" y="478"/>
      <point x="324" y="443" type="curve"/>
      <point x="287" y="457"/>
      <point x="248" y="470"/>
      <point x="210" y="481" type="curve"/>
      <point x="271" y="528"/>
      <point x="315" y="581"/>
      <point x="349" y="639" type="curve"/>
      <point x="355" y="638"/>
      <point x="360" y="637"/>
      <point x="364" y="637" type="curve" smooth="yes"/>
      <point x="376" y="637"/>
      <point x="383" y="642"/>
      <point x="387" y="650" type="curve"/>
      <point x="300" y="698" type="line"/>
      <point x="251" y="570"/>
      <point x="158" y="470"/>
      <point x="46" y="406" type="curve"/>
      <point x="58" y="394" type="line"/>
      <point x="109" y="416"/>
      <point x="153" y="440"/>
      <point x="191" y="467" type="curve"/>
      <point x="228" y="450"/>
      <point x="264" y="430"/>
      <point x="297" y="410" type="curve"/>
      <point x="226" y="330"/>
      <point x="135" y="267"/>
      <point x="36" y="221" type="curve"/>
    </contour>
    <contour>
      <point x="61" y="714" type="line"/>
      <point x="918" y="714" type="line" smooth="yes"/>
      <point x="932" y="714"/>
      <point x="940" y="718"/>
      <point x="943" y="729" type="curve"/>
      <point x="912" y="756"/>
      <point x="877" y="784"/>
      <point x="849" y="805" type="curve"/>
      <point x="806" y="742" type="line"/>
      <point x="53" y="742" type="line"/>
    </contour>
  </outline>
</glyph>
<glyph name="u17007" format="2">
  <advance width="1000"/>
  <unicode hex="17007"/>
  <outline>
    <contour>
      <point x="252" y="-101" type="line"/>
      <point x="262" y="-101" type="line" smooth="yes"/>
      <point x="283" y="-101"/>
      <point x="316" y="-86"/>
      <point x="317" y="-80" type="curve"/>
      <point x="317" y="81" type="line"/>
      <point x="646" y="81" type="line"/>
      <point x="646" y="-31" type="line" smooth="yes"/>
      <point x="646" y="-82"/>
      <point x="658" y="-101"/>
      <point x="719" y="-101" type="curve" smooth="yes"/>
      <point x="786" y="-101" type="line" smooth="yes"/>
      <point x="895" y="-101"/>
      <point x="946" y="-85"/>
      <point x="946" y="-58" type="curve" smooth="yes"/>
      <point x="946" y="-43"/>
      <point x="935" y="-35"/>
      <point x="912" y="-28" type="curve"/>
      <point x="912" y="150" type="line"/>
      <point x="899" y="150" type="line"/>
      <point x="887" y="93"/>
      <point x="868" y="13"/>
      <point x="853" y="-19" type="curve" smooth="yes"/>
      <point x="847" y="-30"/>
      <point x="840" y="-37"/>
      <point x="829" y="-40" type="curve" smooth="yes"/>
      <point x="815" y="-43"/>
      <point x="797" y="-43"/>
      <point x="780" y="-43" type="curve" smooth="yes"/>
      <point x="735" y="-43" type="line" smooth="yes"/>
      <point x="716" y="-43"/>
      <point x="711" y="-32"/>
      <point x="711" y="-12" type="curve" smooth="yes"/>
      <point x="711" y="157" type="line"/>
      <point x="775" y="175"/>
      <point x="827" y="201"/>
      <point x="867" y="231" type="curve"/>
      <point x="873" y="230"/>
      <point x="878" y="229"/>
      <point x="882" y="229" type="curve" smooth="yes"/>
      <point x="894" y="229"/>
      <point x="901" y="234"/>
      <point x="905" y="242" type="curve"/>
      <point x="824" y="301" type="line"/>
      <point x="798" y="254"/>
      <point x="757" y="210"/>
      <point x="711" y="181" type="curve"/>
      <point x="711" y="382" type="line"/>
      <point x="730" y="386"/>
      <point x="745" y="394"/>
      <point x="752" y="401" type="curve"/>
      <point x="671" y="462" type="line"/>
      <point x="635" y="423" type="line"/>
      <point x="422" y="423" type="line"/>
      <point x="549" y="484"/>
      <point x="651" y="556"/>
      <point x="735" y="640" type="curve"/>
      <point x="741" y="639"/>
      <point x="746" y="638"/>
      <point x="750" y="638" type="curve" smooth="yes"/>
      <point x="762" y="638"/>
      <point x="769" y="643"/>
      <point x="773" y="651" type="curve"/>
      <point x="688" y="702" type="line"/>
      <point x="600" y="587"/>
      <point x="478" y="495"/>
      <point x="337" y="423" type="curve"/>
      <point x="328" y="423" type="line"/>
      <point x="252" y="456" type="line"/>
      <point x="252" y="383" type="line"/>
      <point x="189" y="355"/>
      <point x="124" y="331"/>
      <point x="57" y="310" type="curve"/>
      <point x="65" y="296" type="line"/>
      <point x="132" y="314"/>
      <point x="194" y="332"/>
      <point x="252" y="353" type="curve"/>
    </contour>
    <contour>
      <point x="317" y="109" type="line"/>
      <point x="317" y="242" type="line"/>
      <point x="646" y="242" type="line"/>
      <point x="646" y="109" type="line"/>
    </contour>
    <contour>
      <point x="317" y="270" type="line"/>
      <point x="317" y="377" type="line"/>
      <point x="330" y="382"/>
      <point x="343" y="388"/>
      <point x="355" y="393" type="curve"/>
      <point x="646" y="393" type="line"/>
      <point x="646" y="270" type="line"/>
    </contour>
    <contour>
      <point x="372" y="524" type="curve"/>
      <point x="383" y="516"/>
      <point x="395" y="512"/>
      <point x="405" y="512" type="curve" smooth="yes"/>
      <point x="424" y="512"/>
      <point x="438" y="524"/>
      <point x="438" y="543" type="curve" smooth="yes"/>
      <point x="438" y="567"/>
      <point x="418" y="600"/>
      <point x="363" y="636" type="curve" smooth="yes"/>
      <point x="323" y="662"/>
      <point x="272" y="683"/>
      <point x="229" y="696" type="curve"/>
      <point x="219" y="686" type="line"/>
      <point x="251" y="666"/>
      <point x="283" y="640"/>
      <point x="307" y="618" type="curve" smooth="yes"/>
      <point x="334" y="592"/>
      <point x="359" y="556"/>
    </contour>
    <contour>
      <point x="69" y="714" type="line"/>
      <point x="900" y="714" type="line" smooth="yes"/>
      <point x="914" y="714"/>
      <point x="922" y="718"/>
      <point x="925" y="729" type="curve"/>
      <point x="894" y="756"/>
      <point x="859" y="784"/>
      <point x="831" y="805" type="curve"/>
      <point x="788" y="742" type="line"/>
      <point x="61" y="742" type="line"/>
    </contour>
  </outline>
</glyph>
<glyph name="u17008" format="2">
  <advance width="1000"/>
  <unicode hex="17008"/>
  <outline>
    <contour>
      <point x="123" y="-101" type="line"/>
      <point x="133" y="-101" type="line" smooth="yes"/>
      <point x="154" y="-101"/>
      <point x="187" y="-86"/>
      <point x="188" y="-80" type="curve"/>
      <point x="188" y="166" type="line"/>
      <point x="383" y="166" type="line"/>
      <point x="383" y="-98" type="line"/>
      <point x="393" y="-98" type="line" smooth="yes"/>
      <point x="414" y="-98"/>
      <point x="447" y="-83"/>
      <point x="448" y="-77" type="curve"/>
      <point x="448" y="166" type="line"/>
      <point x="523" y="166" type="line" smooth="yes"/>
      <point x="536" y="166"/>
      <point x="544" y="170"/>
      <point x="547" y="181" type="curve"/>
      <point x="528" y="199"/>
      <point x="504" y="220"/>
      <point x="483" y="236" type="curve"/>
      <point x="453" y="194" type="line"/>
      <point x="448" y="194" type="line"/>
      <point x="448" y="358" type="line"/>
      <point x="467" y="362"/>
      <point x="482" y="370"/>
      <point x="489" y="377" type="curve"/>
      <point x="408" y="438" type="line"/>
      <point x="372" y="399" type="line"/>
      <point x="206" y="399" type="line"/>
      <point x="325" y="460"/>
      <point x="411" y="535"/>
      <point x="475" y="621" type="curve"/>
      <point x="481" y="620"/>
      <point x="486" y="619"/>
      <point x="490" y="619" type="curve" smooth="yes"/>
      <point x="502" y="619"/>
      <point x="509" y="624"/>
      <point x="513" y="632" type="curve"/>
      <point x="427" y="683" type="line"/>
      <point x="367" y="571"/>
      <point x="275" y="482"/>
      <point x="165" y="414" type="curve"/>
      <point x="123" y="432" type="line"/>
      <point x="123" y="389" type="line"/>
      <point x="91" y="371"/>
      <point x="57" y="355"/>
      <point x="23" y="341" type="curve"/>
      <point x="33" y="328" type="line"/>
      <point x="65" y="338"/>
      <point x="95" y="349"/>
      <point x="123" y="361" type="curve"/>
      <point x="123" y="194" type="line"/>
      <point x="56" y="194" type="line"/>
      <point x="64" y="166" type="line"/>
      <point x="123" y="166" type="line"/>
    </contour>
    <contour>
      <point x="188" y="194" type="line"/>
      <point x="188" y="369" type="line"/>
      <point x="383" y="369" type="line"/>
      <point x="383" y="194" type="line"/>
    </contour>
    <contour>
      <point x="177" y="536" type="curve"/>
      <point x="188" y="524"/>
      <point x="201" y="519"/>
      <point x="213" y="519" type="curve" smooth="yes"/>
      <point x="232" y="519"/>
      <point x="248" y="532"/>
      <point x="248" y="554" type="curve" smooth="yes"/>
      <point x="248" y="573"/>
      <point x="235" y="598"/>
      <point x="200" y="626" type="curve" smooth="yes"/>
      <point x="170" y="650"/>
      <point x="129" y="670"/>
      <point x="95" y="682" type="curve"/>
      <point x="85" y="672" type="line"/>
      <point x="106" y="654"/>
      <point x="128" y="632"/>
      <point x="142" y="612" type="curve" smooth="yes"/>
      <point x="157" y="590"/>
      <point x="171" y="561"/>
    </contour>
    <contour>
      <point x="656" y="-101" type="curve" smooth="yes"/>
      <point x="762" y="-101" type="line" smooth="yes"/>
      <point x="916" y="-101"/>
      <point x="961" y="-86"/>
      <point x="961" y="-56" type="curve" smooth="yes"/>
      <point x="961" y="-40"/>
      <point x="949" y="-33"/>
      <point x="925" y="-26" type="curve"/>
      <point x="924" y="157" type="line"/>
      <point x="911" y="157" type="line"/>
      <point x="899" y="94"/>
      <point x="880" y="17"/>
      <point x="865" y="-17" type="curve" smooth="yes"/>
      <point x="860" y="-29"/>
      <point x="853" y="-36"/>
      <point x="841" y="-39" type="curve" smooth="yes"/>
      <point x="828" y="-41"/>
      <point x="793" y="-41"/>
      <point x="757" y="-41" type="curve" smooth="yes"/>
      <point x="670" y="-41" type="line" smooth="yes"/>
      <point x="634" y="-41"/>
      <point x="628" y="-31"/>
      <point x="628" y="-11" type="curve" smooth="yes"/>
      <point x="628" y="300" type="line"/>
      <point x="734" y="315"/>
      <point x="825" y="339"/>
      <point x="896" y="374" type="curve"/>
      <point x="902" y="373"/>
      <point x="907" y="372"/>
      <point x="911" y="372" type="curve" smooth="yes"/>
      <point x="923" y="372"/>
      <point x="930" y="377"/>
      <point x="934" y="385" type="curve"/>
      <point x="859" y="446" type="line"/>
      <point x="802" y="390"/>
      <point x="718" y="347"/>
      <point x="628" y="319" type="curve"/>
      <point x="628" y="636" type="line"/>
      <point x="653" y="640"/>
      <point x="663" y="651"/>
      <point x="665" y="664" type="curve"/>
      <point x="561" y="676" type="line"/>
      <point x="561" y="-28" type="line" smooth="yes"/>
      <point x="561" y="-82"/>
      <point x="580" y="-101"/>
    </contour>
    <contour>
      <point x="77" y="714" type="line"/>
      <point x="908" y="714" type="line" smooth="yes"/>
      <point x="922" y="714"/>
      <point x="930" y="718"/>
      <point x="933" y="729" type="curve"/>
      <point x="902" y="756"/>
      <point x="867" y="784"/>
      <point x="839" y="805" type="curve"/>
      <point x="796" y="742" type="line"/>
      <point x="69" y="742" type="line"/>
    </contour>
  </outline>
</glyph>
<glyph name="u17009" format="2">
  <advance width="1000"/>
  <unicode hex="17009"/>
  <outline>
    <contour>
      <point x="48" y="-101" type="line"/>
      <point x="167" y="-47"/>
      <point x="258" y="14"/>
      <point x="328" y="83" type="curve"/>
      <point x="369" y="28"/>
      <point x="403" y="-35"/>
      <point x="421" y="-94" type="curve"/>
      <point x="430" y="-99"/>
      <point x="439" y="-102"/>
      <point x="447" y="-102" type="curve" smooth="yes"/>
      <point x="467" y="-102"/>
      <point x="482" y="-87"/>
      <point x="482" y="-59" type="curve" smooth="yes"/>
      <point x="482" y="-21"/>
      <point x="453" y="42"/>
      <point x="371" y="119" type="curve" smooth="yes"/>
      <point x="369" y="121"/>
      <point x="367" y="122"/>
      <point x="366" y="124" type="curve"/>
      <point x="401" y="164"/>
      <point x="430" y="208"/>
      <point x="455" y="254" type="curve"/>
      <point x="461" y="253"/>
      <point x="466" y="252"/>
      <point x="470" y="252" type="curve" smooth="yes"/>
      <point x="483" y="252"/>
      <point x="489" y="257"/>
      <point x="493" y="265" type="curve"/>
      <point x="404" y="311" type="line"/>
      <point x="382" y="256"/>
      <point x="353" y="206"/>
      <point x="320" y="160" type="curve"/>
      <point x="283" y="188"/>
      <point x="243" y="214"/>
      <point x="203" y="236" type="curve"/>
      <point x="260" y="280"/>
      <point x="302" y="331"/>
      <point x="333" y="385" type="curve"/>
      <point x="339" y="384"/>
      <point x="344" y="383"/>
      <point x="348" y="383" type="curve" smooth="yes"/>
      <point x="360" y="383"/>
      <point x="367" y="388"/>
      <point x="371" y="396" type="curve"/>
      <point x="314" y="428" type="line"/>
      <point x="391" y="428" type="line"/>
      <point x="391" y="391" type="line"/>
      <point x="402" y="391" type="line" smooth="yes"/>
      <point x="425" y="391"/>
      <point x="458" y="409"/>
      <point x="459" y="416" type="curve"/>
      <point x="459" y="583" type="line"/>
      <point x="478" y="587"/>
      <point x="494" y="594"/>
      <point x="500" y="602" type="curve"/>
      <point x="420" y="666" type="line"/>
      <point x="381" y="624" type="line"/>
      <point x="106" y="624" type="line"/>
      <point x="115" y="594" type="line"/>
      <point x="391" y="594" type="line"/>
      <point x="391" y="458" type="line"/>
      <point x="101" y="458" type="line"/>
      <point x="110" y="428" type="line"/>
      <point x="280" y="428" type="line"/>
      <point x="231" y="313"/>
      <point x="146" y="223"/>
      <point x="45" y="163" type="curve"/>
      <point x="57" y="151" type="line"/>
      <point x="108" y="173"/>
      <point x="151" y="198"/>
      <point x="189" y="225" type="curve"/>
      <point x="227" y="195"/>
      <point x="263" y="159"/>
      <point x="294" y="125" type="curve"/>
      <point x="224" y="38"/>
      <point x="136" y="-33"/>
      <point x="37" y="-89" type="curve"/>
    </contour>
    <contour>
      <point x="642" y="-101" type="curve" smooth="yes"/>
      <point x="747" y="-101" type="line" smooth="yes"/>
      <point x="900" y="-101"/>
      <point x="944" y="-86"/>
      <point x="944" y="-56" type="curve" smooth="yes"/>
      <point x="944" y="-41"/>
      <point x="933" y="-33"/>
      <point x="909" y="-26" type="curve"/>
      <point x="908" y="157" type="line"/>
      <point x="895" y="157" type="line"/>
      <point x="883" y="94"/>
      <point x="864" y="17"/>
      <point x="849" y="-17" type="curve" smooth="yes"/>
      <point x="843" y="-29"/>
      <point x="837" y="-36"/>
      <point x="825" y="-39" type="curve" smooth="yes"/>
      <point x="812" y="-41"/>
      <point x="777" y="-41"/>
      <point x="742" y="-41" type="curve" smooth="yes"/>
      <point x="657" y="-41" type="line" smooth="yes"/>
      <point x="621" y="-41"/>
      <point x="615" y="-31"/>
      <point x="615" y="-11" type="curve" smooth="yes"/>
      <point x="615" y="296" type="line"/>
      <point x="720" y="311"/>
      <point x="809" y="334"/>
      <point x="879" y="369" type="curve"/>
      <point x="885" y="368"/>
      <point x="890" y="367"/>
      <point x="894" y="367" type="curve" smooth="yes"/>
      <point x="906" y="367"/>
      <point x="913" y="372"/>
      <point x="917" y="380" type="curve"/>
      <point x="842" y="441" type="line"/>
      <point x="786" y="386"/>
      <point x="703" y="343"/>
      <point x="615" y="315" type="curve"/>
      <point x="615" y="629" type="line"/>
      <point x="640" y="633"/>
      <point x="650" y="644"/>
      <point x="652" y="657" type="curve"/>
      <point x="548" y="669" type="line"/>
      <point x="548" y="-28" type="line" smooth="yes"/>
      <point x="548" y="-82"/>
      <point x="567" y="-101"/>
    </contour>
    <contour>
      <point x="78" y="715" type="line"/>
      <point x="909" y="715" type="line" smooth="yes"/>
      <point x="923" y="715"/>
      <point x="931" y="719"/>
      <point x="934" y="730" type="curve"/>
      <point x="903" y="757"/>
      <point x="868" y="785"/>
      <point x="840" y="806" type="curve"/>
      <point x="797" y="743" type="line"/>
      <point x="70" y="743" type="line"/>
    </contour>
  </outline>
</glyph>
<glyph name="u1700A" format="2">
  <advance width="1000"/>
  <unicode hex="1700A"/>
  <outline>
    <contour>
      <point x="224" y="-101" type="line"/>
      <point x="234" y="-101" type="line" smooth="yes"/>
      <point x="255" y="-101"/>
      <point x="286" y="-86"/>
      <point x="287" y="-80" type="curve"/>
      <point x="287" y="349" type="line"/>
      <point x="456" y="349" type="line" smooth="yes"/>
      <point x="469" y="349"/>
      <point x="477" y="353"/>
      <point x="480" y="364" type="curve"/>
      <point x="455" y="386"/>
      <point x="426" y="411"/>
      <point x="401" y="430" type="curve"/>
      <point x="365" y="377" type="line"/>
      <point x="287" y="377" type="line"/>
      <point x="287" y="585" type="line"/>
      <point x="432" y="585" type="line" smooth="yes"/>
      <point x="446" y="585"/>
      <point x="454" y="589"/>
      <point x="457" y="600" type="curve"/>
      <point x="431" y="623"/>
      <point x="402" y="647"/>
      <point x="377" y="666" type="curve"/>
      <point x="340" y="613" type="line"/>
      <point x="84" y="613" type="line"/>
      <point x="92" y="585" type="line"/>
      <point x="224" y="585" type="line"/>
      <point x="224" y="377" type="line"/>
      <point x="60" y="377" type="line"/>
      <point x="68" y="349" type="line"/>
      <point x="224" y="349" type="line"/>
    </contour>
    <contour>
      <point x="564" y="-104" type="line"/>
      <point x="623" y="20"/>
      <point x="628" y="120"/>
      <point x="633" y="241" type="curve"/>
      <point x="661" y="241"/>
      <point x="669" y="247"/>
      <point x="671" y="260" type="curve"/>
      <point x="562" y="276" type="line"/>
      <point x="566" y="221"/>
      <point x="570" y="165"/>
      <point x="570" y="107" type="curve" smooth="yes"/>
      <point x="570" y="39"/>
      <point x="565" y="-30"/>
      <point x="549" y="-99" type="curve"/>
    </contour>
    <contour>
      <point x="790" y="-101" type="line"/>
      <point x="800" y="-101" type="line" smooth="yes"/>
      <point x="821" y="-101"/>
      <point x="852" y="-86"/>
      <point x="853" y="-80" type="curve"/>
      <point x="853" y="240" type="line"/>
      <point x="877" y="244"/>
      <point x="886" y="254"/>
      <point x="889" y="268" type="curve"/>
      <point x="790" y="279" type="line"/>
    </contour>
    <contour>
      <point x="534" y="264" type="line"/>
      <point x="562" y="292" type="line"/>
      <point x="925" y="292" type="line" smooth="yes"/>
      <point x="939" y="292"/>
      <point x="947" y="296"/>
      <point x="950" y="307" type="curve"/>
      <point x="917" y="334"/>
      <point x="893" y="353"/>
      <point x="859" y="376" type="curve"/>
      <point x="817" y="320" type="line"/>
      <point x="539" y="320" type="line"/>
      <point x="654" y="357"/>
      <point x="785" y="412"/>
      <point x="869" y="455" type="curve"/>
      <point x="892" y="456"/>
      <point x="901" y="460"/>
      <point x="909" y="469" type="curve"/>
      <point x="821" y="533" type="line"/>
      <point x="790" y="499" type="line"/>
      <point x="710" y="499" type="line"/>
      <point x="767" y="534"/>
      <point x="817" y="573"/>
      <point x="853" y="610" type="curve"/>
      <point x="857" y="609"/>
      <point x="861" y="609"/>
      <point x="864" y="609" type="curve" smooth="yes"/>
      <point x="875" y="609"/>
      <point x="882" y="614"/>
      <point x="887" y="622" type="curve"/>
      <point x="792" y="670" type="line"/>
      <point x="765" y="609"/>
      <point x="724" y="550"/>
      <point x="674" y="499" type="curve"/>
      <point x="502" y="500" type="line"/>
      <point x="510" y="472" type="line"/>
      <point x="786" y="472" type="line"/>
      <point x="713" y="426"/>
      <point x="620" y="372"/>
      <point x="527" y="339" type="curve"/>
      <point x="507" y="335"/>
      <point x="488" y="329"/>
      <point x="473" y="321" type="curve"/>
    </contour>
    <contour>
      <point x="600" y="553" type="curve"/>
      <point x="611" y="544"/>
      <point x="624" y="540"/>
      <point x="636" y="540" type="curve" smooth="yes"/>
      <point x="656" y="540"/>
      <point x="673" y="552"/>
      <point x="673" y="571" type="curve" smooth="yes"/>
      <point x="673" y="595"/>
      <point x="645" y="630"/>
      <point x="558" y="663" type="curve"/>
      <point x="547" y="655" type="line"/>
      <point x="581" y="625"/>
      <point x="593" y="590"/>
    </contour>
    <contour>
      <point x="53" y="714" type="line"/>
      <point x="921" y="714" type="line" smooth="yes"/>
      <point x="935" y="714"/>
      <point x="943" y="718"/>
      <point x="946" y="729" type="curve"/>
      <point x="915" y="756"/>
      <point x="880" y="784"/>
      <point x="852" y="805" type="curve"/>
      <point x="809" y="742" type="line"/>
      <point x="45" y="742" type="line"/>
    </contour>
  </outline>
</glyph>
<glyph name="u1700B" format="2">
  <advance width="1000"/>
  <unicode hex="1700B"/>
  <outline>
    <contour>
      <point x="148" y="-101" type="line"/>
      <point x="158" y="-101" type="line" smooth="yes"/>
      <point x="179" y="-101"/>
      <point x="212" y="-86"/>
      <point x="213" y="-80" type="curve"/>
      <point x="213" y="353" type="line"/>
      <point x="331" y="353" type="line" smooth="yes"/>
      <point x="344" y="353"/>
      <point x="352" y="357"/>
      <point x="355" y="368" type="curve"/>
      <point x="333" y="388"/>
      <point x="306" y="411"/>
      <point x="283" y="429" type="curve"/>
      <point x="249" y="381" type="line"/>
      <point x="213" y="381" type="line"/>
      <point x="213" y="601" type="line"/>
      <point x="316" y="601" type="line" smooth="yes"/>
      <point x="329" y="601"/>
      <point x="337" y="605"/>
      <point x="340" y="616" type="curve"/>
      <point x="317" y="637"/>
      <point x="290" y="659"/>
      <point x="267" y="677" type="curve"/>
      <point x="233" y="629" type="line"/>
      <point x="44" y="629" type="line"/>
      <point x="52" y="601" type="line"/>
      <point x="148" y="601" type="line"/>
      <point x="148" y="381" type="line"/>
      <point x="31" y="381" type="line"/>
      <point x="39" y="353" type="line"/>
      <point x="148" y="353" type="line"/>
    </contour>
    <contour>
      <point x="359" y="-101" type="line"/>
      <point x="369" y="-101" type="line" smooth="yes"/>
      <point x="390" y="-101"/>
      <point x="423" y="-86"/>
      <point x="424" y="-80" type="curve"/>
      <point x="424" y="356" type="line"/>
      <point x="558" y="356" type="line"/>
      <point x="558" y="-98" type="line"/>
      <point x="568" y="-98" type="line" smooth="yes"/>
      <point x="589" y="-98"/>
      <point x="622" y="-83"/>
      <point x="623" y="-77" type="curve"/>
      <point x="623" y="345" type="line"/>
      <point x="642" y="349"/>
      <point x="657" y="357"/>
      <point x="664" y="364" type="curve"/>
      <point x="583" y="425" type="line"/>
      <point x="547" y="386" type="line"/>
      <point x="435" y="386" type="line"/>
      <point x="359" y="419" type="line"/>
    </contour>
    <contour>
      <point x="571" y="425" type="line"/>
      <point x="582" y="425" type="line" smooth="yes"/>
      <point x="605" y="425"/>
      <point x="638" y="443"/>
      <point x="639" y="450" type="curve"/>
      <point x="639" y="592" type="line"/>
      <point x="658" y="596"/>
      <point x="674" y="603"/>
      <point x="680" y="611" type="curve"/>
      <point x="600" y="675" type="line"/>
      <point x="561" y="633" type="line"/>
      <point x="359" y="633" type="line"/>
      <point x="368" y="603" type="line"/>
      <point x="571" y="603" type="line"/>
      <point x="571" y="490" type="line"/>
      <point x="354" y="490" type="line"/>
      <point x="363" y="460" type="line"/>
      <point x="571" y="460" type="line"/>
    </contour>
    <contour>
      <point x="771" y="-101" type="curve" smooth="yes"/>
      <point x="834" y="-101" type="line" smooth="yes"/>
      <point x="939" y="-101"/>
      <point x="981" y="-86"/>
      <point x="981" y="-59" type="curve" smooth="yes"/>
      <point x="981" y="-44"/>
      <point x="970" y="-37"/>
      <point x="946" y="-31" type="curve"/>
      <point x="945" y="196" type="line"/>
      <point x="932" y="196" type="line"/>
      <point x="921" y="121"/>
      <point x="901" y="16"/>
      <point x="887" y="-22" type="curve" smooth="yes"/>
      <point x="882" y="-33"/>
      <point x="876" y="-39"/>
      <point x="868" y="-42" type="curve" smooth="yes"/>
      <point x="860" y="-45"/>
      <point x="844" y="-45"/>
      <point x="828" y="-45" type="curve" smooth="yes"/>
      <point x="790" y="-45" type="line" smooth="yes"/>
      <point x="769" y="-45"/>
      <point x="766" y="-36"/>
      <point x="766" y="-21" type="curve" smooth="yes"/>
      <point x="766" y="632" type="line"/>
      <point x="791" y="636"/>
      <point x="801" y="647"/>
      <point x="803" y="660" type="curve"/>
      <point x="699" y="672" type="line"/>
      <point x="699" y="-39" type="line" smooth="yes"/>
      <point x="699" y="-84"/>
      <point x="710" y="-101"/>
    </contour>
    <contour>
      <point x="66" y="714" type="line"/>
      <point x="925" y="714" type="line" smooth="yes"/>
      <point x="939" y="714"/>
      <point x="947" y="718"/>
      <point x="950" y="729" type="curve"/>
      <point x="919" y="756"/>
      <point x="884" y="784"/>
      <point x="856" y="805" type="curve"/>
      <point x="813" y="742" type="line"/>
      <point x="58" y="742" type="line"/>
    </contour>
  </outline>
</glyph>
<glyph name="u1700C" format="2">
  <advance width="1000"/>
  <unicode hex="1700C"/>
  <outline>
    <contour>
      <point x="445" y="-101" type="line"/>
      <point x="548" y="-52"/>
      <point x="631" y="3"/>
      <point x="696" y="65" type="curve"/>
      <point x="752" y="-6"/>
      <point x="821" y="-63"/>
      <point x="904" y="-101" type="curve"/>
      <point x="918" y="-71"/>
      <point x="947" y="-51"/>
      <point x="978" y="-48" type="curve"/>
      <point x="981" y="-37" type="line"/>
      <point x="885" y="-7"/>
      <point x="803" y="41"/>
      <point x="736" y="105" type="curve"/>
      <point x="795" y="169"/>
      <point x="839" y="240"/>
      <point x="873" y="318" type="curve"/>
      <point x="879" y="317"/>
      <point x="884" y="316"/>
      <point x="888" y="316" type="curve" smooth="yes"/>
      <point x="901" y="316"/>
      <point x="907" y="321"/>
      <point x="911" y="329" type="curve"/>
      <point x="812" y="377" type="line"/>
      <point x="783" y="294"/>
      <point x="743" y="218"/>
      <point x="694" y="150" type="curve"/>
      <point x="653" y="198"/>
      <point x="620" y="255"/>
      <point x="595" y="318" type="curve"/>
      <point x="674" y="382"/>
      <point x="727" y="455"/>
      <point x="764" y="537" type="curve"/>
      <point x="769" y="536"/>
      <point x="774" y="536"/>
      <point x="778" y="536" type="curve" smooth="yes"/>
      <point x="791" y="536"/>
      <point x="798" y="541"/>
      <point x="802" y="550" type="curve"/>
      <point x="749" y="574" type="line"/>
      <point x="902" y="574" type="line" smooth="yes"/>
      <point x="916" y="574"/>
      <point x="924" y="578"/>
      <point x="927" y="589" type="curve"/>
      <point x="896" y="616"/>
      <point x="861" y="644"/>
      <point x="833" y="665" type="curve"/>
      <point x="790" y="602" type="line"/>
      <point x="512" y="602" type="line"/>
      <point x="520" y="574" type="line"/>
      <point x="696" y="574" type="line"/>
      <point x="653" y="445"/>
      <point x="574" y="333"/>
      <point x="472" y="254" type="curve"/>
      <point x="484" y="243" type="line"/>
      <point x="518" y="262"/>
      <point x="549" y="283"/>
      <point x="577" y="304" type="curve"/>
      <point x="598" y="233"/>
      <point x="627" y="168"/>
      <point x="664" y="111" type="curve"/>
      <point x="599" y="31"/>
      <point x="521" y="-36"/>
      <point x="434" y="-89" type="curve"/>
    </contour>
    <contour>
      <point x="41" y="-101" type="line"/>
      <point x="173" y="-32"/>
      <point x="266" y="47"/>
      <point x="335" y="135" type="curve"/>
      <point x="374" y="84"/>
      <point x="406" y="27"/>
      <point x="424" y="-26" type="curve"/>
      <point x="435" y="-34"/>
      <point x="445" y="-37"/>
      <point x="455" y="-37" type="curve" smooth="yes"/>
      <point x="473" y="-37"/>
      <point x="487" y="-22"/>
      <point x="487" y="4" type="curve" smooth="yes"/>
      <point x="487" y="43"/>
      <point x="457" y="106"/>
      <point x="370" y="184" type="curve"/>
      <point x="401" y="230"/>
      <point x="425" y="279"/>
      <point x="446" y="331" type="curve"/>
      <point x="452" y="330"/>
      <point x="457" y="329"/>
      <point x="462" y="329" type="curve" smooth="yes"/>
      <point x="474" y="329"/>
      <point x="480" y="334"/>
      <point x="484" y="342" type="curve"/>
      <point x="392" y="385" type="line"/>
      <point x="374" y="328"/>
      <point x="350" y="274"/>
      <point x="322" y="224" type="curve"/>
      <point x="281" y="256"/>
      <point x="235" y="285"/>
      <point x="189" y="311" type="curve"/>
      <point x="264" y="377"/>
      <point x="312" y="452"/>
      <point x="345" y="534" type="curve"/>
      <point x="350" y="533"/>
      <point x="355" y="533"/>
      <point x="359" y="533" type="curve" smooth="yes"/>
      <point x="372" y="533"/>
      <point x="379" y="538"/>
      <point x="383" y="546" type="curve"/>
      <point x="335" y="568" type="line"/>
      <point x="482" y="568" type="line" smooth="yes"/>
      <point x="496" y="568"/>
      <point x="504" y="572"/>
      <point x="507" y="583" type="curve"/>
      <point x="476" y="610"/>
      <point x="441" y="638"/>
      <point x="413" y="659" type="curve"/>
      <point x="370" y="596" type="line"/>
      <point x="84" y="596" type="line"/>
      <point x="92" y="568" type="line"/>
      <point x="284" y="568" type="line"/>
      <point x="243" y="433"/>
      <point x="166" y="322"/>
      <point x="65" y="242" type="curve"/>
      <point x="77" y="231" type="line"/>
      <point x="113" y="252"/>
      <point x="145" y="274"/>
      <point x="173" y="297" type="curve"/>
      <point x="220" y="260"/>
      <point x="264" y="219"/>
      <point x="297" y="181" type="curve"/>
      <point x="228" y="72"/>
      <point x="136" y="-18"/>
      <point x="30" y="-89" type="curve"/>
    </contour>
    <contour>
      <point x="64" y="713" type="line"/>
      <point x="927" y="713" type="line" smooth="yes"/>
      <point x="941" y="713"/>
      <point x="949" y="717"/>
      <point x="952" y="728" type="curve"/>
      <point x="921" y="755"/>
      <point x="886" y="783"/>
      <point x="858" y="804" type="curve"/>
      <point x="815" y="741" type="line"/>
      <point x="56" y="741" type="line"/>
    </contour>
  </outline>
</glyph>
<glyph name="u1700D" format="2">
  <advance width="1000"/>
  <unicode hex="1700D"/>
  <outline>
    <contour>
      <point x="182" y="-102" type="line"/>
      <point x="287" y="-50"/>
      <point x="367" y="9"/>
      <point x="427" y="77" type="curve"/>
      <point x="467" y="24"/>
      <point x="501" y="-36"/>
      <point x="519" y="-92" type="curve"/>
      <point x="529" y="-98"/>
      <point x="538" y="-100"/>
      <point x="546" y="-100" type="curve" smooth="yes"/>
      <point x="567" y="-100"/>
      <point x="581" y="-85"/>
      <point x="581" y="-59" type="curve" smooth="yes"/>
      <point x="581" y="-20"/>
      <point x="551" y="44"/>
      <point x="464" y="121" type="curve"/>
      <point x="498" y="165"/>
      <point x="524" y="212"/>
      <point x="546" y="262" type="curve"/>
      <point x="552" y="261"/>
      <point x="557" y="260"/>
      <point x="561" y="260" type="curve" smooth="yes"/>
      <point x="573" y="260"/>
      <point x="580" y="265"/>
      <point x="584" y="274" type="curve"/>
      <point x="488" y="320" type="line"/>
      <point x="469" y="263"/>
      <point x="444" y="209"/>
      <point x="414" y="160" type="curve"/>
      <point x="375" y="188"/>
      <point x="333" y="214"/>
      <point x="291" y="237" type="curve"/>
      <point x="402" y="297"/>
      <point x="497" y="374"/>
      <point x="546" y="462" type="curve"/>
      <point x="569" y="463"/>
      <point x="578" y="466"/>
      <point x="586" y="475" type="curve"/>
      <point x="499" y="537" type="line"/>
      <point x="468" y="498" type="line"/>
      <point x="393" y="498" type="line"/>
      <point x="449" y="531"/>
      <point x="494" y="571"/>
      <point x="530" y="613" type="curve"/>
      <point x="534" y="612"/>
      <point x="538" y="612"/>
      <point x="541" y="612" type="curve" smooth="yes"/>
      <point x="552" y="612"/>
      <point x="559" y="617"/>
      <point x="564" y="625" type="curve"/>
      <point x="473" y="671" type="line"/>
      <point x="445" y="609"/>
      <point x="405" y="549"/>
      <point x="352" y="498" type="curve"/>
      <point x="217" y="498" type="line"/>
      <point x="226" y="469" type="line"/>
      <point x="471" y="469" type="line"/>
      <point x="418" y="369"/>
      <point x="322" y="282"/>
      <point x="210" y="216" type="curve"/>
      <point x="222" y="202" type="line"/>
      <point x="239" y="210"/>
      <point x="257" y="218"/>
      <point x="274" y="227" type="curve"/>
      <point x="315" y="195"/>
      <point x="356" y="157"/>
      <point x="389" y="121" type="curve"/>
      <point x="330" y="36"/>
      <point x="256" y="-35"/>
      <point x="171" y="-90" type="curve"/>
    </contour>
    <contour>
      <point x="94" y="-101" type="line"/>
      <point x="104" y="-101" type="line" smooth="yes"/>
      <point x="125" y="-101"/>
      <point x="158" y="-86"/>
      <point x="159" y="-80" type="curve"/>
      <point x="159" y="620" type="line"/>
      <point x="183" y="624"/>
      <point x="192" y="634"/>
      <point x="195" y="648" type="curve"/>
      <point x="94" y="659" type="line"/>
    </contour>
    <contour>
      <point x="298" y="554" type="curve"/>
      <point x="309" y="545"/>
      <point x="321" y="541"/>
      <point x="331" y="541" type="curve" smooth="yes"/>
      <point x="351" y="541"/>
      <point x="366" y="553"/>
      <point x="366" y="572" type="curve" smooth="yes"/>
      <point x="366" y="596"/>
      <point x="339" y="631"/>
      <point x="256" y="664" type="curve"/>
      <point x="245" y="656" type="line"/>
      <point x="278" y="627"/>
      <point x="292" y="592"/>
    </contour>
    <contour>
      <point x="700" y="-101" type="curve" smooth="yes"/>
      <point x="789" y="-101" type="line" smooth="yes"/>
      <point x="923" y="-101"/>
      <point x="967" y="-86"/>
      <point x="967" y="-56" type="curve" smooth="yes"/>
      <point x="967" y="-41"/>
      <point x="956" y="-34"/>
      <point x="932" y="-27" type="curve"/>
      <point x="931" y="157" type="line"/>
      <point x="918" y="157" type="line"/>
      <point x="906" y="96"/>
      <point x="887" y="17"/>
      <point x="872" y="-18" type="curve" smooth="yes"/>
      <point x="867" y="-30"/>
      <point x="860" y="-36"/>
      <point x="850" y="-39" type="curve" smooth="yes"/>
      <point x="839" y="-42"/>
      <point x="811" y="-42"/>
      <point x="783" y="-42" type="curve" smooth="yes"/>
      <point x="716" y="-42" type="line" smooth="yes"/>
      <point x="686" y="-42"/>
      <point x="681" y="-32"/>
      <point x="681" y="-14" type="curve" smooth="yes"/>
      <point x="681" y="299" type="line"/>
      <point x="770" y="313"/>
      <point x="846" y="335"/>
      <point x="906" y="364" type="curve"/>
      <point x="912" y="363"/>
      <point x="917" y="362"/>
      <point x="921" y="362" type="curve" smooth="yes"/>
      <point x="933" y="362"/>
      <point x="940" y="367"/>
      <point x="944" y="375" type="curve"/>
      <point x="871" y="435" type="line"/>
      <point x="825" y="386"/>
      <point x="755" y="346"/>
      <point x="681" y="319" type="curve"/>
      <point x="681" y="628" type="line"/>
      <point x="706" y="632"/>
      <point x="716" y="643"/>
      <point x="718" y="656" type="curve"/>
      <point x="614" y="668" type="line"/>
      <point x="614" y="-31" type="line" smooth="yes"/>
      <point x="614" y="-82"/>
      <point x="630" y="-101"/>
    </contour>
    <contour>
      <point x="67" y="714" type="line"/>
      <point x="916" y="714" type="line" smooth="yes"/>
      <point x="930" y="714"/>
      <point x="938" y="718"/>
      <point x="941" y="729" type="curve"/>
      <point x="910" y="756"/>
      <point x="875" y="784"/>
      <point x="847" y="805" type="curve"/>
      <point x="804" y="742" type="line"/>
      <point x="59" y="742" type="line"/>
    </contour>
  </outline>
</glyph>
<glyph name="u1700E" format="2">
  <advance width="1000"/>
  <unicode hex="1700E"/>
  <outline>
    <contour>
      <point x="895" y="-101" type="curve"/>
      <point x="908" y="-71"/>
      <point x="938" y="-50"/>
      <point x="970" y="-47" type="curve"/>
      <point x="973" y="-36" type="line"/>
      <point x="879" y="-2"/>
      <point x="799" y="51"/>
      <point x="736" y="119" type="curve"/>
      <point x="782" y="174"/>
      <point x="819" y="232"/>
      <point x="849" y="296" type="curve"/>
      <point x="854" y="295"/>
      <point x="859" y="295"/>
      <point x="863" y="295" type="curve" smooth="yes"/>
      <point x="876" y="295"/>
      <point x="882" y="300"/>
      <point x="887" y="308" type="curve"/>
      <point x="791" y="353" type="line"/>
      <point x="766" y="287"/>
      <point x="734" y="225"/>
      <point x="696" y="168" type="curve"/>
      <point x="657" y="220"/>
      <point x="626" y="280"/>
      <point x="604" y="346" type="curve"/>
      <point x="696" y="426"/>
      <point x="751" y="513"/>
      <point x="789" y="614" type="curve"/>
      <point x="812" y="611"/>
      <point x="822" y="616"/>
      <point x="827" y="628" type="curve"/>
      <point x="726" y="669" type="line"/>
      <point x="688" y="522"/>
      <point x="613" y="392"/>
      <point x="510" y="294" type="curve"/>
      <point x="522" y="284" type="line"/>
      <point x="546" y="300"/>
      <point x="568" y="316"/>
      <point x="588" y="333" type="curve"/>
      <point x="606" y="258"/>
      <point x="633" y="189"/>
      <point x="667" y="128" type="curve"/>
      <point x="603" y="44"/>
      <point x="525" y="-29"/>
      <point x="437" y="-89" type="curve"/>
      <point x="448" y="-100" type="line"/>
      <point x="553" y="-46"/>
      <point x="634" y="13"/>
      <point x="698" y="78" type="curve"/>
      <point x="749" y="3"/>
      <point x="815" y="-58"/>
    </contour>
    <contour>
      <point x="141" y="200" type="line"/>
      <point x="141" y="395" type="line"/>
      <point x="343" y="395" type="line"/>
      <point x="343" y="200" type="line"/>
    </contour>
    <contour>
      <point x="78" y="-101" type="line"/>
      <point x="88" y="-101" type="line" smooth="yes"/>
      <point x="109" y="-101"/>
      <point x="140" y="-86"/>
      <point x="141" y="-80" type="curve"/>
      <point x="141" y="172" type="line"/>
      <point x="343" y="172" type="line"/>
      <point x="343" y="-98" type="line"/>
      <point x="353" y="-98" type="line" smooth="yes"/>
      <point x="374" y="-98"/>
      <point x="405" y="-83"/>
      <point x="406" y="-77" type="curve"/>
      <point x="406" y="172" type="line"/>
      <point x="503" y="172" type="line" smooth="yes"/>
      <point x="516" y="172"/>
      <point x="524" y="176"/>
      <point x="527" y="187" type="curve"/>
      <point x="505" y="207"/>
      <point x="478" y="230"/>
      <point x="455" y="248" type="curve"/>
      <point x="421" y="200" type="line"/>
      <point x="406" y="200" type="line"/>
      <point x="406" y="395" type="line"/>
      <point x="495" y="395" type="line" smooth="yes"/>
      <point x="509" y="395"/>
      <point x="517" y="399"/>
      <point x="520" y="410" type="curve"/>
      <point x="497" y="430"/>
      <point x="471" y="453"/>
      <point x="447" y="471" type="curve"/>
      <point x="414" y="423" type="line"/>
      <point x="406" y="423" type="line"/>
      <point x="406" y="583" type="line"/>
      <point x="425" y="587"/>
      <point x="440" y="595"/>
      <point x="447" y="602" type="curve"/>
      <point x="367" y="663" type="line"/>
      <point x="332" y="624" type="line"/>
      <point x="152" y="624" type="line"/>
      <point x="78" y="657" type="line"/>
    </contour>
    <contour>
      <point x="141" y="423" type="line"/>
      <point x="141" y="594" type="line"/>
      <point x="343" y="594" type="line"/>
      <point x="343" y="423" type="line"/>
    </contour>
    <contour>
      <point x="53" y="713" type="line"/>
      <point x="929" y="713" type="line" smooth="yes"/>
      <point x="943" y="713"/>
      <point x="951" y="717"/>
      <point x="954" y="728" type="curve"/>
      <point x="923" y="755"/>
      <point x="888" y="783"/>
      <point x="860" y="804" type="curve"/>
      <point x="817" y="741" type="line"/>
      <point x="45" y="741" type="line"/>
    </contour>
    <contour>
      <point x="856" y="362" type="curve"/>
      <point x="866" y="353"/>
      <point x="878" y="348"/>
      <point x="888" y="348" type="curve" smooth="yes"/>
      <point x="909" y="348"/>
      <point x="927" y="365"/>
      <point x="927" y="393" type="curve" smooth="yes"/>
      <point x="927" y="414"/>
      <point x="917" y="442"/>
      <point x="890" y="475" type="curve" smooth="yes"/>
      <point x="866" y="503"/>
      <point x="832" y="531"/>
      <point x="801" y="551" type="curve"/>
      <point x="790" y="541" type="line"/>
      <point x="809" y="517"/>
      <point x="826" y="487"/>
      <point x="836" y="460" type="curve" smooth="yes"/>
      <point x="848" y="428"/>
      <point x="855" y="393"/>
    </contour>
  </outline>
</glyph>
<glyph name="u1700F" format="2">
  <advance width="1000"/>
  <unicode hex="1700F"/>
  <outline>
    <contour>
      <point x="308" y="-103" type="line"/>
      <point x="398" y="-36"/>
      <point x="462" y="33"/>
      <point x="509" y="107" type="curve"/>
      <point x="541" y="43"/>
      <point x="566" y="-27"/>
      <point x="576" y="-91" type="curve"/>
      <point x="585" y="-97"/>
      <point x="593" y="-100"/>
      <point x="601" y="-100" type="curve" smooth="yes"/>
      <point x="621" y="-100"/>
      <point x="635" y="-81"/>
      <point x="635" y="-47" type="curve" smooth="yes"/>
      <point x="635" y="-2"/>
      <point x="610" y="68"/>
      <point x="541" y="158" type="curve" smooth="yes"/>
      <point x="539" y="161" type="line"/>
      <point x="562" y="206"/>
      <point x="580" y="254"/>
      <point x="596" y="305" type="curve"/>
      <point x="601" y="304"/>
      <point x="606" y="304"/>
      <point x="610" y="304" type="curve" smooth="yes"/>
      <point x="623" y="304"/>
      <point x="630" y="309"/>
      <point x="634" y="318" type="curve"/>
      <point x="541" y="354" type="line"/>
      <point x="529" y="303"/>
      <point x="514" y="255"/>
      <point x="496" y="209" type="curve"/>
      <point x="464" y="244"/>
      <point x="428" y="278"/>
      <point x="391" y="308" type="curve"/>
      <point x="486" y="404"/>
      <point x="532" y="502"/>
      <point x="563" y="617" type="curve"/>
      <point x="588" y="614"/>
      <point x="597" y="620"/>
      <point x="601" y="632" type="curve"/>
      <point x="502" y="666" type="line"/>
      <point x="476" y="520"/>
      <point x="421" y="386"/>
      <point x="334" y="275" type="curve"/>
      <point x="347" y="266" type="line"/>
      <point x="358" y="276"/>
      <point x="368" y="285"/>
      <point x="378" y="295" type="curve"/>
      <point x="415" y="255"/>
      <point x="450" y="208"/>
      <point x="477" y="164" type="curve"/>
      <point x="438" y="80"/>
      <point x="387" y="4"/>
      <point x="325" y="-62" type="curve"/>
      <point x="325" y="588" type="line"/>
      <point x="344" y="592"/>
      <point x="359" y="600"/>
      <point x="366" y="607" type="curve"/>
      <point x="285" y="668" type="line"/>
      <point x="249" y="629" type="line"/>
      <point x="159" y="629" type="line"/>
      <point x="83" y="662" type="line"/>
      <point x="83" y="-101" type="line"/>
      <point x="93" y="-101" type="line" smooth="yes"/>
      <point x="114" y="-101"/>
      <point x="147" y="-86"/>
      <point x="148" y="-80" type="curve"/>
      <point x="148" y="599" type="line"/>
      <point x="260" y="599" type="line"/>
      <point x="260" y="-98" type="line"/>
      <point x="270" y="-98" type="line" smooth="yes"/>
      <point x="278" y="-98"/>
      <point x="287" y="-96"/>
      <point x="295" y="-93" type="curve"/>
    </contour>
    <contour>
      <point x="733" y="-101" type="curve" smooth="yes"/>
      <point x="808" y="-101" type="line" smooth="yes"/>
      <point x="917" y="-101"/>
      <point x="958" y="-85"/>
      <point x="958" y="-57" type="curve" smooth="yes"/>
      <point x="958" y="-41"/>
      <point x="947" y="-34"/>
      <point x="925" y="-28" type="curve"/>
      <point x="924" y="147" type="line"/>
      <point x="911" y="147" type="line"/>
      <point x="899" y="94"/>
      <point x="882" y="18"/>
      <point x="865" y="-18" type="curve" smooth="yes"/>
      <point x="860" y="-30"/>
      <point x="854" y="-36"/>
      <point x="845" y="-39" type="curve" smooth="yes"/>
      <point x="837" y="-41"/>
      <point x="820" y="-42"/>
      <point x="802" y="-42" type="curve" smooth="yes"/>
      <point x="751" y="-42" type="line" smooth="yes"/>
      <point x="729" y="-42"/>
      <point x="726" y="-33"/>
      <point x="726" y="-17" type="curve" smooth="yes"/>
      <point x="726" y="210" type="line"/>
      <point x="790" y="229"/>
      <point x="844" y="257"/>
      <point x="883" y="288" type="curve"/>
      <point x="889" y="287"/>
      <point x="894" y="286"/>
      <point x="898" y="286" type="curve" smooth="yes"/>
      <point x="910" y="286"/>
      <point x="917" y="291"/>
      <point x="921" y="299" type="curve"/>
      <point x="846" y="354" type="line"/>
      <point x="818" y="305"/>
      <point x="775" y="263"/>
      <point x="726" y="232" type="curve"/>
      <point x="726" y="454" type="line"/>
      <point x="751" y="458"/>
      <point x="761" y="469"/>
      <point x="763" y="482" type="curve"/>
      <point x="709" y="488" type="line"/>
      <point x="774" y="525"/>
      <point x="824" y="567"/>
      <point x="863" y="615" type="curve"/>
      <point x="869" y="614"/>
      <point x="874" y="613"/>
      <point x="878" y="613" type="curve" smooth="yes"/>
      <point x="890" y="613"/>
      <point x="897" y="618"/>
      <point x="901" y="626" type="curve"/>
      <point x="815" y="679" type="line"/>
      <point x="763" y="576"/>
      <point x="672" y="494"/>
      <point x="568" y="444" type="curve"/>
      <point x="578" y="431" type="line"/>
      <point x="607" y="441"/>
      <point x="634" y="452"/>
      <point x="659" y="463" type="curve"/>
      <point x="659" y="-35" type="line" smooth="yes"/>
      <point x="659" y="-81"/>
      <point x="671" y="-101"/>
    </contour>
    <contour>
      <point x="61" y="714" type="line"/>
      <point x="918" y="714" type="line" smooth="yes"/>
      <point x="932" y="714"/>
      <point x="940" y="718"/>
      <point x="943" y="729" type="curve"/>
      <point x="912" y="756"/>
      <point x="877" y="784"/>
      <point x="849" y="805" type="curve"/>
      <point x="806" y="742" type="line"/>
      <point x="53" y="742" type="line"/>
    </contour>
  </outline>
</glyph>
<glyph name="u17010" format="2">
  <advance width="1000"/>
  <unicode hex="17010"/>
  <outline>
    <contour>
      <point x="308" y="-101" type="line"/>
      <point x="318" y="-101" type="line" smooth="yes"/>
      <point x="339" y="-101"/>
      <point x="368" y="-86"/>
      <point x="369" y="-80" type="curve"/>
      <point x="369" y="315" type="line"/>
      <point x="441" y="315" type="line"/>
      <point x="447" y="294" type="line"/>
      <point x="534" y="294" type="line"/>
      <point x="534" y="-101" type="line"/>
      <point x="544" y="-101" type="line" smooth="yes"/>
      <point x="565" y="-101"/>
      <point x="598" y="-86"/>
      <point x="599" y="-80" type="curve"/>
      <point x="599" y="294" type="line"/>
      <point x="753" y="294" type="line"/>
      <point x="753" y="-43" type="line" smooth="yes"/>
      <point x="753" y="-84"/>
      <point x="760" y="-101"/>
      <point x="812" y="-101" type="curve" smooth="yes"/>
      <point x="856" y="-101" type="line" smooth="yes"/>
      <point x="937" y="-101"/>
      <point x="980" y="-85"/>
      <point x="980" y="-60" type="curve" smooth="yes"/>
      <point x="980" y="-45"/>
      <point x="969" y="-37"/>
      <point x="946" y="-31" type="curve"/>
      <point x="945" y="150" type="line"/>
      <point x="932" y="150" type="line"/>
      <point x="921" y="87"/>
      <point x="902" y="15"/>
      <point x="887" y="-21" type="curve" smooth="yes"/>
      <point x="883" y="-32"/>
      <point x="876" y="-39"/>
      <point x="869" y="-42" type="curve" smooth="yes"/>
      <point x="863" y="-44"/>
      <point x="855" y="-44"/>
      <point x="847" y="-44" type="curve" smooth="yes"/>
      <point x="832" y="-44" type="line" smooth="yes"/>
      <point x="820" y="-44"/>
      <point x="818" y="-35"/>
      <point x="818" y="-23" type="curve" smooth="yes"/>
      <point x="818" y="294" type="line"/>
      <point x="934" y="294" type="line" smooth="yes"/>
      <point x="947" y="294"/>
      <point x="955" y="298"/>
      <point x="958" y="309" type="curve"/>
      <point x="934" y="331"/>
      <point x="905" y="355"/>
      <point x="881" y="373" type="curve"/>
      <point x="845" y="322" type="line"/>
      <point x="818" y="322" type="line"/>
      <point x="818" y="576" type="line"/>
      <point x="837" y="580"/>
      <point x="852" y="588"/>
      <point x="859" y="595" type="curve"/>
      <point x="778" y="656" type="line"/>
      <point x="742" y="617" type="line"/>
      <point x="610" y="617" type="line"/>
      <point x="534" y="650" type="line"/>
      <point x="534" y="322" type="line"/>
      <point x="505" y="322" type="line"/>
      <point x="507" y="324"/>
      <point x="508" y="327"/>
      <point x="509" y="330" type="curve"/>
      <point x="487" y="349"/>
      <point x="462" y="371"/>
      <point x="440" y="388" type="curve"/>
      <point x="408" y="343" type="line"/>
      <point x="369" y="343" type="line"/>
      <point x="369" y="461" type="line"/>
      <point x="393" y="465"/>
      <point x="402" y="475"/>
      <point x="405" y="489" type="curve"/>
      <point x="311" y="500" type="line"/>
      <point x="357" y="536"/>
      <point x="396" y="576"/>
      <point x="428" y="620" type="curve"/>
      <point x="434" y="619"/>
      <point x="439" y="618"/>
      <point x="443" y="618" type="curve" smooth="yes"/>
      <point x="455" y="618"/>
      <point x="462" y="623"/>
      <point x="466" y="631" type="curve"/>
      <point x="378" y="683" type="line"/>
      <point x="308" y="546"/>
      <point x="184" y="441"/>
      <point x="42" y="376" type="curve"/>
      <point x="52" y="363" type="line"/>
      <point x="157" y="400"/>
      <point x="241" y="445"/>
      <point x="308" y="497" type="curve"/>
      <point x="308" y="343" type="line"/>
      <point x="43" y="343" type="line"/>
      <point x="51" y="315" type="line"/>
      <point x="308" y="315" type="line"/>
    </contour>
    <contour>
      <point x="94" y="-101" type="line"/>
      <point x="104" y="-95"/>
      <point x="114" y="-85"/>
      <point x="117" y="-74" type="curve"/>
      <point x="178" y="-44"/>
      <point x="236" y="-14"/>
      <point x="291" y="17" type="curve"/>
      <point x="284" y="38" type="line"/>
      <point x="240" y="20"/>
      <point x="198" y="6"/>
      <point x="148" y="-9" type="curve"/>
      <point x="119" y="185" type="line"/>
      <point x="169" y="201"/>
      <point x="210" y="215"/>
      <point x="254" y="230" type="curve"/>
      <point x="266" y="225"/>
      <point x="276" y="223"/>
      <point x="284" y="223" type="curve" smooth="yes"/>
      <point x="292" y="223"/>
      <point x="298" y="225"/>
      <point x="303" y="229" type="curve"/>
      <point x="226" y="295" type="line"/>
      <point x="195" y="268"/>
      <point x="162" y="241"/>
      <point x="124" y="217" type="curve"/>
      <point x="51" y="213" type="line"/>
      <point x="82" y="3" type="line" smooth="yes"/>
      <point x="85" y="-18"/>
      <point x="76" y="-35"/>
      <point x="59" y="-46" type="curve"/>
    </contour>
    <contour>
      <point x="148" y="537" type="curve"/>
      <point x="159" y="526"/>
      <point x="172" y="521"/>
      <point x="184" y="521" type="curve" smooth="yes"/>
      <point x="204" y="521"/>
      <point x="220" y="534"/>
      <point x="220" y="555" type="curve" smooth="yes"/>
      <point x="220" y="573"/>
      <point x="207" y="597"/>
      <point x="174" y="624" type="curve" smooth="yes"/>
      <point x="145" y="647"/>
      <point x="106" y="667"/>
      <point x="73" y="679" type="curve"/>
      <point x="63" y="669" type="line"/>
      <point x="83" y="652"/>
      <point x="103" y="630"/>
      <point x="116" y="610" type="curve" smooth="yes"/>
      <point x="130" y="589"/>
      <point x="142" y="561"/>
    </contour>
    <contour>
      <point x="599" y="322" type="line"/>
      <point x="599" y="587" type="line"/>
      <point x="753" y="587" type="line"/>
      <point x="753" y="322" type="line"/>
    </contour>
    <contour>
      <point x="64" y="714" type="line"/>
      <point x="923" y="714" type="line" smooth="yes"/>
      <point x="937" y="714"/>
      <point x="945" y="718"/>
      <point x="948" y="729" type="curve"/>
      <point x="917" y="756"/>
      <point x="882" y="784"/>
      <point x="854" y="805" type="curve"/>
      <point x="811" y="742" type="line"/>
      <point x="56" y="742" type="line"/>
    </contour>
  </outline>
</glyph>
<glyph name="u17011" format="2">
  <advance width="1000"/>
  <unicode hex="17011"/>
  <outline>
    <contour>
      <point x="47" y="-99" type="line"/>
      <point x="174" y="-46"/>
      <point x="269" y="17"/>
      <point x="343" y="89" type="curve"/>
      <point x="393" y="34"/>
      <point x="437" y="-30"/>
      <point x="461" y="-91" type="curve"/>
      <point x="471" y="-98"/>
      <point x="481" y="-101"/>
      <point x="490" y="-101" type="curve" smooth="yes"/>
      <point x="508" y="-101"/>
      <point x="520" y="-88"/>
      <point x="520" y="-64" type="curve" smooth="yes"/>
      <point x="520" y="-25"/>
      <point x="484" y="44"/>
      <point x="379" y="127" type="curve"/>
      <point x="417" y="170"/>
      <point x="448" y="217"/>
      <point x="474" y="266" type="curve"/>
      <point x="480" y="265"/>
      <point x="485" y="264"/>
      <point x="489" y="264" type="curve" smooth="yes"/>
      <point x="501" y="264"/>
      <point x="508" y="269"/>
      <point x="512" y="277" type="curve"/>
      <point x="423" y="324" type="line"/>
      <point x="399" y="265"/>
      <point x="368" y="210"/>
      <point x="332" y="161" type="curve"/>
      <point x="287" y="192"/>
      <point x="238" y="220"/>
      <point x="190" y="244" type="curve"/>
      <point x="264" y="298"/>
      <point x="316" y="361"/>
      <point x="354" y="430" type="curve"/>
      <point x="360" y="429"/>
      <point x="365" y="428"/>
      <point x="369" y="428" type="curve" smooth="yes"/>
      <point x="381" y="428"/>
      <point x="388" y="433"/>
      <point x="392" y="441" type="curve"/>
      <point x="347" y="465" type="line"/>
      <point x="512" y="465" type="line" smooth="yes"/>
      <point x="525" y="465"/>
      <point x="533" y="469"/>
      <point x="536" y="480" type="curve"/>
      <point x="512" y="501"/>
      <point x="485" y="525"/>
      <point x="461" y="543" type="curve"/>
      <point x="426" y="493" type="line"/>
      <point x="335" y="493" type="line"/>
      <point x="370" y="531"/>
      <point x="404" y="572"/>
      <point x="433" y="611" type="curve"/>
      <point x="454" y="611"/>
      <point x="467" y="619"/>
      <point x="471" y="630" type="curve"/>
      <point x="364" y="667" type="line"/>
      <point x="348" y="611"/>
      <point x="328" y="550"/>
      <point x="306" y="493" type="curve"/>
      <point x="65" y="493" type="line"/>
      <point x="73" y="465" type="line"/>
      <point x="293" y="465" type="line"/>
      <point x="243" y="342"/>
      <point x="153" y="245"/>
      <point x="46" y="181" type="curve"/>
      <point x="57" y="169" type="line"/>
      <point x="101" y="188"/>
      <point x="140" y="209"/>
      <point x="174" y="233" type="curve"/>
      <point x="222" y="199"/>
      <point x="268" y="162"/>
      <point x="305" y="127" type="curve"/>
      <point x="232" y="38"/>
      <point x="140" y="-33"/>
      <point x="37" y="-87" type="curve"/>
    </contour>
    <contour>
      <point x="186" y="511" type="curve"/>
      <point x="197" y="503"/>
      <point x="208" y="500"/>
      <point x="217" y="500" type="curve" smooth="yes"/>
      <point x="237" y="500"/>
      <point x="252" y="515"/>
      <point x="252" y="539" type="curve" smooth="yes"/>
      <point x="252" y="573"/>
      <point x="222" y="623"/>
      <point x="136" y="666" type="curve"/>
      <point x="125" y="658" type="line"/>
      <point x="163" y="612"/>
      <point x="182" y="562"/>
    </contour>
    <contour>
      <point x="661" y="-101" type="curve" smooth="yes"/>
      <point x="767" y="-101" type="line" smooth="yes"/>
      <point x="921" y="-101"/>
      <point x="966" y="-86"/>
      <point x="966" y="-56" type="curve" smooth="yes"/>
      <point x="966" y="-40"/>
      <point x="954" y="-33"/>
      <point x="930" y="-26" type="curve"/>
      <point x="929" y="157" type="line"/>
      <point x="916" y="157" type="line"/>
      <point x="904" y="95"/>
      <point x="885" y="17"/>
      <point x="870" y="-17" type="curve" smooth="yes"/>
      <point x="865" y="-29"/>
      <point x="858" y="-36"/>
      <point x="846" y="-39" type="curve" smooth="yes"/>
      <point x="833" y="-41"/>
      <point x="798" y="-41"/>
      <point x="762" y="-41" type="curve" smooth="yes"/>
      <point x="676" y="-41" type="line" smooth="yes"/>
      <point x="640" y="-41"/>
      <point x="634" y="-31"/>
      <point x="634" y="-11" type="curve" smooth="yes"/>
      <point x="634" y="293" type="line"/>
      <point x="741" y="310"/>
      <point x="831" y="335"/>
      <point x="901" y="372" type="curve"/>
      <point x="907" y="371"/>
      <point x="912" y="370"/>
      <point x="916" y="370" type="curve" smooth="yes"/>
      <point x="928" y="370"/>
      <point x="935" y="375"/>
      <point x="939" y="383" type="curve"/>
      <point x="864" y="442" type="line"/>
      <point x="807" y="386"/>
      <point x="723" y="342"/>
      <point x="634" y="313" type="curve"/>
      <point x="634" y="622" type="line"/>
      <point x="659" y="626"/>
      <point x="669" y="637"/>
      <point x="671" y="650" type="curve"/>
      <point x="567" y="662" type="line"/>
      <point x="567" y="-28" type="line" smooth="yes"/>
      <point x="567" y="-82"/>
      <point x="586" y="-101"/>
    </contour>
    <contour>
      <point x="60" y="714" type="line"/>
      <point x="919" y="714" type="line" smooth="yes"/>
      <point x="933" y="714"/>
      <point x="941" y="718"/>
      <point x="944" y="729" type="curve"/>
      <point x="913" y="756"/>
      <point x="878" y="784"/>
      <point x="850" y="805" type="curve"/>
      <point x="807" y="742" type="line"/>
      <point x="52" y="742" type="line"/>
    </contour>
  </outline>
</glyph>
<glyph name="u17012" format="2">
  <advance width="1000"/>
  <unicode hex="17012"/>
  <outline>
    <contour>
      <point x="644" y="-101" type="curve" smooth="yes"/>
      <point x="756" y="-101" type="line" smooth="yes"/>
      <point x="918" y="-101"/>
      <point x="963" y="-86"/>
      <point x="963" y="-55" type="curve" smooth="yes"/>
      <point x="963" y="-40"/>
      <point x="951" y="-33"/>
      <point x="927" y="-26" type="curve"/>
      <point x="926" y="157" type="line"/>
      <point x="913" y="157" type="line"/>
      <point x="900" y="94"/>
      <point x="882" y="17"/>
      <point x="867" y="-17" type="curve" smooth="yes"/>
      <point x="861" y="-28"/>
      <point x="854" y="-35"/>
      <point x="842" y="-38" type="curve" smooth="yes"/>
      <point x="828" y="-41"/>
      <point x="790" y="-41"/>
      <point x="752" y="-41" type="curve" smooth="yes"/>
      <point x="658" y="-41" type="line" smooth="yes"/>
      <point x="620" y="-41"/>
      <point x="613" y="-31"/>
      <point x="613" y="-10" type="curve" smooth="yes"/>
      <point x="613" y="299" type="line"/>
      <point x="726" y="315"/>
      <point x="821" y="341"/>
      <point x="896" y="378" type="curve"/>
      <point x="902" y="377"/>
      <point x="907" y="376"/>
      <point x="911" y="376" type="curve" smooth="yes"/>
      <point x="923" y="376"/>
      <point x="930" y="381"/>
      <point x="934" y="389" type="curve"/>
      <point x="859" y="450" type="line"/>
      <point x="799" y="392"/>
      <point x="708" y="347"/>
      <point x="613" y="318" type="curve"/>
      <point x="613" y="636" type="line"/>
      <point x="638" y="640"/>
      <point x="648" y="651"/>
      <point x="650" y="664" type="curve"/>
      <point x="546" y="676" type="line"/>
      <point x="546" y="-26" type="line" smooth="yes"/>
      <point x="546" y="-82"/>
      <point x="566" y="-101"/>
    </contour>
    <contour>
      <point x="45" y="-101" type="line"/>
      <point x="160" y="-58"/>
      <point x="250" y="-6"/>
      <point x="322" y="53" type="curve"/>
      <point x="372" y="10"/>
      <point x="418" y="-44"/>
      <point x="445" y="-95" type="curve"/>
      <point x="454" y="-99"/>
      <point x="463" y="-102"/>
      <point x="471" y="-102" type="curve" smooth="yes"/>
      <point x="490" y="-102"/>
      <point x="503" y="-90"/>
      <point x="503" y="-70" type="curve" smooth="yes"/>
      <point x="503" y="-37"/>
      <point x="468" y="18"/>
      <point x="369" y="81" type="curve" smooth="yes"/>
      <point x="366" y="83"/>
      <point x="363" y="85"/>
      <point x="360" y="86" type="curve"/>
      <point x="397" y="121"/>
      <point x="429" y="159"/>
      <point x="456" y="199" type="curve"/>
      <point x="461" y="198"/>
      <point x="466" y="198"/>
      <point x="469" y="198" type="curve" smooth="yes"/>
      <point x="482" y="198"/>
      <point x="489" y="203"/>
      <point x="494" y="211" type="curve"/>
      <point x="410" y="258" type="line"/>
      <point x="383" y="204"/>
      <point x="350" y="156"/>
      <point x="311" y="112" type="curve"/>
      <point x="273" y="131"/>
      <point x="234" y="147"/>
      <point x="196" y="161" type="curve"/>
      <point x="304" y="210"/>
      <point x="383" y="271"/>
      <point x="443" y="341" type="curve"/>
      <point x="449" y="340"/>
      <point x="454" y="339"/>
      <point x="458" y="339" type="curve" smooth="yes"/>
      <point x="470" y="339"/>
      <point x="477" y="344"/>
      <point x="481" y="352" type="curve"/>
      <point x="401" y="401" type="line"/>
      <point x="328" y="277"/>
      <point x="205" y="187"/>
      <point x="65" y="127" type="curve"/>
      <point x="75" y="115" type="line"/>
      <point x="111" y="126"/>
      <point x="144" y="139"/>
      <point x="175" y="152" type="curve"/>
      <point x="213" y="131"/>
      <point x="250" y="107"/>
      <point x="283" y="83" type="curve"/>
      <point x="213" y="12"/>
      <point x="128" y="-44"/>
      <point x="35" y="-89" type="curve"/>
    </contour>
    <contour>
      <point x="96" y="279" type="line"/>
      <point x="234" y="321"/>
      <point x="374" y="390"/>
      <point x="442" y="478" type="curve"/>
      <point x="465" y="479"/>
      <point x="474" y="482"/>
      <point x="482" y="491" type="curve"/>
      <point x="395" y="553" type="line"/>
      <point x="364" y="514" type="line"/>
      <point x="286" y="514" type="line"/>
      <point x="338" y="544"/>
      <point x="383" y="580"/>
      <point x="418" y="620" type="curve"/>
      <point x="422" y="619"/>
      <point x="426" y="619"/>
      <point x="429" y="619" type="curve" smooth="yes"/>
      <point x="440" y="619"/>
      <point x="447" y="624"/>
      <point x="452" y="632" type="curve"/>
      <point x="358" y="679" type="line"/>
      <point x="333" y="619"/>
      <point x="294" y="563"/>
      <point x="245" y="514" type="curve"/>
      <point x="96" y="514" type="line"/>
      <point x="105" y="485" type="line"/>
      <point x="367" y="485" type="line"/>
      <point x="305" y="405"/>
      <point x="199" y="338"/>
      <point x="84" y="293" type="curve"/>
    </contour>
    <contour>
      <point x="169" y="564" type="curve"/>
      <point x="180" y="555"/>
      <point x="193" y="551"/>
      <point x="204" y="551" type="curve" smooth="yes"/>
      <point x="224" y="551"/>
      <point x="240" y="563"/>
      <point x="240" y="581" type="curve" smooth="yes"/>
      <point x="240" y="605"/>
      <point x="212" y="639"/>
      <point x="128" y="672" type="curve"/>
      <point x="117" y="664" type="line"/>
      <point x="150" y="635"/>
      <point x="163" y="601"/>
    </contour>
    <contour>
      <point x="60" y="714" type="line"/>
      <point x="921" y="714" type="line" smooth="yes"/>
      <point x="935" y="714"/>
      <point x="943" y="718"/>
      <point x="946" y="729" type="curve"/>
      <point x="915" y="756"/>
      <point x="880" y="784"/>
      <point x="852" y="805" type="curve"/>
      <point x="809" y="742" type="line"/>
      <point x="52" y="742" type="line"/>
    </contour>
  </outline>
</glyph>
<glyph name="u17013" format="2">
  <advance width="1000"/>
  <unicode hex="17013"/>
  <outline>
    <contour>
      <point x="466" y="-101" type="line"/>
      <point x="476" y="-101" type="line" smooth="yes"/>
      <point x="497" y="-101"/>
      <point x="528" y="-86"/>
      <point x="529" y="-80" type="curve"/>
      <point x="529" y="6" type="line"/>
      <point x="824" y="6" type="line"/>
      <point x="824" y="-101" type="line"/>
      <point x="834" y="-101" type="line" smooth="yes"/>
      <point x="855" y="-101"/>
      <point x="878" y="-91"/>
      <point x="887" y="-80" type="curve"/>
      <point x="887" y="204" type="line"/>
      <point x="907" y="208"/>
      <point x="923" y="216"/>
      <point x="930" y="224" type="curve"/>
      <point x="849" y="286" type="line"/>
      <point x="814" y="245" type="line"/>
      <point x="529" y="245" type="line"/>
      <point x="529" y="318" type="line"/>
      <point x="911" y="318" type="line" smooth="yes"/>
      <point x="925" y="318"/>
      <point x="933" y="322"/>
      <point x="936" y="333" type="curve"/>
      <point x="911" y="355"/>
      <point x="882" y="379"/>
      <point x="858" y="398" type="curve"/>
      <point x="822" y="346" type="line"/>
      <point x="529" y="346" type="line"/>
      <point x="529" y="389" type="line"/>
      <point x="553" y="393"/>
      <point x="562" y="403"/>
      <point x="565" y="417" type="curve"/>
      <point x="466" y="428" type="line"/>
    </contour>
    <contour>
      <point x="114" y="-81" type="line"/>
      <point x="124" y="-75"/>
      <point x="134" y="-65"/>
      <point x="137" y="-54" type="curve"/>
      <point x="240" y="-11"/>
      <point x="336" y="33"/>
      <point x="428" y="78" type="curve"/>
      <point x="421" y="99" type="line"/>
      <point x="339" y="69"/>
      <point x="262" y="42"/>
      <point x="167" y="14" type="curve"/>
      <point x="134" y="242" type="line"/>
      <point x="226" y="270"/>
      <point x="295" y="293"/>
      <point x="367" y="320" type="curve"/>
      <point x="379" y="315"/>
      <point x="389" y="313"/>
      <point x="397" y="313" type="curve" smooth="yes"/>
      <point x="405" y="313"/>
      <point x="411" y="315"/>
      <point x="416" y="319" type="curve"/>
      <point x="340" y="385" type="line"/>
      <point x="279" y="341"/>
      <point x="210" y="307"/>
      <point x="139" y="274" type="curve"/>
      <point x="66" y="270" type="line"/>
      <point x="101" y="29" type="line" smooth="yes"/>
      <point x="104" y="8"/>
      <point x="95" y="-9"/>
      <point x="78" y="-20" type="curve"/>
    </contour>
    <contour>
      <point x="529" y="34" type="line"/>
      <point x="529" y="115" type="line"/>
      <point x="824" y="115" type="line"/>
      <point x="824" y="34" type="line"/>
    </contour>
    <contour>
      <point x="200" y="481" type="line"/>
      <point x="269" y="494"/>
      <point x="360" y="509"/>
      <point x="453" y="524" type="curve"/>
      <point x="459" y="518"/>
      <point x="465" y="511"/>
      <point x="469" y="504" type="curve" smooth="yes"/>
      <point x="474" y="497"/>
      <point x="478" y="489"/>
      <point x="481" y="481" type="curve"/>
    </contour>
    <contour>
      <point x="529" y="143" type="line"/>
      <point x="529" y="217" type="line"/>
      <point x="824" y="217" type="line"/>
      <point x="824" y="143" type="line"/>
    </contour>
    <contour>
      <point x="125" y="411" type="line"/>
      <point x="134" y="414"/>
      <point x="143" y="422"/>
      <point x="150" y="434" type="curve"/>
      <point x="378" y="439"/>
      <point x="626" y="448"/>
      <point x="813" y="458" type="curve"/>
      <point x="822" y="443"/>
      <point x="830" y="426"/>
      <point x="835" y="411" type="curve"/>
      <point x="846" y="402"/>
      <point x="858" y="398"/>
      <point x="869" y="398" type="curve" smooth="yes"/>
      <point x="887" y="398"/>
      <point x="902" y="411"/>
      <point x="902" y="431" type="curve" smooth="yes"/>
      <point x="902" y="452"/>
      <point x="887" y="480"/>
      <point x="843" y="511" type="curve" smooth="yes"/>
      <point x="810" y="535"/>
      <point x="766" y="555"/>
      <point x="729" y="567" type="curve"/>
      <point x="719" y="557" type="line"/>
      <point x="744" y="539"/>
      <point x="770" y="515"/>
      <point x="788" y="494" type="curve" smooth="yes"/>
      <point x="791" y="490"/>
      <point x="795" y="486"/>
      <point x="798" y="481" type="curve"/>
      <point x="551" y="481" type="line"/>
      <point x="548" y="492"/>
      <point x="538" y="504"/>
      <point x="520" y="517" type="curve" smooth="yes"/>
      <point x="513" y="522"/>
      <point x="504" y="527"/>
      <point x="495" y="532" type="curve"/>
      <point x="616" y="553"/>
      <point x="734" y="576"/>
      <point x="801" y="601" type="curve"/>
      <point x="824" y="602"/>
      <point x="833" y="607"/>
      <point x="841" y="616" type="curve"/>
      <point x="744" y="692" type="line"/>
      <point x="713" y="650" type="line"/>
      <point x="110" y="651" type="line"/>
      <point x="118" y="623" type="line"/>
      <point x="709" y="623" type="line"/>
      <point x="577" y="567"/>
      <point x="287" y="521"/>
      <point x="118" y="491" type="curve"/>
      <point x="112" y="488"/>
      <point x="100" y="488"/>
      <point x="91" y="488" type="curve"/>
    </contour>
    <contour>
      <point x="81" y="715" type="line"/>
      <point x="903" y="715" type="line" smooth="yes"/>
      <point x="917" y="715"/>
      <point x="925" y="719"/>
      <point x="928" y="730" type="curve"/>
      <point x="897" y="757"/>
      <point x="862" y="785"/>
      <point x="834" y="806" type="curve"/>
      <point x="791" y="743" type="line"/>
      <point x="73" y="743" type="line"/>
    </contour>
  </outline>
</glyph>
<glyph name="u17014" format="2">
  <advance width="1000"/>
  <unicode hex="17014"/>
  <outline>
    <contour>
      <point x="172" y="-101" type="line"/>
      <point x="182" y="-101" type="line" smooth="yes"/>
      <point x="203" y="-101"/>
      <point x="236" y="-86"/>
      <point x="237" y="-80" type="curve"/>
      <point x="237" y="353" type="line"/>
      <point x="373" y="353" type="line" smooth="yes"/>
      <point x="386" y="353"/>
      <point x="394" y="357"/>
      <point x="397" y="368" type="curve"/>
      <point x="377" y="386"/>
      <point x="353" y="407"/>
      <point x="331" y="424" type="curve"/>
      <point x="301" y="381" type="line"/>
      <point x="237" y="381" type="line"/>
      <point x="237" y="602" type="line"/>
      <point x="352" y="602" type="line" smooth="yes"/>
      <point x="366" y="602"/>
      <point x="374" y="606"/>
      <point x="377" y="617" type="curve"/>
      <point x="352" y="639"/>
      <point x="324" y="663"/>
      <point x="299" y="681" type="curve"/>
      <point x="264" y="630" type="line"/>
      <point x="64" y="630" type="line"/>
      <point x="72" y="602" type="line"/>
      <point x="172" y="602" type="line"/>
      <point x="172" y="381" type="line"/>
      <point x="34" y="381" type="line"/>
      <point x="42" y="353" type="line"/>
      <point x="172" y="353" type="line"/>
    </contour>
    <contour>
      <point x="268" y="-101" type="line"/>
      <point x="369" y="-49"/>
      <point x="444" y="10"/>
      <point x="502" y="76" type="curve"/>
      <point x="537" y="24"/>
      <point x="565" y="-35"/>
      <point x="580" y="-89" type="curve"/>
      <point x="590" y="-96"/>
      <point x="599" y="-99"/>
      <point x="608" y="-99" type="curve" smooth="yes"/>
      <point x="626" y="-99"/>
      <point x="640" y="-83"/>
      <point x="640" y="-56" type="curve" smooth="yes"/>
      <point x="640" y="-18"/>
      <point x="615" y="42"/>
      <point x="540" y="116" type="curve" smooth="yes"/>
      <point x="539" y="117"/>
      <point x="537" y="118"/>
      <point x="536" y="120" type="curve"/>
      <point x="564" y="157"/>
      <point x="586" y="197"/>
      <point x="605" y="239" type="curve"/>
      <point x="610" y="238"/>
      <point x="615" y="238"/>
      <point x="619" y="238" type="curve" smooth="yes"/>
      <point x="632" y="238"/>
      <point x="638" y="243"/>
      <point x="643" y="251" type="curve"/>
      <point x="550" y="296" type="line"/>
      <point x="534" y="248"/>
      <point x="513" y="203"/>
      <point x="489" y="160" type="curve"/>
      <point x="456" y="187"/>
      <point x="420" y="212"/>
      <point x="385" y="233" type="curve"/>
      <point x="480" y="290"/>
      <point x="542" y="360"/>
      <point x="585" y="437" type="curve"/>
      <point x="591" y="436"/>
      <point x="596" y="435"/>
      <point x="600" y="435" type="curve" smooth="yes"/>
      <point x="612" y="435"/>
      <point x="619" y="440"/>
      <point x="623" y="448" type="curve"/>
      <point x="535" y="496" type="line"/>
      <point x="489" y="369"/>
      <point x="401" y="268"/>
      <point x="293" y="203" type="curve"/>
      <point x="305" y="192" type="line"/>
      <point x="328" y="202"/>
      <point x="349" y="213"/>
      <point x="369" y="224" type="curve"/>
      <point x="405" y="193"/>
      <point x="439" y="157"/>
      <point x="467" y="124" type="curve"/>
      <point x="411" y="38"/>
      <point x="339" y="-33"/>
      <point x="256" y="-89" type="curve"/>
    </contour>
    <contour>
      <point x="331" y="432" type="line"/>
      <point x="444" y="481"/>
      <point x="518" y="551"/>
      <point x="565" y="628" type="curve"/>
      <point x="571" y="627"/>
      <point x="576" y="626"/>
      <point x="580" y="626" type="curve" smooth="yes"/>
      <point x="592" y="626"/>
      <point x="599" y="631"/>
      <point x="603" y="639" type="curve"/>
      <point x="514" y="689" type="line"/>
      <point x="477" y="585"/>
      <point x="405" y="498"/>
      <point x="319" y="444" type="curve"/>
    </contour>
    <contour>
      <point x="744" y="-101" type="curve" smooth="yes"/>
      <point x="820" y="-101" type="line" smooth="yes"/>
      <point x="938" y="-101"/>
      <point x="981" y="-85"/>
      <point x="981" y="-57" type="curve" smooth="yes"/>
      <point x="981" y="-42"/>
      <point x="970" y="-35"/>
      <point x="946" y="-28" type="curve"/>
      <point x="945" y="157" type="line"/>
      <point x="932" y="157" type="line"/>
      <point x="921" y="96"/>
      <point x="902" y="17"/>
      <point x="886" y="-19" type="curve" smooth="yes"/>
      <point x="882" y="-30"/>
      <point x="875" y="-37"/>
      <point x="866" y="-40" type="curve" smooth="yes"/>
      <point x="856" y="-42"/>
      <point x="836" y="-42"/>
      <point x="814" y="-42" type="curve" smooth="yes"/>
      <point x="762" y="-42" type="line" smooth="yes"/>
      <point x="737" y="-42"/>
      <point x="733" y="-33"/>
      <point x="733" y="-17" type="curve" smooth="yes"/>
      <point x="733" y="306" type="line"/>
      <point x="808" y="319"/>
      <point x="873" y="337"/>
      <point x="924" y="362" type="curve"/>
      <point x="930" y="361"/>
      <point x="935" y="360"/>
      <point x="939" y="360" type="curve" smooth="yes"/>
      <point x="951" y="360"/>
      <point x="958" y="365"/>
      <point x="962" y="373" type="curve"/>
      <point x="890" y="433" type="line"/>
      <point x="851" y="389"/>
      <point x="795" y="353"/>
      <point x="733" y="328" type="curve"/>
      <point x="733" y="638" type="line"/>
      <point x="758" y="642"/>
      <point x="768" y="653"/>
      <point x="770" y="666" type="curve"/>
      <point x="666" y="678" type="line"/>
      <point x="666" y="-35" type="line" smooth="yes"/>
      <point x="666" y="-82"/>
      <point x="679" y="-101"/>
    </contour>
    <contour>
      <point x="65" y="714" type="line"/>
      <point x="926" y="714" type="line" smooth="yes"/>
      <point x="940" y="714"/>
      <point x="948" y="718"/>
      <point x="951" y="729" type="curve"/>
      <point x="920" y="756"/>
      <point x="885" y="784"/>
      <point x="857" y="805" type="curve"/>
      <point x="814" y="742" type="line"/>
      <point x="57" y="742" type="line"/>
    </contour>
  </outline>
</glyph>
<glyph name="u17015" format="2">
  <advance width="1000"/>
  <unicode hex="17015"/>
  <outline>
    <contour>
      <point x="623" y="-101" type="line"/>
      <point x="633" y="-101" type="line" smooth="yes"/>
      <point x="654" y="-101"/>
      <point x="687" y="-86"/>
      <point x="688" y="-80" type="curve"/>
      <point x="688" y="140" type="line"/>
      <point x="816" y="140" type="line"/>
      <point x="816" y="-71" type="line"/>
      <point x="826" y="-71" type="line" smooth="yes"/>
      <point x="847" y="-71"/>
      <point x="880" y="-56"/>
      <point x="881" y="-50" type="curve"/>
      <point x="881" y="129" type="line"/>
      <point x="900" y="133"/>
      <point x="915" y="141"/>
      <point x="922" y="148" type="curve"/>
      <point x="841" y="209" type="line"/>
      <point x="805" y="170" type="line"/>
      <point x="688" y="170" type="line"/>
      <point x="688" y="257" type="line"/>
      <point x="909" y="257" type="line" smooth="yes"/>
      <point x="922" y="257"/>
      <point x="930" y="261"/>
      <point x="933" y="272" type="curve"/>
      <point x="914" y="289"/>
      <point x="892" y="308"/>
      <point x="871" y="324" type="curve"/>
      <point x="892" y="322"/>
      <point x="911" y="334"/>
      <point x="911" y="354" type="curve" smooth="yes"/>
      <point x="911" y="368"/>
      <point x="901" y="386"/>
      <point x="874" y="405" type="curve" smooth="yes"/>
      <point x="849" y="423"/>
      <point x="815" y="437"/>
      <point x="788" y="444" type="curve"/>
      <point x="778" y="434" type="line"/>
      <point x="793" y="421"/>
      <point x="808" y="406"/>
      <point x="818" y="391" type="curve" smooth="yes"/>
      <point x="822" y="384" type="line"/>
      <point x="688" y="384" type="line"/>
      <point x="688" y="402" type="line"/>
      <point x="705" y="406"/>
      <point x="714" y="412"/>
      <point x="717" y="426" type="curve"/>
      <point x="683" y="430" type="line"/>
      <point x="741" y="446"/>
      <point x="797" y="464"/>
      <point x="846" y="481" type="curve"/>
      <point x="869" y="482"/>
      <point x="878" y="486"/>
      <point x="886" y="495" type="curve"/>
      <point x="800" y="569" type="line"/>
      <point x="771" y="529" type="line"/>
      <point x="448" y="530" type="line"/>
      <point x="456" y="502" type="line"/>
      <point x="770" y="502" type="line"/>
      <point x="690" y="462"/>
      <point x="569" y="420"/>
      <point x="456" y="395" type="curve" smooth="yes"/>
      <point x="447" y="393"/>
      <point x="436" y="388"/>
      <point x="425" y="387" type="curve"/>
      <point x="459" y="313" type="line"/>
      <point x="468" y="316"/>
      <point x="477" y="324"/>
      <point x="484" y="336" type="curve"/>
      <point x="529" y="339"/>
      <point x="575" y="342"/>
      <point x="623" y="346" type="curve"/>
      <point x="623" y="285" type="line"/>
      <point x="421" y="285" type="line"/>
      <point x="429" y="257" type="line"/>
      <point x="623" y="257" type="line"/>
      <point x="623" y="170" type="line"/>
      <point x="519" y="170" type="line"/>
      <point x="443" y="203" type="line"/>
      <point x="443" y="-74" type="line"/>
      <point x="453" y="-74" type="line" smooth="yes"/>
      <point x="474" y="-74"/>
      <point x="507" y="-59"/>
      <point x="508" y="-53" type="curve"/>
      <point x="508" y="140" type="line"/>
      <point x="623" y="140" type="line"/>
    </contour>
    <contour>
      <point x="74" y="-26" type="line"/>
      <point x="84" y="-26" type="line" smooth="yes"/>
      <point x="105" y="-26"/>
      <point x="138" y="-11"/>
      <point x="139" y="-5" type="curve"/>
      <point x="139" y="565" type="line"/>
      <point x="163" y="569"/>
      <point x="172" y="579"/>
      <point x="175" y="593" type="curve"/>
      <point x="74" y="604" type="line"/>
    </contour>
    <contour>
      <point x="292" y="-101" type="line"/>
      <point x="302" y="-101" type="line" smooth="yes"/>
      <point x="323" y="-101"/>
      <point x="356" y="-86"/>
      <point x="357" y="-80" type="curve"/>
      <point x="357" y="632" type="line"/>
      <point x="381" y="636"/>
      <point x="390" y="646"/>
      <point x="393" y="660" type="curve"/>
      <point x="292" y="671" type="line"/>
    </contour>
    <contour>
      <point x="493" y="384" type="line"/>
      <point x="533" y="392"/>
      <point x="578" y="402"/>
      <point x="623" y="414" type="curve"/>
      <point x="623" y="384" type="line"/>
    </contour>
    <contour>
      <point x="688" y="285" type="line"/>
      <point x="688" y="351" type="line"/>
      <point x="736" y="355"/>
      <point x="784" y="359"/>
      <point x="831" y="365" type="curve"/>
      <point x="834" y="356"/>
      <point x="837" y="348"/>
      <point x="839" y="340" type="curve"/>
      <point x="842" y="337"/>
      <point x="846" y="334"/>
      <point x="850" y="332" type="curve"/>
      <point x="818" y="285" type="line"/>
    </contour>
    <contour>
      <point x="62" y="714" type="line"/>
      <point x="925" y="714" type="line" smooth="yes"/>
      <point x="939" y="714"/>
      <point x="947" y="718"/>
      <point x="950" y="729" type="curve"/>
      <point x="919" y="756"/>
      <point x="884" y="784"/>
      <point x="856" y="805" type="curve"/>
      <point x="813" y="742" type="line"/>
      <point x="54" y="742" type="line"/>
    </contour>
    <contour>
      <point x="411" y="596" type="line"/>
      <point x="897" y="596" type="line" smooth="yes"/>
      <point x="911" y="596"/>
      <point x="919" y="600"/>
      <point x="922" y="611" type="curve"/>
      <point x="893" y="636"/>
      <point x="861" y="663"/>
      <point x="834" y="683" type="curve"/>
      <point x="793" y="624" type="line"/>
      <point x="403" y="624" type="line"/>
    </contour>
  </outline>
</glyph>
<glyph name="u17016" format="2">
  <advance width="1000"/>
  <unicode hex="17016"/>
  <outline>
    <contour>
      <point x="646" y="-101" type="curve" smooth="yes"/>
      <point x="758" y="-101" type="line" smooth="yes"/>
      <point x="918" y="-101"/>
      <point x="965" y="-88"/>
      <point x="965" y="-56" type="curve" smooth="yes"/>
      <point x="965" y="-41"/>
      <point x="954" y="-35"/>
      <point x="928" y="-28" type="curve"/>
      <point x="927" y="196" type="line"/>
      <point x="914" y="196" type="line"/>
      <point x="901" y="117"/>
      <point x="882" y="16"/>
      <point x="868" y="-19" type="curve" smooth="yes"/>
      <point x="863" y="-30"/>
      <point x="856" y="-37"/>
      <point x="844" y="-40" type="curve" smooth="yes"/>
      <point x="830" y="-42"/>
      <point x="791" y="-43"/>
      <point x="753" y="-43" type="curve" smooth="yes"/>
      <point x="660" y="-43" type="line" smooth="yes"/>
      <point x="622" y="-43"/>
      <point x="615" y="-33"/>
      <point x="615" y="-11" type="curve" smooth="yes"/>
      <point x="615" y="294" type="line"/>
      <point x="728" y="312"/>
      <point x="824" y="340"/>
      <point x="898" y="379" type="curve"/>
      <point x="904" y="378"/>
      <point x="909" y="377"/>
      <point x="913" y="377" type="curve" smooth="yes"/>
      <point x="925" y="377"/>
      <point x="932" y="382"/>
      <point x="936" y="390" type="curve"/>
      <point x="861" y="449" type="line"/>
      <point x="801" y="390"/>
      <point x="711" y="344"/>
      <point x="615" y="314" type="curve"/>
      <point x="615" y="626" type="line"/>
      <point x="640" y="630"/>
      <point x="650" y="641"/>
      <point x="652" y="654" type="curve"/>
      <point x="548" y="666" type="line"/>
      <point x="548" y="-28" type="line" smooth="yes"/>
      <point x="548" y="-83"/>
      <point x="568" y="-101"/>
    </contour>
    <contour>
      <point x="43" y="-101" type="line"/>
      <point x="167" y="-59"/>
      <point x="263" y="-7"/>
      <point x="339" y="55" type="curve"/>
      <point x="387" y="11"/>
      <point x="425" y="-43"/>
      <point x="451" y="-93" type="curve"/>
      <point x="459" y="-96"/>
      <point x="467" y="-98"/>
      <point x="474" y="-98" type="curve" smooth="yes"/>
      <point x="497" y="-98"/>
      <point x="513" y="-83"/>
      <point x="513" y="-59" type="curve" smooth="yes"/>
      <point x="513" y="-24"/>
      <point x="481" y="30"/>
      <point x="386" y="91" type="curve" smooth="yes"/>
      <point x="383" y="93" type="line"/>
      <point x="411" y="120"/>
      <point x="436" y="149"/>
      <point x="458" y="179" type="curve"/>
      <point x="464" y="178"/>
      <point x="469" y="177"/>
      <point x="473" y="177" type="curve" smooth="yes"/>
      <point x="485" y="177"/>
      <point x="492" y="182"/>
      <point x="496" y="190" type="curve"/>
      <point x="408" y="241" type="line"/>
      <point x="386" y="199"/>
      <point x="359" y="160"/>
      <point x="328" y="124" type="curve"/>
      <point x="295" y="140"/>
      <point x="262" y="153"/>
      <point x="227" y="165" type="curve"/>
      <point x="285" y="201"/>
      <point x="331" y="241"/>
      <point x="368" y="286" type="curve"/>
      <point x="374" y="285"/>
      <point x="379" y="284"/>
      <point x="383" y="284" type="curve" smooth="yes"/>
      <point x="395" y="284"/>
      <point x="402" y="289"/>
      <point x="406" y="297" type="curve"/>
      <point x="325" y="347" type="line"/>
      <point x="267" y="239"/>
      <point x="169" y="157"/>
      <point x="56" y="104" type="curve"/>
      <point x="66" y="92" type="line"/>
      <point x="120" y="110"/>
      <point x="167" y="131"/>
      <point x="208" y="154" type="curve"/>
      <point x="240" y="134"/>
      <point x="270" y="112"/>
      <point x="297" y="90" type="curve"/>
      <point x="224" y="15"/>
      <point x="132" y="-45"/>
      <point x="33" y="-89" type="curve"/>
    </contour>
    <contour>
      <point x="66" y="252" type="line"/>
      <point x="191" y="295"/>
      <point x="284" y="350"/>
      <point x="353" y="417" type="curve"/>
      <point x="385" y="391"/>
      <point x="415" y="359"/>
      <point x="436" y="328" type="curve"/>
      <point x="445" y="325"/>
      <point x="452" y="324"/>
      <point x="459" y="324" type="curve" smooth="yes"/>
      <point x="479" y="324"/>
      <point x="492" y="335"/>
      <point x="492" y="351" type="curve" smooth="yes"/>
      <point x="492" y="376"/>
      <point x="464" y="415"/>
      <point x="389" y="454" type="curve"/>
      <point x="399" y="465"/>
      <point x="408" y="476"/>
      <point x="417" y="488" type="curve"/>
      <point x="423" y="487"/>
      <point x="428" y="486"/>
      <point x="432" y="486" type="curve" smooth="yes"/>
      <point x="444" y="486"/>
      <point x="451" y="491"/>
      <point x="455" y="499" type="curve"/>
      <point x="370" y="550" type="line"/>
      <point x="358" y="526"/>
      <point x="343" y="503"/>
      <point x="327" y="481" type="curve"/>
      <point x="303" y="490"/>
      <point x="278" y="498"/>
      <point x="254" y="504" type="curve"/>
      <point x="293" y="538"/>
      <point x="324" y="574"/>
      <point x="350" y="613" type="curve"/>
      <point x="356" y="612"/>
      <point x="361" y="611"/>
      <point x="365" y="611" type="curve" smooth="yes"/>
      <point x="377" y="611"/>
      <point x="384" y="616"/>
      <point x="388" y="624" type="curve"/>
      <point x="301" y="674" type="line"/>
      <point x="249" y="555"/>
      <point x="155" y="460"/>
      <point x="45" y="401" type="curve"/>
      <point x="56" y="389" type="line"/>
      <point x="128" y="417"/>
      <point x="188" y="451"/>
      <point x="237" y="490" type="curve"/>
      <point x="260" y="478"/>
      <point x="282" y="464"/>
      <point x="304" y="451" type="curve"/>
      <point x="238" y="371"/>
      <point x="151" y="309"/>
      <point x="55" y="264" type="curve"/>
    </contour>
    <contour>
      <point x="445" y="547" type="curve"/>
      <point x="456" y="536"/>
      <point x="469" y="532"/>
      <point x="481" y="532" type="curve" smooth="yes"/>
      <point x="500" y="532"/>
      <point x="517" y="545"/>
      <point x="517" y="566" type="curve" smooth="yes"/>
      <point x="517" y="582"/>
      <point x="508" y="602"/>
      <point x="485" y="624" type="curve" smooth="yes"/>
      <point x="463" y="645"/>
      <point x="431" y="664"/>
      <point x="404" y="676" type="curve"/>
      <point x="394" y="666" type="line"/>
      <point x="408" y="650"/>
      <point x="422" y="630"/>
      <point x="430" y="611" type="curve" smooth="yes"/>
      <point x="438" y="590"/>
      <point x="444" y="567"/>
    </contour>
    <contour>
      <point x="56" y="714" type="line"/>
      <point x="918" y="714" type="line" smooth="yes"/>
      <point x="932" y="714"/>
      <point x="940" y="718"/>
      <point x="943" y="729" type="curve"/>
      <point x="912" y="756"/>
      <point x="877" y="784"/>
      <point x="849" y="805" type="curve"/>
      <point x="806" y="742" type="line"/>
      <point x="48" y="742" type="line"/>
    </contour>
  </outline>
</glyph>
<glyph name="u17017" format="2">
  <advance width="1000"/>
  <unicode hex="17017"/>
  <outline>
    <contour>
      <point x="341" y="-101" type="line"/>
      <point x="351" y="-101" type="line" smooth="yes"/>
      <point x="372" y="-101"/>
      <point x="405" y="-86"/>
      <point x="406" y="-80" type="curve"/>
      <point x="406" y="307" type="line"/>
      <point x="496" y="307" type="line" smooth="yes"/>
      <point x="509" y="307"/>
      <point x="517" y="311"/>
      <point x="520" y="322" type="curve"/>
      <point x="518" y="324"/>
      <point x="516" y="325"/>
      <point x="515" y="327" type="curve"/>
      <point x="529" y="336"/>
      <point x="543" y="345"/>
      <point x="556" y="355" type="curve"/>
      <point x="579" y="267"/>
      <point x="613" y="187"/>
      <point x="657" y="118" type="curve"/>
      <point x="593" y="35"/>
      <point x="514" y="-35"/>
      <point x="426" y="-88" type="curve"/>
      <point x="437" y="-101" type="line"/>
      <point x="542" y="-51"/>
      <point x="625" y="6"/>
      <point x="690" y="70" type="curve"/>
      <point x="745" y="-2"/>
      <point x="814" y="-59"/>
      <point x="896" y="-100" type="curve"/>
      <point x="909" y="-70"/>
      <point x="939" y="-49"/>
      <point x="970" y="-46" type="curve"/>
      <point x="973" y="-35" type="line"/>
      <point x="879" y="-2"/>
      <point x="798" y="48"/>
      <point x="731" y="113" type="curve"/>
      <point x="783" y="173"/>
      <point x="823" y="238"/>
      <point x="853" y="308" type="curve"/>
      <point x="859" y="307"/>
      <point x="864" y="306"/>
      <point x="868" y="306" type="curve" smooth="yes"/>
      <point x="881" y="306"/>
      <point x="887" y="311"/>
      <point x="891" y="319" type="curve"/>
      <point x="792" y="367" type="line"/>
      <point x="766" y="292"/>
      <point x="731" y="223"/>
      <point x="688" y="160" type="curve"/>
      <point x="639" y="219"/>
      <point x="601" y="289"/>
      <point x="574" y="367" type="curve"/>
      <point x="675" y="443"/>
      <point x="737" y="529"/>
      <point x="780" y="629" type="curve"/>
      <point x="785" y="628"/>
      <point x="790" y="628"/>
      <point x="794" y="628" type="curve" smooth="yes"/>
      <point x="807" y="628"/>
      <point x="814" y="633"/>
      <point x="818" y="642" type="curve"/>
      <point x="719" y="686" type="line"/>
      <point x="677" y="550"/>
      <point x="600" y="430"/>
      <point x="499" y="341" type="curve"/>
      <point x="484" y="354"/>
      <point x="468" y="368"/>
      <point x="453" y="380" type="curve"/>
      <point x="421" y="335" type="line"/>
      <point x="406" y="335" type="line"/>
      <point x="406" y="481" type="line"/>
      <point x="430" y="485"/>
      <point x="439" y="495"/>
      <point x="442" y="509" type="curve"/>
      <point x="362" y="518" type="line"/>
      <point x="403" y="552"/>
      <point x="438" y="589"/>
      <point x="469" y="629" type="curve"/>
      <point x="475" y="628"/>
      <point x="480" y="627"/>
      <point x="484" y="627" type="curve" smooth="yes"/>
      <point x="496" y="627"/>
      <point x="503" y="632"/>
      <point x="507" y="640" type="curve"/>
      <point x="425" y="688" type="line"/>
      <point x="340" y="537"/>
      <point x="194" y="430"/>
      <point x="27" y="359" type="curve"/>
      <point x="37" y="346" type="line"/>
      <point x="164" y="389"/>
      <point x="263" y="441"/>
      <point x="341" y="501" type="curve"/>
      <point x="341" y="335" type="line"/>
      <point x="105" y="335" type="line"/>
      <point x="113" y="307" type="line"/>
      <point x="341" y="307" type="line"/>
    </contour>
    <contour>
      <point x="113" y="-101" type="line"/>
      <point x="123" y="-95"/>
      <point x="133" y="-85"/>
      <point x="136" y="-74" type="curve"/>
      <point x="202" y="-43"/>
      <point x="263" y="-12"/>
      <point x="322" y="20" type="curve"/>
      <point x="315" y="41" type="line"/>
      <point x="267" y="22"/>
      <point x="221" y="7"/>
      <point x="167" y="-9" type="curve"/>
      <point x="140" y="168" type="line"/>
      <point x="195" y="185"/>
      <point x="239" y="200"/>
      <point x="285" y="216" type="curve"/>
      <point x="297" y="211"/>
      <point x="307" y="209"/>
      <point x="315" y="209" type="curve" smooth="yes"/>
      <point x="323" y="209"/>
      <point x="329" y="211"/>
      <point x="334" y="215" type="curve"/>
      <point x="257" y="281" type="line"/>
      <point x="223" y="252"/>
      <point x="186" y="225"/>
      <point x="145" y="200" type="curve"/>
      <point x="72" y="196" type="line"/>
      <point x="100" y="3" type="line" smooth="yes"/>
      <point x="104" y="-18"/>
      <point x="94" y="-35"/>
      <point x="77" y="-46" type="curve"/>
    </contour>
    <contour>
      <point x="177" y="530" type="curve"/>
      <point x="188" y="520"/>
      <point x="200" y="515"/>
      <point x="212" y="515" type="curve" smooth="yes"/>
      <point x="231" y="515"/>
      <point x="247" y="528"/>
      <point x="247" y="551" type="curve" smooth="yes"/>
      <point x="247" y="570"/>
      <point x="235" y="595"/>
      <point x="204" y="624" type="curve" smooth="yes"/>
      <point x="177" y="648"/>
      <point x="140" y="670"/>
      <point x="108" y="684" type="curve"/>
      <point x="98" y="674" type="line"/>
      <point x="118" y="655"/>
      <point x="137" y="631"/>
      <point x="149" y="610" type="curve" smooth="yes"/>
      <point x="162" y="585"/>
      <point x="173" y="555"/>
    </contour>
    <contour>
      <point x="56" y="714" type="line"/>
      <point x="924" y="714" type="line" smooth="yes"/>
      <point x="938" y="714"/>
      <point x="946" y="718"/>
      <point x="949" y="729" type="curve"/>
      <point x="918" y="756"/>
      <point x="883" y="784"/>
      <point x="855" y="805" type="curve"/>
      <point x="812" y="742" type="line"/>
      <point x="48" y="742" type="line"/>
    </contour>
    <contour>
      <point x="864" y="379" type="curve"/>
      <point x="874" y="369"/>
      <point x="886" y="365"/>
      <point x="897" y="365" type="curve" smooth="yes"/>
      <point x="917" y="365"/>
      <point x="934" y="381"/>
      <point x="934" y="407" type="curve" smooth="yes"/>
      <point x="934" y="430"/>
      <point x="922" y="460"/>
      <point x="888" y="495" type="curve" smooth="yes"/>
      <point x="860" y="524"/>
      <point x="821" y="552"/>
      <point x="786" y="571" type="curve"/>
      <point x="775" y="561" type="line"/>
      <point x="798" y="537"/>
      <point x="819" y="507"/>
      <point x="832" y="480" type="curve" smooth="yes"/>
      <point x="848" y="449"/>
      <point x="860" y="412"/>
    </contour>
  </outline>
</glyph>
<glyph name="u17018" format="2">
  <advance width="1000"/>
  <unicode hex="17018"/>
  <outline>
    <contour>
      <point x="648" y="-101" type="curve" smooth="yes"/>
      <point x="758" y="-101" type="line" smooth="yes"/>
      <point x="917" y="-101"/>
      <point x="962" y="-86"/>
      <point x="962" y="-55" type="curve" smooth="yes"/>
      <point x="962" y="-40"/>
      <point x="951" y="-33"/>
      <point x="927" y="-26" type="curve"/>
      <point x="926" y="157" type="line"/>
      <point x="913" y="157" type="line"/>
      <point x="900" y="94"/>
      <point x="882" y="17"/>
      <point x="866" y="-17" type="curve" smooth="yes"/>
      <point x="861" y="-28"/>
      <point x="854" y="-35"/>
      <point x="842" y="-38" type="curve" smooth="yes"/>
      <point x="828" y="-41"/>
      <point x="791" y="-41"/>
      <point x="754" y="-41" type="curve" smooth="yes"/>
      <point x="662" y="-41" type="line" smooth="yes"/>
      <point x="625" y="-41"/>
      <point x="618" y="-31"/>
      <point x="618" y="-10" type="curve" smooth="yes"/>
      <point x="618" y="299" type="line"/>
      <point x="729" y="316"/>
      <point x="822" y="341"/>
      <point x="896" y="377" type="curve"/>
      <point x="902" y="376"/>
      <point x="907" y="375"/>
      <point x="911" y="375" type="curve" smooth="yes"/>
      <point x="923" y="375"/>
      <point x="930" y="380"/>
      <point x="934" y="388" type="curve"/>
      <point x="859" y="449" type="line"/>
      <point x="800" y="392"/>
      <point x="711" y="347"/>
      <point x="618" y="319" type="curve"/>
      <point x="618" y="635" type="line"/>
      <point x="643" y="639"/>
      <point x="653" y="650"/>
      <point x="655" y="663" type="curve"/>
      <point x="551" y="675" type="line"/>
      <point x="551" y="-27" type="line" smooth="yes"/>
      <point x="551" y="-82"/>
      <point x="571" y="-101"/>
    </contour>
    <contour>
      <point x="43" y="-103" type="line"/>
      <point x="169" y="-60"/>
      <point x="268" y="-8"/>
      <point x="346" y="54" type="curve"/>
      <point x="397" y="10"/>
      <point x="442" y="-44"/>
      <point x="470" y="-96" type="curve"/>
      <point x="479" y="-100"/>
      <point x="488" y="-103"/>
      <point x="496" y="-103" type="curve" smooth="yes"/>
      <point x="515" y="-103"/>
      <point x="527" y="-91"/>
      <point x="527" y="-71" type="curve" smooth="yes"/>
      <point x="527" y="-38"/>
      <point x="491" y="20"/>
      <point x="388" y="85" type="curve" smooth="yes"/>
      <point x="385" y="87" type="line"/>
      <point x="421" y="119"/>
      <point x="453" y="154"/>
      <point x="480" y="191" type="curve"/>
      <point x="486" y="190"/>
      <point x="491" y="189"/>
      <point x="495" y="189" type="curve" smooth="yes"/>
      <point x="507" y="189"/>
      <point x="514" y="194"/>
      <point x="518" y="202" type="curve"/>
      <point x="433" y="252" type="line"/>
      <point x="406" y="202"/>
      <point x="372" y="157"/>
      <point x="334" y="115" type="curve"/>
      <point x="297" y="135"/>
      <point x="257" y="152"/>
      <point x="219" y="166" type="curve"/>
      <point x="316" y="219"/>
      <point x="387" y="281"/>
      <point x="441" y="352" type="curve"/>
      <point x="447" y="351"/>
      <point x="452" y="350"/>
      <point x="456" y="350" type="curve" smooth="yes"/>
      <point x="468" y="350"/>
      <point x="475" y="355"/>
      <point x="479" y="363" type="curve"/>
      <point x="397" y="411" type="line"/>
      <point x="325" y="277"/>
      <point x="200" y="178"/>
      <point x="57" y="113" type="curve"/>
      <point x="67" y="100" type="line"/>
      <point x="115" y="117"/>
      <point x="159" y="135"/>
      <point x="198" y="156" type="curve"/>
      <point x="236" y="134"/>
      <point x="272" y="110"/>
      <point x="305" y="86" type="curve"/>
      <point x="228" y="12"/>
      <point x="134" y="-46"/>
      <point x="33" y="-90" type="curve"/>
    </contour>
    <contour>
      <point x="95" y="276" type="line"/>
      <point x="216" y="322"/>
      <point x="305" y="378"/>
      <point x="371" y="444" type="curve"/>
      <point x="511" y="444" type="line" smooth="yes"/>
      <point x="524" y="444"/>
      <point x="532" y="448"/>
      <point x="535" y="459" type="curve"/>
      <point x="515" y="477"/>
      <point x="491" y="498"/>
      <point x="469" y="515" type="curve"/>
      <point x="439" y="472" type="line"/>
      <point x="398" y="472" type="line"/>
      <point x="410" y="485"/>
      <point x="421" y="499"/>
      <point x="431" y="513" type="curve"/>
      <point x="436" y="512"/>
      <point x="441" y="512"/>
      <point x="444" y="512" type="curve" smooth="yes"/>
      <point x="457" y="512"/>
      <point x="464" y="517"/>
      <point x="469" y="525" type="curve"/>
      <point x="391" y="570" type="line"/>
      <point x="373" y="535"/>
      <point x="351" y="502"/>
      <point x="326" y="472" type="curve"/>
      <point x="256" y="472" type="line"/>
      <point x="306" y="511"/>
      <point x="356" y="558"/>
      <point x="395" y="602" type="curve"/>
      <point x="418" y="603"/>
      <point x="427" y="606"/>
      <point x="435" y="615" type="curve"/>
      <point x="348" y="677" type="line"/>
      <point x="317" y="638" type="line"/>
      <point x="63" y="638" type="line"/>
      <point x="72" y="609" type="line"/>
      <point x="320" y="609" type="line"/>
      <point x="295" y="561"/>
      <point x="264" y="518"/>
      <point x="230" y="472" type="curve"/>
      <point x="199" y="472" type="line"/>
      <point x="199" y="514" type="line"/>
      <point x="223" y="518"/>
      <point x="232" y="528"/>
      <point x="235" y="542" type="curve"/>
      <point x="136" y="553" type="line"/>
      <point x="136" y="472" type="line"/>
      <point x="44" y="472" type="line"/>
      <point x="52" y="444" type="line"/>
      <point x="136" y="444" type="line"/>
      <point x="136" y="376" type="line"/>
      <point x="146" y="376" type="line" smooth="yes"/>
      <point x="167" y="376"/>
      <point x="198" y="391"/>
      <point x="199" y="397" type="curve"/>
      <point x="199" y="444" type="line"/>
      <point x="302" y="444" type="line"/>
      <point x="242" y="380"/>
      <point x="167" y="328"/>
      <point x="84" y="288" type="curve"/>
    </contour>
    <contour>
      <point x="65" y="714" type="line"/>
      <point x="922" y="714" type="line" smooth="yes"/>
      <point x="936" y="714"/>
      <point x="944" y="718"/>
      <point x="947" y="729" type="curve"/>
      <point x="916" y="756"/>
      <point x="881" y="784"/>
      <point x="853" y="805" type="curve"/>
      <point x="810" y="742" type="line"/>
      <point x="57" y="742" type="line"/>
    </contour>
  </outline>
</glyph>
<glyph name="u17019" format="2">
  <advance width="1000"/>
  <unicode hex="17019"/>
  <outline>
    <contour>
      <point x="156" y="-101" type="line"/>
      <point x="166" y="-101" type="line" smooth="yes"/>
      <point x="187" y="-101"/>
      <point x="220" y="-86"/>
      <point x="221" y="-80" type="curve"/>
      <point x="221" y="351" type="line"/>
      <point x="337" y="351" type="line" smooth="yes"/>
      <point x="350" y="351"/>
      <point x="358" y="355"/>
      <point x="361" y="366" type="curve"/>
      <point x="341" y="384"/>
      <point x="317" y="405"/>
      <point x="295" y="422" type="curve"/>
      <point x="265" y="379" type="line"/>
      <point x="221" y="379" type="line"/>
      <point x="221" y="580" type="line"/>
      <point x="323" y="580" type="line" smooth="yes"/>
      <point x="337" y="580"/>
      <point x="345" y="584"/>
      <point x="348" y="595" type="curve"/>
      <point x="322" y="617"/>
      <point x="293" y="642"/>
      <point x="268" y="661" type="curve"/>
      <point x="232" y="608" type="line"/>
      <point x="52" y="608" type="line"/>
      <point x="60" y="580" type="line"/>
      <point x="156" y="580" type="line"/>
      <point x="156" y="379" type="line"/>
      <point x="34" y="379" type="line"/>
      <point x="42" y="351" type="line"/>
      <point x="156" y="351" type="line"/>
    </contour>
    <contour>
      <point x="435" y="152" type="line"/>
      <point x="435" y="308" type="line"/>
      <point x="562" y="308" type="line"/>
      <point x="562" y="152" type="line"/>
    </contour>
    <contour>
      <point x="374" y="-101" type="line"/>
      <point x="384" y="-101" type="line" smooth="yes"/>
      <point x="405" y="-101"/>
      <point x="434" y="-86"/>
      <point x="435" y="-80" type="curve"/>
      <point x="435" y="124" type="line"/>
      <point x="562" y="124" type="line"/>
      <point x="562" y="-98" type="line"/>
      <point x="572" y="-98" type="line" smooth="yes"/>
      <point x="593" y="-98"/>
      <point x="622" y="-83"/>
      <point x="623" y="-77" type="curve"/>
      <point x="623" y="450" type="line"/>
      <point x="642" y="454"/>
      <point x="657" y="462"/>
      <point x="664" y="469" type="curve"/>
      <point x="585" y="530" type="line"/>
      <point x="551" y="491" type="line"/>
      <point x="446" y="491" type="line"/>
      <point x="374" y="524" type="line"/>
    </contour>
    <contour>
      <point x="435" y="336" type="line"/>
      <point x="435" y="461" type="line"/>
      <point x="562" y="461" type="line"/>
      <point x="562" y="336" type="line"/>
    </contour>
    <contour>
      <point x="764" y="-101" type="curve" smooth="yes"/>
      <point x="828" y="-101" type="line" smooth="yes"/>
      <point x="933" y="-101"/>
      <point x="974" y="-85"/>
      <point x="974" y="-57" type="curve" smooth="yes"/>
      <point x="974" y="-42"/>
      <point x="963" y="-35"/>
      <point x="940" y="-29" type="curve"/>
      <point x="939" y="152" type="line"/>
      <point x="926" y="152" type="line"/>
      <point x="915" y="94"/>
      <point x="897" y="17"/>
      <point x="881" y="-20" type="curve" smooth="yes"/>
      <point x="876" y="-31"/>
      <point x="870" y="-37"/>
      <point x="861" y="-40" type="curve" smooth="yes"/>
      <point x="853" y="-42"/>
      <point x="838" y="-42"/>
      <point x="821" y="-42" type="curve" smooth="yes"/>
      <point x="783" y="-42" type="line" smooth="yes"/>
      <point x="762" y="-42"/>
      <point x="759" y="-34"/>
      <point x="759" y="-19" type="curve" smooth="yes"/>
      <point x="759" y="301" type="line"/>
      <point x="822" y="312"/>
      <point x="876" y="328"/>
      <point x="919" y="348" type="curve"/>
      <point x="925" y="347"/>
      <point x="930" y="346"/>
      <point x="934" y="346" type="curve" smooth="yes"/>
      <point x="946" y="346"/>
      <point x="953" y="351"/>
      <point x="957" y="359" type="curve"/>
      <point x="887" y="419" type="line"/>
      <point x="855" y="381"/>
      <point x="809" y="347"/>
      <point x="759" y="324" type="curve"/>
      <point x="759" y="626" type="line"/>
      <point x="784" y="630"/>
      <point x="794" y="641"/>
      <point x="796" y="654" type="curve"/>
      <point x="692" y="666" type="line"/>
      <point x="692" y="-37" type="line" smooth="yes"/>
      <point x="692" y="-81"/>
      <point x="703" y="-101"/>
    </contour>
    <contour>
      <point x="361" y="579" type="line"/>
      <point x="654" y="579" type="line" smooth="yes"/>
      <point x="668" y="579"/>
      <point x="676" y="583"/>
      <point x="679" y="594" type="curve"/>
      <point x="651" y="619"/>
      <point x="619" y="645"/>
      <point x="593" y="665" type="curve"/>
      <point x="554" y="607" type="line"/>
      <point x="353" y="607" type="line"/>
    </contour>
    <contour>
      <point x="57" y="714" type="line"/>
      <point x="926" y="714" type="line" smooth="yes"/>
      <point x="940" y="714"/>
      <point x="948" y="718"/>
      <point x="951" y="729" type="curve"/>
      <point x="920" y="756"/>
      <point x="885" y="784"/>
      <point x="857" y="805" type="curve"/>
      <point x="814" y="742" type="line"/>
      <point x="49" y="742" type="line"/>
    </contour>
  </outline>
</glyph>
<glyph name="u1701A" format="2">
  <advance width="1000"/>
  <unicode hex="1701A"/>
  <outline>
    <contour>
      <point x="72" y="-101" type="line"/>
      <point x="82" y="-101" type="line" smooth="yes"/>
      <point x="103" y="-101"/>
      <point x="136" y="-86"/>
      <point x="137" y="-80" type="curve"/>
      <point x="137" y="576" type="line"/>
      <point x="489" y="576" type="line" smooth="yes"/>
      <point x="503" y="576"/>
      <point x="511" y="580"/>
      <point x="514" y="590" type="curve"/>
      <point x="518" y="576" type="line"/>
      <point x="549" y="576" type="line"/>
      <point x="549" y="-25" type="line" smooth="yes"/>
      <point x="549" y="-81"/>
      <point x="570" y="-101"/>
      <point x="649" y="-101" type="curve" smooth="yes"/>
      <point x="763" y="-101" type="line" smooth="yes"/>
      <point x="927" y="-101"/>
      <point x="973" y="-87"/>
      <point x="973" y="-55" type="curve" smooth="yes"/>
      <point x="973" y="-40"/>
      <point x="963" y="-32"/>
      <point x="938" y="-25" type="curve"/>
      <point x="937" y="126" type="line"/>
      <point x="924" y="126" type="line"/>
      <point x="912" y="76"/>
      <point x="894" y="17"/>
      <point x="877" y="-16" type="curve" smooth="yes"/>
      <point x="872" y="-28"/>
      <point x="865" y="-34"/>
      <point x="852" y="-37" type="curve" smooth="yes"/>
      <point x="838" y="-40"/>
      <point x="799" y="-40"/>
      <point x="759" y="-40" type="curve" smooth="yes"/>
      <point x="662" y="-40" type="line" smooth="yes"/>
      <point x="623" y="-40"/>
      <point x="616" y="-30"/>
      <point x="616" y="-8" type="curve" smooth="yes"/>
      <point x="616" y="101" type="line"/>
      <point x="870" y="101" type="line" smooth="yes"/>
      <point x="884" y="101"/>
      <point x="892" y="105"/>
      <point x="895" y="116" type="curve"/>
      <point x="865" y="142"/>
      <point x="832" y="169"/>
      <point x="805" y="189" type="curve"/>
      <point x="763" y="129" type="line"/>
      <point x="616" y="129" type="line"/>
      <point x="616" y="271" type="line"/>
      <point x="855" y="271" type="line" smooth="yes"/>
      <point x="869" y="271"/>
      <point x="877" y="275"/>
      <point x="880" y="286" type="curve"/>
      <point x="852" y="311"/>
      <point x="820" y="336"/>
      <point x="794" y="356" type="curve"/>
      <point x="754" y="299" type="line"/>
      <point x="616" y="299" type="line"/>
      <point x="616" y="421" type="line"/>
      <point x="847" y="421" type="line" smooth="yes"/>
      <point x="861" y="421"/>
      <point x="869" y="425"/>
      <point x="872" y="436" type="curve"/>
      <point x="844" y="460"/>
      <point x="812" y="486"/>
      <point x="786" y="506" type="curve"/>
      <point x="747" y="449" type="line"/>
      <point x="616" y="449" type="line"/>
      <point x="616" y="576" type="line"/>
      <point x="902" y="576" type="line" smooth="yes"/>
      <point x="916" y="576"/>
      <point x="924" y="580"/>
      <point x="927" y="591" type="curve"/>
      <point x="897" y="617"/>
      <point x="863" y="645"/>
      <point x="836" y="665" type="curve"/>
      <point x="794" y="604" type="line"/>
      <point x="510" y="604" type="line"/>
      <point x="514" y="591" type="line"/>
      <point x="483" y="618"/>
      <point x="448" y="646"/>
      <point x="420" y="667" type="curve"/>
      <point x="377" y="605" type="line"/>
      <point x="149" y="605" type="line"/>
      <point x="72" y="639" type="line"/>
    </contour>
    <contour>
      <point x="162" y="-101" type="line"/>
      <point x="226" y="-67"/>
      <point x="289" y="-17"/>
      <point x="342" y="41" type="curve"/>
      <point x="376" y="-2"/>
      <point x="405" y="-50"/>
      <point x="423" y="-95" type="curve"/>
      <point x="432" y="-99"/>
      <point x="440" y="-101"/>
      <point x="448" y="-101" type="curve" smooth="yes"/>
      <point x="468" y="-101"/>
      <point x="482" y="-88"/>
      <point x="482" y="-64" type="curve" smooth="yes"/>
      <point x="482" y="-31"/>
      <point x="455" y="22"/>
      <point x="379" y="85" type="curve"/>
      <point x="417" y="133"/>
      <point x="447" y="185"/>
      <point x="466" y="236" type="curve"/>
      <point x="480" y="237"/>
      <point x="489" y="240"/>
      <point x="497" y="249" type="curve"/>
      <point x="417" y="304" type="line"/>
      <point x="389" y="271" type="line"/>
      <point x="212" y="271" type="line"/>
      <point x="299" y="323"/>
      <point x="384" y="397"/>
      <point x="436" y="464" type="curve"/>
      <point x="455" y="465"/>
      <point x="464" y="468"/>
      <point x="472" y="477" type="curve"/>
      <point x="385" y="541" type="line"/>
      <point x="354" y="500" type="line"/>
      <point x="161" y="500" type="line"/>
      <point x="169" y="473" type="line"/>
      <point x="351" y="473" type="line"/>
      <point x="317" y="397"/>
      <point x="245" y="337"/>
      <point x="188" y="288" type="curve" smooth="yes"/>
      <point x="181" y="282"/>
      <point x="172" y="281"/>
      <point x="163" y="280" type="curve"/>
      <point x="197" y="200" type="line"/>
      <point x="206" y="203"/>
      <point x="215" y="211"/>
      <point x="222" y="223" type="curve"/>
      <point x="284" y="232"/>
      <point x="337" y="241"/>
      <point x="390" y="249" type="curve"/>
      <point x="376" y="206"/>
      <point x="355" y="162"/>
      <point x="330" y="120" type="curve"/>
      <point x="285" y="149"/>
      <point x="236" y="176"/>
      <point x="189" y="197" type="curve"/>
      <point x="178" y="187" type="line"/>
      <point x="224" y="157"/>
      <point x="268" y="117"/>
      <point x="305" y="82" type="curve"/>
      <point x="259" y="14"/>
      <point x="202" y="-44"/>
      <point x="148" y="-81" type="curve"/>
    </contour>
    <contour>
      <point x="57" y="712" type="line"/>
      <point x="925" y="712" type="line" smooth="yes"/>
      <point x="939" y="712"/>
      <point x="947" y="716"/>
      <point x="950" y="727" type="curve"/>
      <point x="919" y="754"/>
      <point x="884" y="782"/>
      <point x="856" y="803" type="curve"/>
      <point x="813" y="740" type="line"/>
      <point x="49" y="740" type="line"/>
    </contour>
  </outline>
</glyph>
<glyph name="u1701B" format="2">
  <advance width="1000"/>
  <unicode hex="1701B"/>
  <outline>
    <contour>
      <point x="75" y="-100" type="line"/>
      <point x="85" y="-100" type="line" smooth="yes"/>
      <point x="106" y="-100"/>
      <point x="139" y="-85"/>
      <point x="140" y="-79" type="curve"/>
      <point x="140" y="96" type="line"/>
      <point x="338" y="96" type="line"/>
      <point x="338" y="-100" type="line"/>
      <point x="348" y="-100" type="line" smooth="yes"/>
      <point x="369" y="-100"/>
      <point x="394" y="-90"/>
      <point x="403" y="-79" type="curve"/>
      <point x="403" y="96" type="line"/>
      <point x="486" y="96" type="line" smooth="yes"/>
      <point x="500" y="96"/>
      <point x="508" y="100"/>
      <point x="511" y="111" type="curve"/>
      <point x="490" y="130"/>
      <point x="465" y="151"/>
      <point x="443" y="168" type="curve"/>
      <point x="412" y="124" type="line"/>
      <point x="403" y="124" type="line"/>
      <point x="403" y="258" type="line"/>
      <point x="479" y="258" type="line" smooth="yes"/>
      <point x="493" y="258"/>
      <point x="501" y="262"/>
      <point x="504" y="273" type="curve"/>
      <point x="483" y="292"/>
      <point x="459" y="313"/>
      <point x="437" y="330" type="curve"/>
      <point x="406" y="286" type="line"/>
      <point x="403" y="286" type="line"/>
      <point x="403" y="394" type="line"/>
      <point x="423" y="398"/>
      <point x="439" y="406"/>
      <point x="446" y="414" type="curve"/>
      <point x="364" y="476" type="line"/>
      <point x="328" y="435" type="line"/>
      <point x="140" y="435" type="line"/>
      <point x="140" y="532" type="line"/>
      <point x="435" y="532" type="line" smooth="yes"/>
      <point x="449" y="532"/>
      <point x="457" y="536"/>
      <point x="460" y="547" type="curve"/>
      <point x="433" y="571"/>
      <point x="401" y="597"/>
      <point x="375" y="617" type="curve"/>
      <point x="336" y="560" type="line"/>
      <point x="140" y="560" type="line"/>
      <point x="140" y="651" type="line"/>
      <point x="164" y="655"/>
      <point x="173" y="665"/>
      <point x="176" y="679" type="curve"/>
      <point x="75" y="690" type="line"/>
    </contour>
    <contour>
      <point x="140" y="124" type="line"/>
      <point x="140" y="258" type="line"/>
      <point x="338" y="258" type="line"/>
      <point x="338" y="124" type="line"/>
    </contour>
    <contour>
      <point x="140" y="286" type="line"/>
      <point x="140" y="407" type="line"/>
      <point x="338" y="407" type="line"/>
      <point x="338" y="286" type="line"/>
    </contour>
    <contour>
      <point x="523" y="-101" type="line"/>
      <point x="533" y="-101" type="line" smooth="yes"/>
      <point x="554" y="-101"/>
      <point x="587" y="-86"/>
      <point x="588" y="-80" type="curve"/>
      <point x="588" y="272" type="line"/>
      <point x="811" y="272" type="line"/>
      <point x="811" y="-98" type="line"/>
      <point x="821" y="-98" type="line" smooth="yes"/>
      <point x="842" y="-98"/>
      <point x="875" y="-83"/>
      <point x="876" y="-77" type="curve"/>
      <point x="876" y="261" type="line"/>
      <point x="895" y="265"/>
      <point x="910" y="273"/>
      <point x="917" y="280" type="curve"/>
      <point x="836" y="341" type="line"/>
      <point x="800" y="302" type="line"/>
      <point x="599" y="302" type="line"/>
      <point x="523" y="335" type="line"/>
    </contour>
    <contour>
      <point x="819" y="342" type="line"/>
      <point x="830" y="342" type="line" smooth="yes"/>
      <point x="853" y="342"/>
      <point x="886" y="360"/>
      <point x="887" y="367" type="curve"/>
      <point x="887" y="505" type="line"/>
      <point x="906" y="509"/>
      <point x="922" y="516"/>
      <point x="928" y="524" type="curve"/>
      <point x="848" y="588" type="line"/>
      <point x="809" y="546" type="line"/>
      <point x="513" y="546" type="line"/>
      <point x="522" y="516" type="line"/>
      <point x="819" y="516" type="line"/>
      <point x="819" y="407" type="line"/>
      <point x="508" y="407" type="line"/>
      <point x="517" y="377" type="line"/>
      <point x="819" y="377" type="line"/>
    </contour>
    <contour>
      <point x="54" y="714" type="line"/>
      <point x="922" y="714" type="line" smooth="yes"/>
      <point x="936" y="714"/>
      <point x="944" y="718"/>
      <point x="947" y="729" type="curve"/>
      <point x="916" y="756"/>
      <point x="881" y="784"/>
      <point x="853" y="805" type="curve"/>
      <point x="810" y="742" type="line"/>
      <point x="46" y="742" type="line"/>
    </contour>
    <contour>
      <point x="502" y="613" type="line"/>
      <point x="911" y="613" type="line" smooth="yes"/>
      <point x="925" y="613"/>
      <point x="933" y="617"/>
      <point x="936" y="628" type="curve"/>
      <point x="909" y="652"/>
      <point x="878" y="677"/>
      <point x="853" y="696" type="curve"/>
      <point x="815" y="641" type="line"/>
      <point x="494" y="641" type="line"/>
    </contour>
  </outline>
</glyph>
<glyph name="u1701C" format="2">
  <advance width="1000"/>
  <unicode hex="1701C"/>
  <outline>
    <contour>
      <point x="92" y="-100" type="line"/>
      <point x="102" y="-100" type="line" smooth="yes"/>
      <point x="123" y="-100"/>
      <point x="156" y="-85"/>
      <point x="157" y="-79" type="curve"/>
      <point x="157" y="98" type="line"/>
      <point x="349" y="98" type="line"/>
      <point x="349" y="-100" type="line"/>
      <point x="359" y="-100" type="line" smooth="yes"/>
      <point x="380" y="-100"/>
      <point x="405" y="-90"/>
      <point x="414" y="-79" type="curve"/>
      <point x="414" y="98" type="line"/>
      <point x="494" y="98" type="line" smooth="yes"/>
      <point x="508" y="98"/>
      <point x="516" y="102"/>
      <point x="519" y="113" type="curve"/>
      <point x="500" y="131"/>
      <point x="477" y="151"/>
      <point x="455" y="168" type="curve"/>
      <point x="426" y="126" type="line"/>
      <point x="414" y="126" type="line"/>
      <point x="414" y="252" type="line"/>
      <point x="489" y="252" type="line" smooth="yes"/>
      <point x="502" y="252"/>
      <point x="510" y="256"/>
      <point x="513" y="267" type="curve"/>
      <point x="495" y="283"/>
      <point x="473" y="303"/>
      <point x="453" y="319" type="curve"/>
      <point x="426" y="280" type="line"/>
      <point x="414" y="280" type="line"/>
      <point x="414" y="380" type="line"/>
      <point x="434" y="384"/>
      <point x="450" y="392"/>
      <point x="457" y="400" type="curve"/>
      <point x="375" y="462" type="line"/>
      <point x="339" y="421" type="line"/>
      <point x="157" y="421" type="line"/>
      <point x="157" y="529" type="line"/>
      <point x="440" y="529" type="line" smooth="yes"/>
      <point x="454" y="529"/>
      <point x="462" y="533"/>
      <point x="465" y="544" type="curve"/>
      <point x="438" y="568"/>
      <point x="407" y="593"/>
      <point x="382" y="613" type="curve"/>
      <point x="343" y="557" type="line"/>
      <point x="157" y="557" type="line"/>
      <point x="157" y="651" type="line"/>
      <point x="181" y="655"/>
      <point x="190" y="665"/>
      <point x="193" y="679" type="curve"/>
      <point x="92" y="690" type="line"/>
    </contour>
    <contour>
      <point x="157" y="126" type="line"/>
      <point x="157" y="252" type="line"/>
      <point x="349" y="252" type="line"/>
      <point x="349" y="126" type="line"/>
    </contour>
    <contour>
      <point x="157" y="280" type="line"/>
      <point x="157" y="393" type="line"/>
      <point x="349" y="393" type="line"/>
      <point x="349" y="280" type="line"/>
    </contour>
    <contour>
      <point x="533" y="-101" type="line"/>
      <point x="543" y="-101" type="line" smooth="yes"/>
      <point x="564" y="-101"/>
      <point x="595" y="-86"/>
      <point x="596" y="-80" type="curve"/>
      <point x="596" y="322" type="line"/>
      <point x="804" y="322" type="line"/>
      <point x="804" y="-98" type="line"/>
      <point x="814" y="-98" type="line" smooth="yes"/>
      <point x="835" y="-98"/>
      <point x="866" y="-83"/>
      <point x="867" y="-77" type="curve"/>
      <point x="867" y="311" type="line"/>
      <point x="886" y="315"/>
      <point x="901" y="323"/>
      <point x="908" y="330" type="curve"/>
      <point x="828" y="391" type="line"/>
      <point x="793" y="352" type="line"/>
      <point x="607" y="352" type="line"/>
      <point x="533" y="385" type="line"/>
    </contour>
    <contour>
      <point x="556" y="461" type="line"/>
      <point x="588" y="473"/>
      <point x="620" y="485"/>
      <point x="652" y="498" type="curve"/>
      <point x="656" y="494"/>
      <point x="659" y="489"/>
      <point x="662" y="485" type="curve" smooth="yes"/>
      <point x="667" y="478"/>
      <point x="671" y="469"/>
      <point x="675" y="461" type="curve"/>
    </contour>
    <contour>
      <point x="862" y="381" type="curve"/>
      <point x="873" y="371"/>
      <point x="885" y="366"/>
      <point x="897" y="366" type="curve" smooth="yes"/>
      <point x="916" y="366"/>
      <point x="931" y="380"/>
      <point x="931" y="401" type="curve" smooth="yes"/>
      <point x="931" y="421"/>
      <point x="918" y="448"/>
      <point x="882" y="478" type="curve" smooth="yes"/>
      <point x="853" y="502"/>
      <point x="813" y="523"/>
      <point x="779" y="537" type="curve"/>
      <point x="769" y="527" type="line"/>
      <point x="791" y="508"/>
      <point x="812" y="484"/>
      <point x="827" y="462" type="curve"/>
      <point x="827" y="462"/>
      <point x="827" y="461"/>
      <point x="828" y="461" type="curve" smooth="yes"/>
      <point x="740" y="461" type="line"/>
      <point x="737" y="471"/>
      <point x="727" y="484"/>
      <point x="709" y="497" type="curve" smooth="yes"/>
      <point x="702" y="502"/>
      <point x="694" y="507"/>
      <point x="686" y="511" type="curve"/>
      <point x="744" y="535"/>
      <point x="801" y="561"/>
      <point x="857" y="588" type="curve"/>
      <point x="880" y="589"/>
      <point x="889" y="593"/>
      <point x="897" y="602" type="curve"/>
      <point x="797" y="672" type="line"/>
      <point x="769" y="636" type="line"/>
      <point x="500" y="637" type="line"/>
      <point x="508" y="609" type="line"/>
      <point x="772" y="609" type="line"/>
      <point x="696" y="558"/>
      <point x="600" y="510"/>
      <point x="517" y="472" type="curve" smooth="yes"/>
      <point x="506" y="467"/>
      <point x="496" y="463"/>
      <point x="485" y="462" type="curve"/>
      <point x="519" y="388" type="line"/>
      <point x="528" y="391"/>
      <point x="537" y="399"/>
      <point x="544" y="411" type="curve"/>
      <point x="642" y="419"/>
      <point x="737" y="428"/>
      <point x="840" y="439" type="curve"/>
      <point x="850" y="420"/>
      <point x="858" y="399"/>
    </contour>
    <contour>
      <point x="66" y="714" type="line"/>
      <point x="903" y="714" type="line" smooth="yes"/>
      <point x="917" y="714"/>
      <point x="925" y="718"/>
      <point x="928" y="729" type="curve"/>
      <point x="897" y="756"/>
      <point x="862" y="784"/>
      <point x="834" y="805" type="curve"/>
      <point x="791" y="742" type="line"/>
      <point x="58" y="742" type="line"/>
    </contour>
  </outline>
</glyph>
<glyph name="u1701D" format="2">
  <advance width="1000"/>
  <unicode hex="1701D"/>
  <outline>
    <contour>
      <point x="270" y="-102" type="line"/>
      <point x="374" y="-30"/>
      <point x="445" y="45"/>
      <point x="497" y="127" type="curve"/>
      <point x="530" y="56"/>
      <point x="555" y="-21"/>
      <point x="563" y="-91" type="curve"/>
      <point x="572" y="-97"/>
      <point x="580" y="-101"/>
      <point x="588" y="-101" type="curve" smooth="yes"/>
      <point x="608" y="-101"/>
      <point x="624" y="-80"/>
      <point x="624" y="-41" type="curve" smooth="yes"/>
      <point x="624" y="5"/>
      <point x="601" y="78"/>
      <point x="536" y="171" type="curve"/>
      <point x="533" y="174"/>
      <point x="531" y="178"/>
      <point x="528" y="181" type="curve"/>
      <point x="552" y="226"/>
      <point x="570" y="273"/>
      <point x="586" y="323" type="curve"/>
      <point x="591" y="322"/>
      <point x="596" y="322"/>
      <point x="600" y="322" type="curve" smooth="yes"/>
      <point x="614" y="322"/>
      <point x="620" y="327"/>
      <point x="624" y="336" type="curve"/>
      <point x="534" y="372" type="line"/>
      <point x="522" y="322"/>
      <point x="506" y="275"/>
      <point x="488" y="231" type="curve"/>
      <point x="457" y="266"/>
      <point x="424" y="300"/>
      <point x="390" y="330" type="curve"/>
      <point x="482" y="419"/>
      <point x="528" y="512"/>
      <point x="558" y="619" type="curve"/>
      <point x="582" y="616"/>
      <point x="591" y="621"/>
      <point x="596" y="633" type="curve"/>
      <point x="498" y="668" type="line"/>
      <point x="477" y="543"/>
      <point x="432" y="429"/>
      <point x="363" y="335" type="curve"/>
      <point x="352" y="354"/>
      <point x="327" y="378"/>
      <point x="285" y="402" type="curve"/>
      <point x="299" y="424"/>
      <point x="312" y="446"/>
      <point x="323" y="469" type="curve"/>
      <point x="328" y="468"/>
      <point x="333" y="468"/>
      <point x="337" y="468" type="curve" smooth="yes"/>
      <point x="350" y="468"/>
      <point x="357" y="473"/>
      <point x="361" y="481" type="curve"/>
      <point x="276" y="523" type="line"/>
      <point x="264" y="489"/>
      <point x="250" y="457"/>
      <point x="234" y="427" type="curve"/>
      <point x="206" y="439"/>
      <point x="176" y="449"/>
      <point x="147" y="458" type="curve"/>
      <point x="202" y="508"/>
      <point x="240" y="562"/>
      <point x="270" y="622" type="curve"/>
      <point x="275" y="621"/>
      <point x="280" y="621"/>
      <point x="284" y="621" type="curve" smooth="yes"/>
      <point x="297" y="621"/>
      <point x="304" y="626"/>
      <point x="308" y="634" type="curve"/>
      <point x="218" y="677" type="line"/>
      <point x="182" y="563"/>
      <point x="116" y="465"/>
      <point x="29" y="392" type="curve"/>
      <point x="41" y="381" type="line"/>
      <point x="75" y="401"/>
      <point x="105" y="422"/>
      <point x="131" y="444" type="curve"/>
      <point x="159" y="429"/>
      <point x="188" y="411"/>
      <point x="214" y="394" type="curve"/>
      <point x="167" y="318"/>
      <point x="105" y="254"/>
      <point x="32" y="202" type="curve"/>
      <point x="44" y="191" type="line"/>
      <point x="137" y="242"/>
      <point x="205" y="298"/>
      <point x="255" y="362" type="curve"/>
      <point x="281" y="339"/>
      <point x="304" y="313"/>
      <point x="321" y="287" type="curve"/>
      <point x="328" y="285"/>
      <point x="335" y="284"/>
      <point x="340" y="284" type="curve" smooth="yes"/>
      <point x="360" y="284"/>
      <point x="373" y="295"/>
      <point x="371" y="313" type="curve"/>
      <point x="373" y="314"/>
      <point x="375" y="316"/>
      <point x="377" y="318" type="curve"/>
      <point x="411" y="277"/>
      <point x="443" y="230"/>
      <point x="467" y="185" type="curve"/>
      <point x="435" y="118"/>
      <point x="395" y="57"/>
      <point x="348" y="2" type="curve"/>
      <point x="352" y="27"/>
      <point x="336" y="70"/>
      <point x="281" y="121" type="curve"/>
      <point x="302" y="155"/>
      <point x="320" y="190"/>
      <point x="335" y="227" type="curve"/>
      <point x="340" y="226"/>
      <point x="345" y="225"/>
      <point x="349" y="225" type="curve" smooth="yes"/>
      <point x="362" y="225"/>
      <point x="368" y="231"/>
      <point x="373" y="239" type="curve"/>
      <point x="289" y="279" type="line"/>
      <point x="276" y="234"/>
      <point x="259" y="193"/>
      <point x="239" y="155" type="curve"/>
      <point x="203" y="180"/>
      <point x="163" y="204"/>
      <point x="126" y="222" type="curve"/>
      <point x="115" y="212" type="line"/>
      <point x="152" y="184"/>
      <point x="190" y="149"/>
      <point x="216" y="117" type="curve" smooth="yes"/>
      <point x="217" y="116" type="line"/>
      <point x="167" y="33"/>
      <point x="101" y="-34"/>
      <point x="24" y="-90" type="curve"/>
      <point x="36" y="-101" type="line"/>
      <point x="130" y="-49"/>
      <point x="197" y="10"/>
      <point x="248" y="75" type="curve"/>
      <point x="267" y="46"/>
      <point x="282" y="15"/>
      <point x="292" y="-15" type="curve"/>
      <point x="302" y="-21"/>
      <point x="311" y="-25"/>
      <point x="319" y="-25" type="curve" smooth="yes"/>
      <point x="321" y="-25"/>
      <point x="323" y="-24"/>
      <point x="325" y="-24" type="curve"/>
      <point x="304" y="-47"/>
      <point x="281" y="-70"/>
      <point x="257" y="-91" type="curve"/>
    </contour>
    <contour>
      <point x="731" y="-101" type="curve" smooth="yes"/>
      <point x="804" y="-101" type="line" smooth="yes"/>
      <point x="920" y="-101"/>
      <point x="962" y="-85"/>
      <point x="962" y="-57" type="curve" smooth="yes"/>
      <point x="962" y="-42"/>
      <point x="952" y="-35"/>
      <point x="928" y="-28" type="curve"/>
      <point x="927" y="157" type="line"/>
      <point x="914" y="157" type="line"/>
      <point x="903" y="96"/>
      <point x="884" y="17"/>
      <point x="868" y="-19" type="curve" smooth="yes"/>
      <point x="864" y="-30"/>
      <point x="857" y="-37"/>
      <point x="848" y="-40" type="curve" smooth="yes"/>
      <point x="839" y="-42"/>
      <point x="819" y="-42"/>
      <point x="798" y="-42" type="curve" smooth="yes"/>
      <point x="749" y="-42" type="line" smooth="yes"/>
      <point x="725" y="-42"/>
      <point x="721" y="-33"/>
      <point x="721" y="-17" type="curve" smooth="yes"/>
      <point x="721" y="300" type="line"/>
      <point x="794" y="313"/>
      <point x="856" y="330"/>
      <point x="906" y="354" type="curve"/>
      <point x="912" y="353"/>
      <point x="917" y="352"/>
      <point x="921" y="352" type="curve" smooth="yes"/>
      <point x="933" y="352"/>
      <point x="940" y="357"/>
      <point x="944" y="365" type="curve"/>
      <point x="872" y="425" type="line"/>
      <point x="835" y="382"/>
      <point x="781" y="347"/>
      <point x="721" y="322" type="curve"/>
      <point x="721" y="627" type="line"/>
      <point x="746" y="631"/>
      <point x="756" y="642"/>
      <point x="758" y="655" type="curve"/>
      <point x="654" y="667" type="line"/>
      <point x="654" y="-35" type="line" smooth="yes"/>
      <point x="654" y="-82"/>
      <point x="667" y="-101"/>
    </contour>
    <contour>
      <point x="58" y="714" type="line"/>
      <point x="920" y="714" type="line" smooth="yes"/>
      <point x="934" y="714"/>
      <point x="942" y="718"/>
      <point x="945" y="729" type="curve"/>
      <point x="914" y="756"/>
      <point x="879" y="784"/>
      <point x="851" y="805" type="curve"/>
      <point x="808" y="742" type="line"/>
      <point x="50" y="742" type="line"/>
    </contour>
  </outline>
</glyph>
<glyph name="u1701E" format="2">
  <advance width="1000"/>
  <unicode hex="1701E"/>
  <outline>
    <contour>
      <point x="331" y="-101" type="line"/>
      <point x="341" y="-101" type="line" smooth="yes"/>
      <point x="362" y="-101"/>
      <point x="395" y="-86"/>
      <point x="396" y="-80" type="curve"/>
      <point x="396" y="329" type="line"/>
      <point x="486" y="329" type="line" smooth="yes"/>
      <point x="499" y="329"/>
      <point x="507" y="333"/>
      <point x="510" y="344" type="curve"/>
      <point x="490" y="363"/>
      <point x="466" y="384"/>
      <point x="444" y="401" type="curve"/>
      <point x="413" y="357" type="line"/>
      <point x="396" y="357" type="line"/>
      <point x="396" y="495" type="line"/>
      <point x="420" y="499"/>
      <point x="429" y="509"/>
      <point x="432" y="523" type="curve"/>
      <point x="368" y="530" type="line"/>
      <point x="398" y="559"/>
      <point x="425" y="591"/>
      <point x="448" y="624" type="curve"/>
      <point x="454" y="623"/>
      <point x="459" y="622"/>
      <point x="463" y="622" type="curve" smooth="yes"/>
      <point x="475" y="622"/>
      <point x="482" y="627"/>
      <point x="486" y="635" type="curve"/>
      <point x="403" y="682" type="line"/>
      <point x="329" y="535"/>
      <point x="197" y="428"/>
      <point x="45" y="357" type="curve"/>
      <point x="55" y="345" type="line"/>
      <point x="171" y="387"/>
      <point x="260" y="437"/>
      <point x="331" y="496" type="curve"/>
      <point x="331" y="357" type="line"/>
      <point x="136" y="357" type="line"/>
      <point x="144" y="329" type="line"/>
      <point x="331" y="329" type="line"/>
    </contour>
    <contour>
      <point x="104" y="-99" type="line"/>
      <point x="114" y="-93"/>
      <point x="124" y="-83"/>
      <point x="127" y="-72" type="curve"/>
      <point x="189" y="-42"/>
      <point x="246" y="-12"/>
      <point x="301" y="18" type="curve"/>
      <point x="294" y="39" type="line"/>
      <point x="250" y="22"/>
      <point x="208" y="8"/>
      <point x="158" y="-7" type="curve"/>
      <point x="130" y="180" type="line"/>
      <point x="180" y="196"/>
      <point x="221" y="210"/>
      <point x="265" y="225" type="curve"/>
      <point x="277" y="220"/>
      <point x="287" y="218"/>
      <point x="295" y="218" type="curve" smooth="yes"/>
      <point x="303" y="218"/>
      <point x="309" y="220"/>
      <point x="314" y="224" type="curve"/>
      <point x="237" y="290" type="line"/>
      <point x="206" y="263"/>
      <point x="173" y="236"/>
      <point x="135" y="212" type="curve"/>
      <point x="62" y="208" type="line"/>
      <point x="92" y="5" type="line" smooth="yes"/>
      <point x="95" y="-16"/>
      <point x="86" y="-33"/>
      <point x="69" y="-44" type="curve"/>
    </contour>
    <contour>
      <point x="162" y="534" type="curve"/>
      <point x="173" y="523"/>
      <point x="186" y="518"/>
      <point x="198" y="518" type="curve" smooth="yes"/>
      <point x="218" y="518"/>
      <point x="234" y="531"/>
      <point x="234" y="553" type="curve" smooth="yes"/>
      <point x="234" y="571"/>
      <point x="222" y="595"/>
      <point x="191" y="621" type="curve" smooth="yes"/>
      <point x="163" y="644"/>
      <point x="126" y="664"/>
      <point x="94" y="677" type="curve"/>
      <point x="84" y="667" type="line"/>
      <point x="103" y="649"/>
      <point x="122" y="627"/>
      <point x="134" y="607" type="curve" smooth="yes"/>
      <point x="147" y="585"/>
      <point x="158" y="557"/>
    </contour>
    <contour>
      <point x="584" y="123" type="line"/>
      <point x="584" y="276" type="line"/>
      <point x="801" y="276" type="line"/>
      <point x="801" y="123" type="line"/>
    </contour>
    <contour>
      <point x="519" y="-101" type="line"/>
      <point x="529" y="-101" type="line" smooth="yes"/>
      <point x="550" y="-101"/>
      <point x="583" y="-86"/>
      <point x="584" y="-80" type="curve"/>
      <point x="584" y="95" type="line"/>
      <point x="801" y="95" type="line"/>
      <point x="801" y="-98" type="line"/>
      <point x="811" y="-98" type="line" smooth="yes"/>
      <point x="832" y="-98"/>
      <point x="865" y="-83"/>
      <point x="866" y="-77" type="curve"/>
      <point x="866" y="95" type="line"/>
      <point x="953" y="95" type="line" smooth="yes"/>
      <point x="967" y="95"/>
      <point x="975" y="99"/>
      <point x="978" y="110" type="curve"/>
      <point x="957" y="129"/>
      <point x="933" y="150"/>
      <point x="911" y="167" type="curve"/>
      <point x="879" y="123" type="line"/>
      <point x="866" y="123" type="line"/>
      <point x="866" y="276" type="line"/>
      <point x="945" y="276" type="line" smooth="yes"/>
      <point x="959" y="276"/>
      <point x="967" y="280"/>
      <point x="970" y="291" type="curve"/>
      <point x="950" y="309"/>
      <point x="925" y="330"/>
      <point x="904" y="347" type="curve"/>
      <point x="873" y="304" type="line"/>
      <point x="866" y="304" type="line"/>
      <point x="866" y="437" type="line"/>
      <point x="938" y="437" type="line" smooth="yes"/>
      <point x="951" y="437"/>
      <point x="959" y="441"/>
      <point x="962" y="452" type="curve"/>
      <point x="944" y="469"/>
      <point x="922" y="488"/>
      <point x="901" y="505" type="curve"/>
      <point x="873" y="465" type="line"/>
      <point x="866" y="465" type="line"/>
      <point x="866" y="580" type="line"/>
      <point x="885" y="584"/>
      <point x="900" y="592"/>
      <point x="907" y="599" type="curve"/>
      <point x="826" y="660" type="line"/>
      <point x="790" y="621" type="line"/>
      <point x="595" y="621" type="line"/>
      <point x="519" y="654" type="line"/>
    </contour>
    <contour>
      <point x="584" y="304" type="line"/>
      <point x="584" y="437" type="line"/>
      <point x="801" y="437" type="line"/>
      <point x="801" y="304" type="line"/>
    </contour>
    <contour>
      <point x="584" y="465" type="line"/>
      <point x="584" y="591" type="line"/>
      <point x="801" y="591" type="line"/>
      <point x="801" y="465" type="line"/>
    </contour>
    <contour>
      <point x="61" y="713" type="line"/>
      <point x="914" y="713" type="line" smooth="yes"/>
      <point x="928" y="713"/>
      <point x="936" y="717"/>
      <point x="939" y="728" type="curve"/>
      <point x="908" y="755"/>
      <point x="873" y="783"/>
      <point x="845" y="804" type="curve"/>
      <point x="802" y="741" type="line"/>
      <point x="53" y="741" type="line"/>
    </contour>
  </outline>
</glyph>
<glyph name="u1701F" format="2">
  <advance width="1000"/>
  <unicode hex="1701F"/>
  <outline>
    <contour>
      <point x="441" y="-101" type="line"/>
      <point x="451" y="-101" type="line" smooth="yes"/>
      <point x="472" y="-101"/>
      <point x="505" y="-86"/>
      <point x="506" y="-80" type="curve"/>
      <point x="506" y="354" type="line"/>
      <point x="921" y="354" type="line" smooth="yes"/>
      <point x="935" y="354"/>
      <point x="943" y="358"/>
      <point x="946" y="369" type="curve"/>
      <point x="932" y="381"/>
      <point x="918" y="393"/>
      <point x="904" y="404" type="curve"/>
      <point x="908" y="409"/>
      <point x="911" y="415"/>
      <point x="911" y="423" type="curve" smooth="yes"/>
      <point x="911" y="444"/>
      <point x="891" y="476"/>
      <point x="835" y="508" type="curve" smooth="yes"/>
      <point x="796" y="531"/>
      <point x="746" y="548"/>
      <point x="705" y="558" type="curve"/>
      <point x="695" y="548" type="line"/>
      <point x="726" y="531"/>
      <point x="758" y="508"/>
      <point x="782" y="488" type="curve"/>
      <point x="784" y="487"/>
      <point x="785" y="485"/>
      <point x="787" y="484" type="curve"/>
      <point x="542" y="484" type="line"/>
      <point x="539" y="492"/>
      <point x="532" y="501"/>
      <point x="517" y="512" type="curve" smooth="yes"/>
      <point x="509" y="518"/>
      <point x="499" y="524"/>
      <point x="489" y="528" type="curve"/>
      <point x="609" y="550"/>
      <point x="720" y="574"/>
      <point x="814" y="601" type="curve"/>
      <point x="837" y="602"/>
      <point x="846" y="608"/>
      <point x="854" y="617" type="curve"/>
      <point x="755" y="693" type="line"/>
      <point x="724" y="651" type="line"/>
      <point x="90" y="652" type="line"/>
      <point x="98" y="624" type="line"/>
      <point x="720" y="624" type="line"/>
      <point x="539" y="563"/>
      <point x="302" y="518"/>
      <point x="104" y="493" type="curve"/>
      <point x="98" y="493"/>
      <point x="87" y="494"/>
      <point x="79" y="494" type="curve"/>
      <point x="113" y="416" type="line"/>
      <point x="122" y="419"/>
      <point x="131" y="427"/>
      <point x="138" y="439" type="curve"/>
      <point x="361" y="445"/>
      <point x="573" y="451"/>
      <point x="809" y="461" type="curve"/>
      <point x="819" y="449"/>
      <point x="829" y="436"/>
      <point x="837" y="423" type="curve"/>
      <point x="809" y="383" type="line"/>
      <point x="518" y="383" type="line"/>
      <point x="441" y="417" type="line"/>
    </contour>
    <contour>
      <point x="89" y="-50" type="line"/>
      <point x="99" y="-50" type="line" smooth="yes"/>
      <point x="120" y="-50"/>
      <point x="153" y="-35"/>
      <point x="154" y="-29" type="curve"/>
      <point x="154" y="319" type="line"/>
      <point x="178" y="323"/>
      <point x="187" y="333"/>
      <point x="190" y="347" type="curve"/>
      <point x="89" y="358" type="line"/>
    </contour>
    <contour>
      <point x="294" y="-101" type="line"/>
      <point x="304" y="-101" type="line" smooth="yes"/>
      <point x="325" y="-101"/>
      <point x="358" y="-86"/>
      <point x="359" y="-80" type="curve"/>
      <point x="359" y="357" type="line"/>
      <point x="383" y="361"/>
      <point x="392" y="371"/>
      <point x="395" y="385" type="curve"/>
      <point x="294" y="396" type="line"/>
    </contour>
    <contour>
      <point x="722" y="35" type="curve"/>
      <point x="687" y="55"/>
      <point x="654" y="78"/>
      <point x="624" y="103" type="curve"/>
      <point x="693" y="112"/>
      <point x="749" y="118"/>
      <point x="810" y="126" type="curve"/>
      <point x="787" y="95"/>
      <point x="756" y="64"/>
    </contour>
    <contour>
      <point x="204" y="484" type="line"/>
      <point x="286" y="495"/>
      <point x="368" y="508"/>
      <point x="448" y="521" type="curve"/>
      <point x="455" y="514"/>
      <point x="461" y="507"/>
      <point x="466" y="499" type="curve" smooth="yes"/>
      <point x="475" y="484" type="line"/>
    </contour>
    <contour>
      <point x="891" y="-100" type="curve"/>
      <point x="902" y="-71"/>
      <point x="929" y="-62"/>
      <point x="960" y="-54" type="curve"/>
      <point x="963" y="-43" type="line"/>
      <point x="896" y="-35"/>
      <point x="832" y="-17"/>
      <point x="774" y="9" type="curve"/>
      <point x="821" y="41"/>
      <point x="861" y="76"/>
      <point x="891" y="113" type="curve"/>
      <point x="905" y="114"/>
      <point x="914" y="117"/>
      <point x="922" y="126" type="curve"/>
      <point x="842" y="181" type="line"/>
      <point x="814" y="148" type="line"/>
      <point x="602" y="148" type="line"/>
      <point x="703" y="176"/>
      <point x="797" y="214"/>
      <point x="863" y="259" type="curve"/>
      <point x="882" y="260"/>
      <point x="891" y="263"/>
      <point x="899" y="272" type="curve"/>
      <point x="813" y="335" type="line"/>
      <point x="778" y="295" type="line"/>
      <point x="537" y="295" type="line"/>
      <point x="545" y="268" type="line"/>
      <point x="771" y="268" type="line"/>
      <point x="720" y="221"/>
      <point x="636" y="185"/>
      <point x="565" y="161" type="curve" smooth="yes"/>
      <point x="556" y="158"/>
      <point x="548" y="157"/>
      <point x="540" y="157" type="curve"/>
      <point x="574" y="77" type="line"/>
      <point x="583" y="80"/>
      <point x="591" y="87"/>
      <point x="598" y="99" type="curve"/>
      <point x="625" y="65"/>
      <point x="653" y="34"/>
      <point x="685" y="6" type="curve"/>
      <point x="635" y="-30"/>
      <point x="579" y="-60"/>
      <point x="523" y="-78" type="curve"/>
      <point x="536" y="-99" type="line"/>
      <point x="603" y="-82"/>
      <point x="666" y="-56"/>
      <point x="723" y="-24" type="curve"/>
      <point x="772" y="-59"/>
      <point x="827" y="-85"/>
    </contour>
    <contour>
      <point x="69" y="715" type="line"/>
      <point x="902" y="715" type="line" smooth="yes"/>
      <point x="916" y="715"/>
      <point x="924" y="719"/>
      <point x="927" y="730" type="curve"/>
      <point x="896" y="757"/>
      <point x="861" y="785"/>
      <point x="833" y="806" type="curve"/>
      <point x="790" y="743" type="line"/>
      <point x="61" y="743" type="line"/>
    </contour>
  </outline>
</glyph>
<glyph name="u17020" format="2">
  <advance width="1000"/>
  <unicode hex="17020"/>
  <outline>
    <contour>
      <point x="338" y="-101" type="line"/>
      <point x="348" y="-101" type="line" smooth="yes"/>
      <point x="357" y="-101"/>
      <point x="366" y="-99"/>
      <point x="374" y="-95" type="curve"/>
      <point x="382" y="-101" type="line"/>
      <point x="460" y="-45"/>
      <point x="516" y="13"/>
      <point x="558" y="77" type="curve"/>
      <point x="583" y="22"/>
      <point x="602" y="-37"/>
      <point x="610" y="-90" type="curve"/>
      <point x="618" y="-96"/>
      <point x="627" y="-100"/>
      <point x="635" y="-100" type="curve" smooth="yes"/>
      <point x="654" y="-100"/>
      <point x="669" y="-81"/>
      <point x="669" y="-48" type="curve" smooth="yes"/>
      <point x="669" y="-11"/>
      <point x="650" y="46"/>
      <point x="596" y="117" type="curve"/>
      <point x="593" y="120"/>
      <point x="591" y="123"/>
      <point x="588" y="127" type="curve"/>
      <point x="611" y="168"/>
      <point x="628" y="212"/>
      <point x="643" y="258" type="curve"/>
      <point x="666" y="255"/>
      <point x="676" y="260"/>
      <point x="681" y="271" type="curve"/>
      <point x="590" y="308" type="line"/>
      <point x="579" y="260"/>
      <point x="565" y="215"/>
      <point x="547" y="172" type="curve"/>
      <point x="523" y="197"/>
      <point x="497" y="221"/>
      <point x="470" y="242" type="curve"/>
      <point x="529" y="308"/>
      <point x="562" y="377"/>
      <point x="585" y="455" type="curve"/>
      <point x="609" y="452"/>
      <point x="619" y="458"/>
      <point x="623" y="470" type="curve"/>
      <point x="581" y="485" type="line"/>
      <point x="663" y="485" type="line" smooth="yes"/>
      <point x="676" y="485"/>
      <point x="684" y="489"/>
      <point x="687" y="500" type="curve"/>
      <point x="670" y="517"/>
      <point x="648" y="536"/>
      <point x="628" y="552" type="curve"/>
      <point x="600" y="513" type="line"/>
      <point x="573" y="513" type="line"/>
      <point x="573" y="623" type="line"/>
      <point x="597" y="627"/>
      <point x="606" y="637"/>
      <point x="609" y="651" type="curve"/>
      <point x="514" y="662" type="line"/>
      <point x="514" y="513" type="line"/>
      <point x="425" y="513" type="line"/>
      <point x="433" y="485" type="line"/>
      <point x="525" y="485" type="line"/>
      <point x="505" y="380"/>
      <point x="467" y="282"/>
      <point x="408" y="202" type="curve"/>
      <point x="421" y="193" type="line"/>
      <point x="435" y="205"/>
      <point x="447" y="217"/>
      <point x="459" y="229" type="curve"/>
      <point x="485" y="199"/>
      <point x="510" y="165"/>
      <point x="529" y="132" type="curve"/>
      <point x="495" y="59"/>
      <point x="451" y="-6"/>
      <point x="397" y="-63" type="curve"/>
      <point x="397" y="627" type="line"/>
      <point x="421" y="631"/>
      <point x="430" y="641"/>
      <point x="433" y="655" type="curve"/>
      <point x="338" y="666" type="line"/>
    </contour>
    <contour>
      <point x="144" y="-101" type="line"/>
      <point x="154" y="-101" type="line" smooth="yes"/>
      <point x="175" y="-101"/>
      <point x="204" y="-86"/>
      <point x="205" y="-80" type="curve"/>
      <point x="205" y="348" type="line"/>
      <point x="311" y="348" type="line" smooth="yes"/>
      <point x="324" y="348"/>
      <point x="332" y="352"/>
      <point x="335" y="363" type="curve"/>
      <point x="313" y="383"/>
      <point x="287" y="405"/>
      <point x="264" y="423" type="curve"/>
      <point x="231" y="376" type="line"/>
      <point x="205" y="376" type="line"/>
      <point x="205" y="591" type="line"/>
      <point x="300" y="591" type="line" smooth="yes"/>
      <point x="314" y="591"/>
      <point x="322" y="595"/>
      <point x="325" y="606" type="curve"/>
      <point x="303" y="626"/>
      <point x="277" y="648"/>
      <point x="254" y="666" type="curve"/>
      <point x="221" y="619" type="line"/>
      <point x="51" y="619" type="line"/>
      <point x="59" y="591" type="line"/>
      <point x="144" y="591" type="line"/>
      <point x="144" y="376" type="line"/>
      <point x="41" y="376" type="line"/>
      <point x="49" y="348" type="line"/>
      <point x="144" y="348" type="line"/>
    </contour>
    <contour>
      <point x="764" y="-101" type="curve" smooth="yes"/>
      <point x="826" y="-101" type="line" smooth="yes"/>
      <point x="929" y="-101"/>
      <point x="968" y="-86"/>
      <point x="968" y="-60" type="curve" smooth="yes"/>
      <point x="968" y="-45"/>
      <point x="957" y="-39"/>
      <point x="936" y="-33" type="curve"/>
      <point x="935" y="196" type="line"/>
      <point x="922" y="196" type="line"/>
      <point x="912" y="122"/>
      <point x="893" y="15"/>
      <point x="879" y="-23" type="curve" smooth="yes"/>
      <point x="874" y="-34"/>
      <point x="868" y="-40"/>
      <point x="860" y="-43" type="curve" smooth="yes"/>
      <point x="852" y="-45"/>
      <point x="836" y="-45"/>
      <point x="820" y="-45" type="curve" smooth="yes"/>
      <point x="781" y="-45" type="line" smooth="yes"/>
      <point x="761" y="-45"/>
      <point x="757" y="-38"/>
      <point x="757" y="-25" type="curve" smooth="yes"/>
      <point x="757" y="303" type="line"/>
      <point x="820" y="314"/>
      <point x="874" y="330"/>
      <point x="917" y="351" type="curve"/>
      <point x="923" y="350"/>
      <point x="928" y="349"/>
      <point x="932" y="349" type="curve" smooth="yes"/>
      <point x="944" y="349"/>
      <point x="951" y="354"/>
      <point x="955" y="362" type="curve"/>
      <point x="886" y="421" type="line"/>
      <point x="854" y="381"/>
      <point x="808" y="349"/>
      <point x="757" y="326" type="curve"/>
      <point x="757" y="630" type="line"/>
      <point x="782" y="634"/>
      <point x="792" y="644"/>
      <point x="794" y="658" type="curve"/>
      <point x="693" y="669" type="line"/>
      <point x="693" y="-39" type="line" smooth="yes"/>
      <point x="693" y="-84"/>
      <point x="704" y="-101"/>
    </contour>
    <contour>
      <point x="63" y="714" type="line"/>
      <point x="922" y="714" type="line" smooth="yes"/>
      <point x="936" y="714"/>
      <point x="944" y="718"/>
      <point x="947" y="729" type="curve"/>
      <point x="916" y="756"/>
      <point x="881" y="784"/>
      <point x="853" y="805" type="curve"/>
      <point x="810" y="742" type="line"/>
      <point x="55" y="742" type="line"/>
    </contour>
  </outline>
</glyph>
